<svg width="2144" height="1024" viewBox="0 0 2144 1024" fill="none" xmlns="http://www.w3.org/2000/svg">
<rect x="48" width="2048" height="1024" rx="25" fill="#F5F4E3"/>
<path d="M164.2 922.81H159.72V878.01H186.92V882.17H164.2V899.002H185V903.162H164.2V922.81ZM210.575 923.45C200.719 923.45 194.575 915.002 194.575 900.41C194.575 885.818 200.719 877.37 210.575 877.37C220.431 877.37 226.575 885.818 226.575 900.41C226.575 915.002 220.431 923.45 210.575 923.45ZM210.447 919.29H210.703C217.871 919.29 222.095 912.122 222.095 900.41C222.095 888.698 217.871 881.53 210.703 881.53H210.447C203.279 881.53 199.055 888.698 199.055 900.41C199.055 912.122 203.279 919.29 210.447 919.29ZM256.566 900.73H257.014C261.174 900.73 262.71 902.65 262.71 906.81V922.81H258.23V906.81C258.23 904.89 257.27 903.93 255.35 903.93H240.31V922.81H235.83V878.01H249.654C257.526 878.01 263.35 883.066 263.35 889.978C263.35 895.162 260.662 899.066 256.566 900.73ZM240.31 899.77H249.014C254.134 899.77 258.87 896.25 258.87 890.618C258.87 885.306 255.158 882.17 249.014 882.17H240.31V899.77Z" fill="black"/>
<g clip-path="url(#clip0_69_64)">
<path d="M335.441 917.947C333.599 916.763 331.836 915.459 330.163 914.045L325.55 923.75C324.873 925.168 324.548 926.728 324.602 928.297C324.657 929.867 325.089 931.401 325.862 932.768C326.691 934.261 327.906 935.502 329.377 936.366C331.196 937.455 333.32 937.923 335.428 937.698C337.13 937.495 338.75 936.859 340.136 935.851C341.521 934.843 342.625 933.496 343.341 931.94L347.329 923.547C343.141 922.203 339.145 920.32 335.441 917.947Z" fill="#2404AA"/>
<path d="M339.11 895.277L334.742 904.466L330.183 914.052C331.859 915.467 333.62 916.77 335.461 917.953C339.165 920.327 343.162 922.209 347.352 923.553L351.756 914.3L355.889 905.595C349.357 904.173 342.838 900.172 339.11 895.277Z" fill="#210784"/>
<path d="M392.026 913.471L383.111 894.713C381.102 897.149 378.753 899.284 376.137 901.052C373.213 903.062 369.952 904.531 366.51 905.388L375.031 923.27C379.285 921.821 383.324 919.807 387.041 917.282C388.778 916.115 390.442 914.84 392.026 913.471Z" fill="#26069C"/>
<path d="M407.128 878.289C406.232 876.949 405.019 875.851 403.598 875.09C402.176 874.33 400.589 873.932 398.977 873.93C396.712 873.939 394.521 874.731 392.773 876.172C391.026 877.613 389.832 879.614 389.392 881.836C388.392 886.577 386.24 891 383.127 894.713L392.042 913.475C400.309 906.32 406.422 896.557 408.598 885.643C408.853 884.381 408.854 883.081 408.602 881.819C408.35 880.556 407.848 879.356 407.128 878.289Z" fill="#FF9999"/>
<path d="M366.516 905.382C364.586 905.855 362.606 906.096 360.619 906.101C359.023 906.09 357.432 905.912 355.873 905.569C349.36 904.157 342.841 900.156 339.114 895.261C338.224 894.117 337.483 892.864 336.908 891.534C336.416 890.249 335.658 889.083 334.684 888.111C333.709 887.139 332.541 886.385 331.254 885.896C329.968 885.407 328.593 885.195 327.22 885.275C325.846 885.354 324.504 885.722 323.283 886.356C318.782 888.652 316.889 894.52 318.879 899.175C321.174 904.618 325.095 909.751 330.186 914.052C331.859 915.467 333.62 916.767 335.464 917.953C339.167 920.327 343.163 922.209 347.352 923.553C351.646 924.94 356.125 925.659 360.635 925.685C365.529 925.666 370.386 924.847 375.015 923.26L366.516 905.382Z" fill="#0030EC" fill-opacity="0.9"/>
<path d="M396.84 923.582L392.045 913.458L383.13 894.703L370.095 867.288C369.3 865.616 368.047 864.203 366.482 863.214C364.917 862.224 363.103 861.699 361.251 861.699C359.399 861.699 357.585 862.224 356.02 863.214C354.455 864.203 353.202 865.616 352.407 867.288L339.091 895.268C342.822 900.162 349.357 904.182 355.87 905.579L360.206 896.464C360.299 896.268 360.445 896.103 360.627 895.988C360.81 895.872 361.022 895.81 361.238 895.81C361.454 895.81 361.666 895.872 361.849 895.988C362.031 896.103 362.177 896.268 362.27 896.464L366.526 905.385L375.05 923.266L379.268 932.146C380.066 933.817 381.32 935.228 382.885 936.218C384.45 937.207 386.263 937.735 388.115 937.74C390.335 937.736 392.488 936.979 394.222 935.594C395.957 934.208 397.17 932.276 397.665 930.111C398.132 927.904 397.841 925.604 396.84 923.582Z" fill="#F25E6B" fill-opacity="0.95"/>
</g>
<path d="M1259.97 690.387L1231.06 683.159C1209.37 677.902 1186.38 665.747 1186.38 632.894C1186.38 601.355 1213.64 580 1255.04 580C1290.19 580 1321.07 591.499 1327.97 623.038C1327.97 629.609 1327.32 634.536 1318.45 634.536H1287.56C1281.32 634.536 1278.37 631.58 1274.75 627.309C1272.12 624.352 1267.52 621.724 1260.3 621.724C1251.1 621.724 1247.15 627.309 1247.15 632.237C1247.15 638.808 1254.71 641.764 1265.22 644.392L1292.49 651.291C1315.49 657.205 1337.17 668.704 1337.17 700.9C1337.17 733.425 1313.85 757.407 1263.58 757.407C1232.37 757.407 1194.92 750.837 1184.73 711.413C1184.41 710.427 1184.41 709.442 1184.41 708.456C1184.41 702.871 1187.36 698.928 1193.93 698.928H1225.8C1231.71 698.928 1236.31 702.871 1239.27 707.142C1242.23 711.413 1248.47 715.684 1258 715.684C1270.15 715.684 1276.39 710.756 1276.39 702.214C1276.39 695.315 1271.14 693.344 1259.97 690.387Z" fill="#0C50FF"/>
<path d="M1058.5 629.303C1051.6 629.303 1047 624.703 1047 617.804V596.45C1047 589.551 1051.6 584.951 1058.5 584.951H1076.24V547.499C1076.24 540.6 1080.84 536 1087.74 536H1125.19C1132.09 536 1136.69 540.6 1136.69 547.499V584.951H1162.97C1169.87 584.951 1174.47 589.551 1174.47 596.45V617.804C1174.47 624.703 1169.87 629.303 1162.97 629.303H1136.69V694.681C1136.69 706.837 1142.93 710.45 1156.4 710.45C1159.03 710.45 1164.29 709.465 1168.56 709.465C1174.8 709.465 1177.76 712.421 1177.76 718.992V743.303C1177.76 754.802 1152.13 757.43 1137.67 757.43C1091.68 757.43 1076.24 743.303 1076.24 698.623V629.303H1058.5Z" fill="#0C50FF"/>
<path d="M971.561 690.387L942.65 683.159C920.967 677.902 897.97 665.747 897.97 632.894C897.97 601.355 925.238 580 966.633 580C1001.79 580 1032.67 591.499 1039.57 623.038C1039.57 629.609 1038.91 634.536 1030.04 634.536H999.158C992.916 634.536 989.959 631.58 986.345 627.309C983.717 624.352 979.118 621.724 971.89 621.724C962.691 621.724 958.748 627.309 958.748 632.237C958.748 638.808 966.305 641.764 976.818 644.392L1004.09 651.291C1027.08 657.205 1048.77 668.704 1048.77 700.9C1048.77 733.425 1025.44 757.407 975.175 757.407C943.965 757.407 906.512 750.837 896.328 711.413C895.999 710.427 895.999 709.442 895.999 708.456C895.999 702.871 898.955 698.928 905.526 698.928H937.394C943.308 698.928 947.907 702.871 950.864 707.142C953.821 711.413 960.063 715.684 969.59 715.684C981.746 715.684 987.988 710.756 987.988 702.214C987.988 695.315 982.731 693.344 971.561 690.387Z" fill="#0C50FF"/>
<path d="M768.777 668.704C768.777 694.001 780.933 709.441 798.674 709.441C816.086 709.441 828.57 694.001 828.57 668.704C828.57 643.736 816.086 628.294 798.674 628.294C780.933 628.294 768.777 643.736 768.777 668.704ZM707.999 668.704C707.999 616.139 746.109 580 798.674 580C850.911 580 889.348 616.139 889.348 668.704C889.348 721.269 851.239 757.407 798.674 757.407C746.109 757.407 707.999 721.598 707.999 668.704Z" fill="#0C50FF"/>
<path d="M581.777 668.704C581.777 694.001 593.933 709.441 611.674 709.441C629.086 709.441 641.57 694.001 641.57 668.704C641.57 643.736 629.086 628.294 611.674 628.294C593.933 628.294 581.777 643.736 581.777 668.704ZM520.999 668.704C520.999 616.139 559.109 580 611.674 580C663.911 580 702.348 616.139 702.348 668.704C702.348 721.269 664.239 757.407 611.674 757.407C559.109 757.407 520.999 721.598 520.999 668.704Z" fill="#0C50FF"/>
<path d="M395.777 668.704C395.777 694.001 407.933 709.441 425.674 709.441C443.086 709.441 455.57 694.001 455.57 668.704C455.57 643.736 443.086 628.294 425.674 628.294C407.933 628.294 395.777 643.736 395.777 668.704ZM334.999 668.704C334.999 616.139 373.109 580 425.674 580C477.911 580 516.348 616.139 516.348 668.704C516.348 721.269 478.239 757.407 425.674 757.407C373.109 757.407 334.999 721.598 334.999 668.704Z" fill="#0C50FF"/>
<path d="M208.778 668.704C208.778 694.001 220.934 709.441 238.675 709.441C256.087 709.441 268.571 694.001 268.571 668.704C268.571 643.736 256.087 628.294 238.675 628.294C220.934 628.294 208.778 643.736 208.778 668.704ZM148 668.704C148 616.139 186.11 580 238.675 580C290.912 580 329.349 616.139 329.349 668.704C329.349 721.269 291.24 757.407 238.675 757.407C186.11 757.407 148 721.598 148 668.704Z" fill="#0C50FF"/>
<path d="M778.913 481.56C781.118 506.761 794.573 521.082 812.246 519.536C829.592 518.019 840.683 501.549 838.478 476.349C836.302 451.476 822.52 437.18 805.174 438.698C787.501 440.244 776.737 456.687 778.913 481.56ZM718.366 486.857C713.785 434.492 748.6 395.169 800.965 390.588C853.003 386.035 894.444 418.686 899.025 471.051C903.606 523.416 868.792 562.738 816.427 567.32C764.062 571.901 722.976 539.55 718.366 486.857Z" fill="#0C50FF"/>
<path d="M918.772 437.612L887.076 464.494L826.486 398.408C828.84 395.121 830.919 391.614 832.724 387.888C834.529 384.162 836.292 379.853 838.013 374.96C839.736 370.016 841.624 364.15 843.674 357.358C844.729 353.888 846.429 351.418 848.773 349.948C851.118 348.479 853.639 347.955 856.336 348.377C859.036 348.748 861.437 350.111 863.542 352.466L897.361 389.442C896.745 394.253 895.725 398.408 894.301 401.904C892.929 405.405 891.082 408.547 888.76 411.331C886.439 414.115 883.616 416.945 880.294 419.818C879.743 420.238 879.451 420.724 879.416 421.278C879.434 421.835 879.588 422.298 879.879 422.67C880.957 423.849 882.978 424.203 885.94 423.733C888.906 423.211 892.243 422.183 895.953 420.647C899.719 419.065 903.294 417.168 906.681 414.956C910.067 412.743 912.671 410.456 914.495 408.096L920.078 414.28C923.558 418.085 925.166 422.101 924.9 426.328C924.69 430.508 922.648 434.268 918.772 437.612ZM782.454 514.23C778.409 512.764 774.621 510.128 771.088 506.319C767.559 502.461 765.294 498.504 764.291 494.45C763.288 490.397 763.51 486.446 764.955 482.597C766.404 478.697 769.094 475.077 773.022 471.736C776.062 469.2 779.773 466.805 784.156 464.554C788.543 462.253 793.08 460.063 797.768 457.982C802.507 455.905 806.952 453.911 811.105 452C815.313 450.041 818.708 448.107 821.289 446.198L802.169 425.374C800.258 423.284 799.401 421.083 799.598 418.772C799.798 416.41 800.95 414.336 803.052 412.548L811.683 405.209C813.841 403.374 816.094 402.53 818.441 402.677C820.789 402.824 822.942 403.969 824.903 406.113L880.998 467.446C882.861 469.483 883.72 471.658 883.575 473.972C883.485 476.24 882.361 478.292 880.203 480.126L871.651 487.47C869.496 489.255 867.219 490.071 864.82 489.92C862.417 489.82 860.234 488.724 858.27 486.631L839.233 465.736C836.942 468.017 834.526 471.048 831.984 474.828C829.446 478.559 826.814 482.536 824.087 486.759C821.41 491.037 818.613 495.13 815.697 499.039C812.832 502.952 809.879 506.2 806.836 508.788C802.96 512.132 798.924 514.252 794.731 515.151C790.589 516.054 786.497 515.746 782.454 514.23Z" fill="#0C50FF"/>
<path d="M790.408 363.506C790.017 363.154 789.774 362.684 789.676 362.098C789.227 358.853 788.748 356.047 788.24 353.682C787.732 351.317 787.116 349.313 786.393 347.671C785.67 346.009 784.753 344.632 783.639 343.537C782.545 342.423 781.177 341.514 779.536 340.81C777.895 340.106 775.912 339.519 773.587 339.05C771.262 338.561 768.507 338.102 765.322 337.672C764.716 337.613 764.219 337.389 763.828 336.998C763.457 336.587 763.271 336.098 763.271 335.531C763.271 334.964 763.457 334.486 763.828 334.095C764.219 333.684 764.716 333.44 765.322 333.362C769.132 332.951 772.337 332.462 774.935 331.895C777.553 331.309 779.702 330.508 781.382 329.491C783.082 328.474 784.45 327.116 785.485 325.415C786.52 323.695 787.351 321.495 787.976 318.817C788.601 316.139 789.168 312.845 789.676 308.935C789.774 308.349 790.017 307.88 790.408 307.528C790.799 307.176 791.268 307 791.815 307C792.362 307 792.831 307.176 793.222 307.528C793.613 307.88 793.856 308.349 793.954 308.935C794.462 312.845 795.029 316.139 795.654 318.817C796.279 321.495 797.1 323.695 798.116 325.415C799.151 327.116 800.509 328.474 802.189 329.491C803.889 330.508 806.048 331.309 808.666 331.895C811.284 332.462 814.498 332.951 818.308 333.362C818.894 333.44 819.382 333.684 819.773 334.095C820.164 334.486 820.359 334.964 820.359 335.531C820.359 336.098 820.164 336.587 819.773 336.998C819.382 337.389 818.894 337.613 818.308 337.672C814.498 338.102 811.284 338.611 808.666 339.197C806.048 339.764 803.889 340.555 802.189 341.572C800.509 342.589 799.151 343.957 798.116 345.677C797.1 347.378 796.279 349.568 795.654 352.246C795.029 354.905 794.462 358.188 793.954 362.098C793.856 362.684 793.613 363.154 793.222 363.506C792.831 363.877 792.362 364.063 791.815 364.063C791.268 364.063 790.799 363.877 790.408 363.506Z" fill="#0C50FF"/>
<mask id="mask0_69_64" style="mask-type:alpha" maskUnits="userSpaceOnUse" x="753" y="338" width="182" height="188">
<path d="M918.775 437.612C922.651 434.268 924.694 430.507 924.904 426.327C925.137 422.6 923.915 419.038 921.238 415.639C920.878 415.182 920.493 414.729 920.081 414.28L914.499 408.095C912.827 410.26 910.499 412.361 907.514 414.4C907.243 414.585 906.966 414.771 906.684 414.955C903.298 417.168 899.722 419.064 895.957 420.647C894.826 421.115 893.73 421.536 892.669 421.91C891.491 422.325 890.354 422.681 889.261 422.98C888.108 423.296 887.002 423.546 885.944 423.732C885.186 423.853 884.489 423.919 883.855 423.932C883.714 423.935 883.574 423.934 883.439 423.932C881.808 423.901 880.623 423.48 879.882 422.67C879.591 422.298 879.437 421.834 879.42 421.277C879.454 420.723 879.746 420.237 880.297 419.817C881.824 418.496 883.247 417.183 884.563 415.881L884.678 415.768C885.043 415.404 885.401 415.042 885.75 414.68C886.232 414.181 886.698 413.684 887.148 413.187C887.711 412.566 888.25 411.946 888.764 411.33C891.085 408.546 892.933 405.405 894.305 401.904C895.728 398.406 896.748 394.253 897.365 389.442L863.545 352.465C861.44 350.111 859.039 348.748 856.339 348.376C853.642 347.954 851.121 348.479 848.777 349.948C846.432 351.417 844.732 353.886 843.677 357.356C841.628 364.148 839.74 370.015 838.016 374.959C836.295 379.852 834.532 384.161 832.727 387.888C831.383 390.664 829.886 393.318 828.236 395.851C827.672 396.717 827.089 397.57 826.489 398.408L887.079 464.493L918.775 437.612ZM811.109 451.999C806.956 453.911 802.51 455.904 797.771 457.982C793.083 460.062 788.546 462.253 784.16 464.554C779.776 466.805 776.065 469.199 773.025 471.736C769.097 475.076 766.408 478.696 764.959 482.596C763.513 486.445 763.291 490.396 764.294 494.45C765.298 498.503 767.562 502.46 771.092 506.318C774.624 510.127 778.413 512.763 782.458 514.229C786.5 515.746 790.593 516.053 794.734 515.151C798.928 514.252 802.963 512.132 806.839 508.788C809.882 506.2 812.835 502.951 815.7 499.039C818.616 495.13 821.413 491.037 824.09 486.759C826.817 482.535 829.449 478.558 831.987 474.828C832.276 474.399 832.562 473.98 832.847 473.571C835.076 470.369 837.205 467.758 839.236 465.736L858.273 486.63C860.237 488.723 862.421 489.819 864.823 489.92C867.222 490.07 869.499 489.254 871.654 487.47L880.206 480.126C881.94 478.651 883.006 477.037 883.405 475.283C883.502 474.855 883.56 474.417 883.578 473.972C883.688 472.226 883.226 470.56 882.193 468.972C881.857 468.455 881.459 467.946 881.002 467.445L824.906 406.113C823.72 404.815 822.462 403.884 821.134 403.318C820.267 402.949 819.372 402.735 818.444 402.676C817.919 402.644 817.398 402.661 816.882 402.727C815.093 402.957 813.361 403.784 811.687 405.208L803.055 412.547C800.953 414.335 799.801 416.409 799.601 418.771C799.404 421.083 800.261 423.284 802.173 425.373L821.293 446.197C818.993 447.898 816.047 449.618 812.456 451.359C812.017 451.572 811.568 451.785 811.109 451.999ZM779.553 455.678C787.973 451.263 796.723 447.583 805.362 443.633L794.794 432.122C787.329 423.959 788.195 412.056 796.578 404.929L805.208 397.59C808.736 394.591 813.183 392.554 818.303 392.664C820.369 389.78 822.181 386.721 823.727 383.529C825.332 380.217 826.954 376.27 828.578 371.653C832.114 361.514 833.596 347.661 843.466 341.475C847.794 338.761 852.711 337.709 857.79 338.482C863.146 339.241 867.562 341.972 870.959 345.754L907.872 386.113L907.284 390.711C906.645 395.702 905.587 400.354 904.005 404.554C905.182 403.587 906.014 402.721 906.586 401.982L913.903 392.511C922.665 402.218 935.755 412.499 934.888 426.89C934.494 434.362 930.742 440.494 925.307 445.183L893.544 472.122C893.601 472.892 893.61 473.68 893.565 474.485C893.303 480.143 890.391 484.584 886.705 487.725C880.098 493.362 873.769 500.449 864.301 499.907C859.119 499.662 854.441 497.163 850.93 493.419L839.77 481.169C837.442 484.602 835.029 488.253 832.529 492.126C829.732 496.591 826.803 500.877 823.742 504.983C820.526 509.371 817.072 513.208 813.344 516.383C808.454 520.594 802.954 523.613 796.847 524.925C790.812 526.237 784.787 525.773 779 523.612C767.555 519.444 757.525 508.731 754.587 496.852C753.108 490.874 753.429 484.864 755.591 479.097C759.673 468.132 769.501 460.845 779.553 455.678Z" fill="#FCFDE9"/>
<path d="M811.109 451.999C806.956 453.911 802.51 455.904 797.771 457.982C793.083 460.062 788.546 462.253 784.16 464.554C779.776 466.805 776.065 469.199 773.025 471.736C769.097 475.076 766.408 478.696 764.959 482.596C763.513 486.445 763.291 490.396 764.294 494.45C765.298 498.503 767.562 502.46 771.092 506.318C774.624 510.127 778.413 512.763 782.458 514.229C786.5 515.746 790.593 516.053 794.734 515.151C798.928 514.252 802.963 512.132 806.839 508.788C809.882 506.2 812.835 502.951 815.7 499.039C818.616 495.13 821.413 491.037 824.09 486.759C826.817 482.535 829.449 478.558 831.987 474.828C832.276 474.399 832.562 473.98 832.847 473.571C835.076 470.369 837.205 467.758 839.236 465.736L858.273 486.63C860.237 488.723 862.421 489.819 864.823 489.92C867.222 490.07 869.499 489.254 871.654 487.47L880.206 480.126C881.94 478.651 883.006 477.037 883.405 475.283C883.502 474.855 883.56 474.417 883.578 473.972C883.688 472.226 883.226 470.56 882.193 468.972C881.857 468.455 881.459 467.946 881.002 467.445L824.906 406.113C823.72 404.815 822.462 403.884 821.134 403.318C820.267 402.949 819.372 402.735 818.444 402.676C817.919 402.644 817.398 402.661 816.882 402.727C815.093 402.957 813.361 403.784 811.687 405.208L803.055 412.547C800.953 414.335 799.801 416.409 799.601 418.771C799.404 421.083 800.261 423.284 802.173 425.373L821.293 446.197C818.993 447.898 816.047 449.618 812.456 451.359C812.017 451.572 811.568 451.785 811.109 451.999Z" fill="#FCFDE9"/>
</mask>
<g mask="url(#mask0_69_64)">
<path d="M813.982 519.37C813.163 519.515 812.329 519.625 811.479 519.7C809.597 519.864 807.764 519.849 805.986 519.66C791.068 518.074 780.117 504.249 778.148 481.744C776.771 466.006 780.58 453.645 788.044 446.301L797.184 448.532L793.655 452.003C788.464 457.111 784.867 466.752 786.117 481.047C787.116 492.461 790.596 500.521 794.974 505.412C799.181 510.113 804.515 512.278 810.782 511.73C811.4 511.676 812.002 511.596 812.584 511.493L821.752 509.866L813.982 519.37Z" fill="#FCFDE9"/>
</g>
<path d="M918.772 437.612C922.648 434.268 924.69 430.508 924.9 426.328C925.134 422.601 923.912 419.038 921.234 415.639C920.875 415.183 920.49 414.73 920.078 414.28L914.495 408.096C912.824 410.26 910.496 412.362 907.511 414.401C907.24 414.586 906.963 414.771 906.681 414.956C903.295 417.168 899.719 419.065 895.953 420.647C894.823 421.116 893.727 421.537 892.666 421.91C891.488 422.325 890.351 422.682 889.258 422.981C888.105 423.296 886.999 423.547 885.941 423.733C885.182 423.854 884.486 423.92 883.852 423.932C883.71 423.936 883.571 423.935 883.436 423.932C881.805 423.901 880.62 423.48 879.879 422.67C879.588 422.298 879.434 421.835 879.416 421.278C879.451 420.724 879.743 420.238 880.294 419.818C881.821 418.497 883.244 417.184 884.56 415.882L884.675 415.769C885.04 415.405 885.397 415.043 885.747 414.681C886.229 414.182 886.695 413.684 887.145 413.187C887.708 412.566 888.247 411.947 888.76 411.331C891.082 408.547 892.93 405.405 894.301 401.904C895.725 398.407 896.745 394.253 897.361 389.442L863.542 352.466C861.437 350.111 859.036 348.748 856.336 348.377C853.639 347.955 851.118 348.479 848.773 349.948C846.429 351.418 844.729 353.887 843.674 357.357C841.625 364.149 839.737 370.016 838.013 374.96C836.292 379.853 834.529 384.162 832.724 387.888C831.38 390.664 829.882 393.319 828.233 395.852C827.668 396.718 827.086 397.57 826.486 398.408L887.076 464.494L918.772 437.612ZM811.105 452C806.952 453.911 802.507 455.905 797.768 457.982C793.08 460.063 788.543 462.253 784.157 464.554C779.773 466.805 776.062 469.2 773.022 471.736C769.094 475.077 766.404 478.697 764.955 482.597C763.51 486.446 763.288 490.397 764.291 494.45C765.294 498.504 767.559 502.461 771.088 506.319C774.621 510.128 778.409 512.764 782.455 514.23C786.497 515.746 790.589 516.054 794.731 515.151C798.924 514.252 802.96 512.133 806.836 508.789C809.879 506.201 812.832 502.952 815.697 499.039C818.613 495.13 821.41 491.037 824.087 486.759C826.814 482.536 829.446 478.559 831.984 474.828C832.273 474.4 832.558 473.981 832.844 473.572C835.072 470.37 837.202 467.759 839.233 465.736L858.27 486.631C860.234 488.724 862.417 489.82 864.82 489.92C867.219 490.071 869.496 489.255 871.651 487.47L880.203 480.126C881.937 478.652 883.003 477.037 883.402 475.284C883.499 474.855 883.557 474.418 883.575 473.972C883.684 472.227 883.223 470.56 882.19 468.973C881.854 468.456 881.456 467.947 880.998 467.446L824.903 406.113C823.717 404.815 822.458 403.885 821.13 403.319C820.264 402.95 819.368 402.735 818.441 402.677C817.916 402.644 817.395 402.662 816.879 402.727C815.09 402.958 813.358 403.785 811.683 405.209L803.052 412.548C800.95 414.336 799.798 416.41 799.598 418.772C799.401 421.083 800.258 423.284 802.169 425.374L821.289 446.198C818.989 447.899 816.044 449.619 812.453 451.36C812.014 451.573 811.565 451.786 811.105 452ZM779.55 455.678C787.97 451.264 796.72 447.583 805.359 443.633L794.791 432.122C787.326 423.96 788.192 412.057 796.574 404.93L805.205 397.59C808.732 394.591 813.18 392.555 818.3 392.665C820.365 389.78 822.177 386.722 823.724 383.529C825.329 380.217 826.951 376.271 828.575 371.654C832.111 361.515 833.593 347.662 843.462 341.475C847.791 338.762 852.707 337.71 857.787 338.482C863.143 339.242 867.559 341.973 870.955 345.755L907.868 386.114L907.28 390.712C906.642 395.703 905.584 400.355 904.001 404.555C905.178 403.587 906.011 402.722 906.583 401.982L913.9 392.512C922.661 402.218 935.751 412.5 934.885 426.891C934.49 434.363 930.739 440.495 925.304 445.184L893.54 472.122C893.598 472.893 893.607 473.681 893.561 474.485C893.3 480.144 890.388 484.584 886.702 487.726C880.094 493.362 873.766 500.45 864.298 499.907C859.116 499.662 854.438 497.164 850.927 493.42L839.766 481.17C837.439 484.603 835.026 488.254 832.525 492.126C829.728 496.592 826.799 500.878 823.738 504.983C820.522 509.372 817.068 513.209 813.34 516.384C808.451 520.595 802.95 523.614 796.844 524.926C790.809 526.238 784.783 525.774 778.996 523.613C767.552 519.444 757.522 508.732 754.584 496.852C753.105 490.875 753.426 484.864 755.588 479.097C759.67 468.132 769.498 460.845 779.55 455.678Z" fill="#FCFDE9"/>
<path d="M718.372 486.929C714.675 444.673 736.659 410.915 772.823 397.065L788.816 446.188C781.351 453.533 777.542 465.894 778.919 481.632C781.123 506.819 794.576 521.133 812.25 519.587C813.1 519.513 813.933 519.403 814.753 519.258L815.927 567.387C763.8 571.721 722.965 539.425 718.372 486.929Z" fill="#0C50FF"/>
<path d="M591.777 479.329C591.777 504.626 603.933 520.066 621.674 520.066C639.086 520.066 651.57 504.626 651.57 479.329C651.57 454.361 639.086 438.919 621.674 438.919C603.933 438.919 591.777 454.361 591.777 479.329ZM530.999 479.329C530.999 426.764 569.109 390.625 621.674 390.625C673.911 390.625 712.348 426.764 712.348 479.329C712.348 531.894 674.239 568.032 621.674 568.032C569.109 568.032 530.999 532.223 530.999 479.329Z" fill="#0C50FF"/>
<path d="M405.441 478.704C405.441 504.001 417.597 519.441 435.338 519.441C452.75 519.441 465.234 504.001 465.234 478.704C465.234 453.736 452.75 438.294 435.338 438.294C417.597 438.294 405.441 453.736 405.441 478.704ZM344.663 478.704C344.663 426.139 382.773 390 435.338 390C487.575 390 526.012 426.139 526.012 478.704C526.012 531.269 487.903 567.407 435.338 567.407C382.773 567.407 344.663 531.598 344.663 478.704Z" fill="#0C50FF"/>
<path d="M221.977 422.675H240.047C259.43 422.675 265.343 415.775 265.343 401.977C265.343 386.536 258.116 380.623 240.047 380.623H221.977V422.675ZM221.977 513.349H245.632C264.687 513.349 273.885 506.122 273.885 488.381C273.885 471.954 265.672 463.084 245.632 463.084H221.977V513.349ZM156.271 550.473V343.499C156.271 336.6 160.871 332 167.77 332H260.087C313.309 332 331.378 359.925 331.378 394.092C331.378 415.775 321.851 432.202 300.168 440.744V442.715C329.079 448.629 339.592 471.298 339.592 494.952C339.592 532.076 312.981 561.972 260.416 561.972H167.77C160.871 561.972 156.271 557.372 156.271 550.473Z" fill="#0C50FF"/>
<mask id="path-26-outside-1_69_64" maskUnits="userSpaceOnUse" x="155" y="80" width="879" height="234" fill="black">
<rect fill="white" x="155" y="80" width="879" height="234"/>
<path d="M217.423 216.338L238.028 213.485C255.463 211.266 265.607 205.243 265.607 193.197C265.607 172.275 249.757 163.082 229.786 163.082C212.985 163.082 199.988 170.69 194.282 182.419C192.063 186.857 188.259 190.344 183.504 190.344H174.945C169.239 190.344 165.118 187.174 165.118 182.419C165.118 181.468 165.435 180.517 165.752 179.249C174.628 152.621 199.988 140.892 229.469 140.892C257.999 140.892 276.385 152.621 284.944 171.641C298.892 151.67 323.935 140.575 350.563 140.575C389.554 140.575 432.666 165.935 432.666 219.825C432.666 228.067 432.032 235.041 423.79 235.041H293.503C297.941 270.228 323.301 288.614 350.88 288.614C373.07 288.614 390.188 277.519 399.064 262.303C400.966 258.816 404.77 256.28 408.574 256.28H416.182C422.205 256.28 426.009 259.133 426.009 263.571C426.009 265.156 425.375 267.058 424.424 268.96C410.159 296.222 383.531 311.755 350.563 311.755C322.35 311.755 294.771 298.758 280.189 274.349C263.388 299.075 238.662 311.755 207.913 311.755C180.651 311.755 157.51 295.905 157.51 266.424C157.51 228.384 188.576 220.459 217.423 216.338ZM265.29 247.087V222.361C259.901 228.067 249.757 230.92 238.345 232.505L221.861 235.041C203.158 237.894 185.723 244.234 185.723 265.473C185.723 281.323 196.818 290.199 214.887 290.199C237.711 290.199 265.29 271.179 265.29 247.087ZM350.563 163.716C324.252 163.716 300.16 181.468 294.454 211.9H406.355C401.917 180.2 376.874 163.716 350.563 163.716ZM462.365 155.474C462.365 149.451 466.486 145.33 472.509 145.33H478.849C484.872 145.33 488.993 149.451 488.993 155.474V168.154C503.892 149.134 523.863 140.575 545.736 140.575C586.312 140.575 604.381 165.301 604.381 202.39V296.856C604.381 302.879 600.26 307 594.237 307H586.946C580.923 307 576.802 302.879 576.802 296.856V205.243C576.802 179.566 563.171 164.033 538.445 164.033C513.085 164.033 489.944 184.955 489.944 212.534V296.856C489.944 302.879 485.823 307 479.8 307H472.509C466.486 307 462.365 302.879 462.365 296.856V155.474ZM634.263 226.165C634.263 177.347 670.718 140.575 719.219 140.575C767.403 140.575 804.175 176.713 804.175 226.165C804.175 275.934 767.403 311.755 719.219 311.755C670.718 311.755 634.263 275.3 634.263 226.165ZM662.159 226.165C662.159 263.571 686.885 288.614 719.219 288.614C751.236 288.614 776.279 263.571 776.279 226.165C776.279 189.076 751.87 163.716 719.219 163.716C686.885 163.716 662.159 189.076 662.159 226.165ZM834.8 147.866V145.013C834.8 141.526 837.97 139.307 839.238 138.99C848.431 135.503 852.869 128.212 852.869 118.385C837.97 118.385 833.215 110.46 833.215 100.316C833.215 90.489 840.506 82.247 851.284 82.247C861.428 82.247 869.353 88.904 869.353 104.437C869.353 126.627 862.379 145.964 841.457 152.938C840.823 153.255 839.872 153.572 838.921 153.572C837.019 153.572 834.8 152.304 834.8 147.866ZM976.286 237.577L945.537 229.652C924.298 224.263 903.693 214.753 903.693 186.857C903.693 161.814 924.615 140.575 962.972 140.575C988.966 140.575 1016.86 150.719 1023.2 177.981C1023.2 178.615 1023.52 179.566 1023.52 180.2C1023.52 184.955 1019.4 188.125 1014.01 188.125H1007.99C1002.28 188.125 998.793 184.321 996.257 179.249C990.551 167.52 976.286 163.399 963.606 163.399C943.952 163.399 931.272 172.592 931.272 186.54C931.272 198.586 941.733 204.609 954.096 207.779L981.041 214.753C1005.77 221.093 1031.76 229.335 1031.76 261.669C1031.76 290.516 1008.3 311.755 967.727 311.755C937.612 311.755 908.131 300.026 901.474 265.79C901.157 265.156 901.157 264.522 901.157 263.571C901.157 258.816 904.961 255.329 910.984 255.329H916.69C922.713 255.329 926.517 259.45 928.102 265.156C932.857 282.274 949.341 288.931 967.093 288.931C991.502 288.931 1004.18 277.519 1004.18 262.303C1004.18 248.038 992.77 242.015 976.286 237.577Z"/>
</mask>
<path d="M217.423 216.338L238.028 213.485C255.463 211.266 265.607 205.243 265.607 193.197C265.607 172.275 249.757 163.082 229.786 163.082C212.985 163.082 199.988 170.69 194.282 182.419C192.063 186.857 188.259 190.344 183.504 190.344H174.945C169.239 190.344 165.118 187.174 165.118 182.419C165.118 181.468 165.435 180.517 165.752 179.249C174.628 152.621 199.988 140.892 229.469 140.892C257.999 140.892 276.385 152.621 284.944 171.641C298.892 151.67 323.935 140.575 350.563 140.575C389.554 140.575 432.666 165.935 432.666 219.825C432.666 228.067 432.032 235.041 423.79 235.041H293.503C297.941 270.228 323.301 288.614 350.88 288.614C373.07 288.614 390.188 277.519 399.064 262.303C400.966 258.816 404.77 256.28 408.574 256.28H416.182C422.205 256.28 426.009 259.133 426.009 263.571C426.009 265.156 425.375 267.058 424.424 268.96C410.159 296.222 383.531 311.755 350.563 311.755C322.35 311.755 294.771 298.758 280.189 274.349C263.388 299.075 238.662 311.755 207.913 311.755C180.651 311.755 157.51 295.905 157.51 266.424C157.51 228.384 188.576 220.459 217.423 216.338ZM265.29 247.087V222.361C259.901 228.067 249.757 230.92 238.345 232.505L221.861 235.041C203.158 237.894 185.723 244.234 185.723 265.473C185.723 281.323 196.818 290.199 214.887 290.199C237.711 290.199 265.29 271.179 265.29 247.087ZM350.563 163.716C324.252 163.716 300.16 181.468 294.454 211.9H406.355C401.917 180.2 376.874 163.716 350.563 163.716ZM462.365 155.474C462.365 149.451 466.486 145.33 472.509 145.33H478.849C484.872 145.33 488.993 149.451 488.993 155.474V168.154C503.892 149.134 523.863 140.575 545.736 140.575C586.312 140.575 604.381 165.301 604.381 202.39V296.856C604.381 302.879 600.26 307 594.237 307H586.946C580.923 307 576.802 302.879 576.802 296.856V205.243C576.802 179.566 563.171 164.033 538.445 164.033C513.085 164.033 489.944 184.955 489.944 212.534V296.856C489.944 302.879 485.823 307 479.8 307H472.509C466.486 307 462.365 302.879 462.365 296.856V155.474ZM634.263 226.165C634.263 177.347 670.718 140.575 719.219 140.575C767.403 140.575 804.175 176.713 804.175 226.165C804.175 275.934 767.403 311.755 719.219 311.755C670.718 311.755 634.263 275.3 634.263 226.165ZM662.159 226.165C662.159 263.571 686.885 288.614 719.219 288.614C751.236 288.614 776.279 263.571 776.279 226.165C776.279 189.076 751.87 163.716 719.219 163.716C686.885 163.716 662.159 189.076 662.159 226.165ZM834.8 147.866V145.013C834.8 141.526 837.97 139.307 839.238 138.99C848.431 135.503 852.869 128.212 852.869 118.385C837.97 118.385 833.215 110.46 833.215 100.316C833.215 90.489 840.506 82.247 851.284 82.247C861.428 82.247 869.353 88.904 869.353 104.437C869.353 126.627 862.379 145.964 841.457 152.938C840.823 153.255 839.872 153.572 838.921 153.572C837.019 153.572 834.8 152.304 834.8 147.866ZM976.286 237.577L945.537 229.652C924.298 224.263 903.693 214.753 903.693 186.857C903.693 161.814 924.615 140.575 962.972 140.575C988.966 140.575 1016.86 150.719 1023.2 177.981C1023.2 178.615 1023.52 179.566 1023.52 180.2C1023.52 184.955 1019.4 188.125 1014.01 188.125H1007.99C1002.28 188.125 998.793 184.321 996.257 179.249C990.551 167.52 976.286 163.399 963.606 163.399C943.952 163.399 931.272 172.592 931.272 186.54C931.272 198.586 941.733 204.609 954.096 207.779L981.041 214.753C1005.77 221.093 1031.76 229.335 1031.76 261.669C1031.76 290.516 1008.3 311.755 967.727 311.755C937.612 311.755 908.131 300.026 901.474 265.79C901.157 265.156 901.157 264.522 901.157 263.571C901.157 258.816 904.961 255.329 910.984 255.329H916.69C922.713 255.329 926.517 259.45 928.102 265.156C932.857 282.274 949.341 288.931 967.093 288.931C991.502 288.931 1004.18 277.519 1004.18 262.303C1004.18 248.038 992.77 242.015 976.286 237.577Z" fill="#0C50FF"/>
<path d="M217.423 216.338L217.149 214.357L217.14 214.358L217.423 216.338ZM238.028 213.485L237.775 211.501L237.765 211.502L237.754 211.504L238.028 213.485ZM194.282 182.419L196.071 183.313L196.076 183.304L196.08 183.294L194.282 182.419ZM165.752 179.249L163.855 178.617L163.83 178.689L163.812 178.764L165.752 179.249ZM284.944 171.641L283.12 172.462L284.566 175.675L286.584 172.786L284.944 171.641ZM293.503 235.041V233.041H291.235L291.519 235.291L293.503 235.041ZM399.064 262.303L400.792 263.311L400.806 263.286L400.82 263.261L399.064 262.303ZM424.424 268.96L426.196 269.887L426.205 269.871L426.213 269.854L424.424 268.96ZM280.189 274.349L281.906 273.323L280.297 270.631L278.535 273.225L280.189 274.349ZM265.29 222.361H267.29V217.331L263.836 220.988L265.29 222.361ZM238.345 232.505L238.07 230.524L238.055 230.526L238.041 230.528L238.345 232.505ZM221.861 235.041L222.163 237.018L222.165 237.018L221.861 235.041ZM294.454 211.9L292.488 211.531L292.044 213.9H294.454V211.9ZM406.355 211.9V213.9H408.655L408.336 211.623L406.355 211.9ZM217.697 218.319L238.302 215.466L237.754 211.504L217.149 214.357L217.697 218.319ZM238.281 215.469C247.12 214.344 254.393 212.228 259.5 208.667C264.729 205.02 267.607 199.901 267.607 193.197H263.607C263.607 198.539 261.413 202.455 257.211 205.386C252.887 208.402 246.371 210.407 237.775 211.501L238.281 215.469ZM267.607 193.197C267.607 182.168 263.396 174.027 256.397 168.702C249.476 163.437 240.041 161.082 229.786 161.082V165.082C239.502 165.082 247.977 167.323 253.975 171.886C259.893 176.388 263.607 183.304 263.607 193.197H267.607ZM229.786 161.082C212.39 161.082 198.593 168.986 192.484 181.544L196.08 183.294C201.383 172.394 213.58 165.082 229.786 165.082V161.082ZM192.493 181.525C190.445 185.622 187.187 188.344 183.504 188.344V192.344C189.331 192.344 193.681 188.092 196.071 183.313L192.493 181.525ZM183.504 188.344H174.945V192.344H183.504V188.344ZM174.945 188.344C172.446 188.344 170.457 187.649 169.137 186.599C167.851 185.577 167.118 184.163 167.118 182.419H163.118C163.118 185.43 164.445 187.978 166.647 189.73C168.814 191.454 171.738 192.344 174.945 192.344V188.344ZM167.118 182.419C167.118 181.793 167.318 181.23 167.692 179.734L163.812 178.764C163.552 179.804 163.118 181.143 163.118 182.419H167.118ZM167.649 179.881C176.146 154.392 200.452 142.892 229.469 142.892V138.892C199.524 138.892 173.11 150.85 163.855 178.617L167.649 179.881ZM229.469 142.892C257.384 142.892 274.949 154.304 283.12 172.462L286.768 170.82C277.821 150.938 258.614 138.892 229.469 138.892V142.892ZM286.584 172.786C300.083 153.458 324.446 142.575 350.563 142.575V138.575C323.424 138.575 297.701 149.882 283.304 170.496L286.584 172.786ZM350.563 142.575C369.654 142.575 389.708 148.789 404.954 161.526C420.15 174.222 430.666 193.472 430.666 219.825H434.666C434.666 192.288 423.626 171.913 407.518 158.456C391.46 145.041 370.463 138.575 350.563 138.575V142.575ZM430.666 219.825C430.666 224.009 430.482 227.399 429.48 229.736C429.008 230.84 428.386 231.618 427.573 232.14C426.753 232.667 425.568 233.041 423.79 233.041V237.041C426.133 237.041 428.118 236.544 429.735 235.505C431.359 234.462 432.441 232.982 433.157 231.312C434.533 228.101 434.666 223.883 434.666 219.825H430.666ZM423.79 233.041H293.503V237.041H423.79V233.041ZM291.519 235.291C296.086 271.502 322.318 290.614 350.88 290.614V286.614C324.284 286.614 299.796 268.954 295.487 234.791L291.519 235.291ZM350.88 290.614C373.778 290.614 391.555 279.144 400.792 263.311L397.336 261.295C388.821 275.894 372.362 286.614 350.88 286.614V290.614ZM400.82 263.261C402.426 260.316 405.609 258.28 408.574 258.28V254.28C403.931 254.28 399.506 257.316 397.308 261.345L400.82 263.261ZM408.574 258.28H416.182V254.28H408.574V258.28ZM416.182 258.28C418.905 258.28 420.9 258.928 422.16 259.866C423.363 260.761 424.009 261.992 424.009 263.571H428.009C428.009 260.712 426.753 258.298 424.548 256.657C422.401 255.059 419.482 254.28 416.182 254.28V258.28ZM424.009 263.571C424.009 264.695 423.536 266.264 422.635 268.066L426.213 269.854C427.214 267.852 428.009 265.617 428.009 263.571H424.009ZM422.652 268.033C408.758 294.585 382.845 309.755 350.563 309.755V313.755C384.217 313.755 411.56 297.859 426.196 269.887L422.652 268.033ZM350.563 309.755C322.924 309.755 296.065 297.024 281.906 273.323L278.472 275.375C293.477 300.492 321.776 313.755 350.563 313.755V309.755ZM278.535 273.225C262.123 297.377 238.031 309.755 207.913 309.755V313.755C239.293 313.755 264.653 300.773 281.843 275.473L278.535 273.225ZM207.913 309.755C194.65 309.755 182.532 305.898 173.767 298.607C165.046 291.352 159.51 280.59 159.51 266.424H155.51C155.51 281.739 161.545 293.642 171.209 301.682C180.831 309.687 193.914 313.755 207.913 313.755V309.755ZM159.51 266.424C159.51 248.082 166.932 237.229 177.724 230.348C188.698 223.351 203.285 220.378 217.706 218.318L217.14 214.358C202.714 216.419 187.345 219.469 175.574 226.975C163.621 234.596 155.51 246.726 155.51 266.424H159.51ZM267.29 247.087V222.361H263.29V247.087H267.29ZM263.836 220.988C261.445 223.519 257.892 225.522 253.415 227.091C248.952 228.655 243.707 229.741 238.07 230.524L238.62 234.486C244.395 233.684 249.928 232.551 254.738 230.866C259.533 229.185 263.746 226.909 266.744 223.734L263.836 220.988ZM238.041 230.528L221.557 233.064L222.165 237.018L238.649 234.482L238.041 230.528ZM221.559 233.064C212.145 234.5 202.733 236.85 195.647 241.713C188.416 246.676 183.723 254.183 183.723 265.473H187.723C187.723 255.524 191.747 249.241 197.91 245.011C204.217 240.682 212.874 238.435 222.163 237.018L221.559 233.064ZM183.723 265.473C183.723 273.9 186.695 280.68 192.248 285.315C197.75 289.908 205.552 292.199 214.887 292.199V288.199C206.153 288.199 199.373 286.052 194.811 282.244C190.299 278.479 187.723 272.896 187.723 265.473H183.723ZM214.887 292.199C226.808 292.199 239.838 287.254 249.894 279.242C259.949 271.23 267.29 259.93 267.29 247.087H263.29C263.29 258.336 256.842 268.592 247.401 276.113C237.961 283.634 225.79 288.199 214.887 288.199V292.199ZM350.563 161.716C323.306 161.716 298.375 180.138 292.488 211.531L296.42 212.269C301.945 182.798 325.198 165.716 350.563 165.716V161.716ZM294.454 213.9H406.355V209.9H294.454V213.9ZM408.336 211.623C403.74 178.794 377.723 161.716 350.563 161.716V165.716C376.025 165.716 400.094 181.606 404.374 212.177L408.336 211.623ZM488.993 168.154H486.993V173.95L490.567 169.387L488.993 168.154ZM464.365 155.474C464.365 152.93 465.227 150.923 466.593 149.558C467.958 148.192 469.965 147.33 472.509 147.33V143.33C469.03 143.33 465.965 144.529 463.764 146.729C461.564 148.93 460.365 151.995 460.365 155.474H464.365ZM472.509 147.33H478.849V143.33H472.509V147.33ZM478.849 147.33C481.393 147.33 483.4 148.192 484.765 149.558C486.131 150.923 486.993 152.93 486.993 155.474H490.993C490.993 151.995 489.794 148.93 487.594 146.729C485.393 144.529 482.328 143.33 478.849 143.33V147.33ZM486.993 155.474V168.154H490.993V155.474H486.993ZM490.567 169.387C505.064 150.881 524.439 142.575 545.736 142.575V138.575C523.287 138.575 502.72 147.387 487.418 166.921L490.567 169.387ZM545.736 142.575C565.604 142.575 579.659 148.614 588.778 158.901C597.934 169.229 602.381 184.14 602.381 202.39H606.381C606.381 183.551 601.794 167.554 591.771 156.247C581.711 144.899 566.443 138.575 545.736 138.575V142.575ZM602.381 202.39V296.856H606.381V202.39H602.381ZM602.381 296.856C602.381 299.4 601.519 301.407 600.153 302.772C598.788 304.138 596.781 305 594.237 305V309C597.716 309 600.781 307.801 602.982 305.601C605.182 303.4 606.381 300.335 606.381 296.856H602.381ZM594.237 305H586.946V309H594.237V305ZM586.946 305C584.402 305 582.395 304.138 581.03 302.772C579.664 301.407 578.802 299.4 578.802 296.856H574.802C574.802 300.335 576.001 303.4 578.201 305.601C580.402 307.801 583.467 309 586.946 309V305ZM578.802 296.856V205.243H574.802V296.856H578.802ZM578.802 205.243C578.802 192.068 575.303 181.225 568.37 173.658C561.414 166.065 551.24 162.033 538.445 162.033V166.033C550.376 166.033 559.38 169.767 565.421 176.36C571.485 182.979 574.802 192.741 574.802 205.243H578.802ZM538.445 162.033C512.04 162.033 487.944 183.792 487.944 212.534H491.944C491.944 186.118 514.13 166.033 538.445 166.033V162.033ZM487.944 212.534V296.856H491.944V212.534H487.944ZM487.944 296.856C487.944 299.4 487.082 301.407 485.716 302.772C484.35 304.138 482.344 305 479.8 305V309C483.279 309 486.344 307.801 488.545 305.601C490.745 303.4 491.944 300.335 491.944 296.856H487.944ZM479.8 305H472.509V309H479.8V305ZM472.509 305C469.965 305 467.958 304.138 466.593 302.772C465.227 301.407 464.365 299.4 464.365 296.856H460.365C460.365 300.335 461.564 303.4 463.764 305.601C465.965 307.801 469.03 309 472.509 309V305ZM464.365 296.856V155.474H460.365V296.856H464.365ZM636.263 226.165C636.263 178.437 671.837 142.575 719.219 142.575V138.575C669.599 138.575 632.263 176.257 632.263 226.165H636.263ZM719.219 142.575C766.299 142.575 802.175 177.818 802.175 226.165H806.175C806.175 175.608 768.508 138.575 719.219 138.575V142.575ZM802.175 226.165C802.175 274.825 766.304 309.755 719.219 309.755V313.755C768.503 313.755 806.175 277.043 806.175 226.165H802.175ZM719.219 309.755C671.833 309.755 636.263 274.205 636.263 226.165H632.263C632.263 276.395 669.604 313.755 719.219 313.755V309.755ZM660.159 226.165C660.159 264.546 685.656 290.614 719.219 290.614V286.614C688.115 286.614 664.159 262.596 664.159 226.165H660.159ZM719.219 290.614C752.459 290.614 778.279 264.554 778.279 226.165H774.279C774.279 262.588 750.014 286.614 719.219 286.614V290.614ZM778.279 226.165C778.279 188.115 753.113 161.716 719.219 161.716V165.716C750.627 165.716 774.279 190.037 774.279 226.165H778.279ZM719.219 161.716C685.649 161.716 660.159 188.108 660.159 226.165H664.159C664.159 190.044 688.121 165.716 719.219 165.716V161.716ZM839.238 138.99L839.723 140.93L839.838 140.902L839.948 140.86L839.238 138.99ZM852.869 118.385H854.869V116.385H852.869V118.385ZM841.457 152.938L840.825 151.041L840.69 151.086L840.563 151.149L841.457 152.938ZM836.8 147.866V145.013H832.8V147.866H836.8ZM836.8 145.013C836.8 143.908 837.299 142.944 838.013 142.169C838.368 141.785 838.752 141.476 839.095 141.255C839.265 141.145 839.415 141.063 839.535 141.007C839.66 140.948 839.724 140.93 839.723 140.93L838.753 137.05C837.645 137.327 836.213 138.223 835.074 139.456C833.887 140.742 832.8 142.631 832.8 145.013H836.8ZM839.948 140.86C844.891 138.985 848.662 136.04 851.18 132.152C853.69 128.277 854.869 123.599 854.869 118.385H850.869C850.869 122.998 849.829 126.879 847.823 129.978C845.823 133.064 842.778 135.508 838.529 137.12L839.948 140.86ZM852.869 116.385C845.761 116.385 841.463 114.5 838.913 111.785C836.342 109.047 835.215 105.111 835.215 100.316H831.215C831.215 105.665 832.467 110.764 835.997 114.524C839.55 118.307 845.079 120.385 852.869 120.385V116.385ZM835.215 100.316C835.215 91.5235 841.68 84.247 851.284 84.247V80.247C839.333 80.247 831.215 89.4545 831.215 100.316H835.215ZM851.284 84.247C855.907 84.247 859.839 85.7509 862.637 88.8559C865.456 91.9841 867.353 96.9931 867.353 104.437H871.353C871.353 96.3479 869.288 90.2618 865.609 86.1783C861.908 82.0715 856.805 80.247 851.284 80.247V84.247ZM867.353 104.437C867.353 126.307 860.513 144.478 840.825 151.041L842.09 154.835C864.245 147.45 871.353 126.947 871.353 104.437H867.353ZM840.563 151.149C840.116 151.373 839.474 151.572 838.921 151.572V155.572C840.27 155.572 841.531 155.137 842.352 154.727L840.563 151.149ZM838.921 151.572C838.413 151.572 837.967 151.411 837.627 151.038C837.275 150.65 836.8 149.77 836.8 147.866H832.8C832.8 150.4 833.435 152.373 834.668 153.729C835.913 155.099 837.527 155.572 838.921 155.572V151.572ZM976.286 237.577L976.806 235.646L976.796 235.643L976.785 235.64L976.286 237.577ZM945.537 229.652L946.036 227.715L946.029 227.713L945.537 229.652ZM1023.2 177.981H1025.2V177.752L1025.15 177.528L1023.2 177.981ZM996.257 179.249L994.459 180.124L994.464 180.134L994.469 180.143L996.257 179.249ZM954.096 207.779L954.597 205.843L954.593 205.842L954.096 207.779ZM981.041 214.753L980.54 216.689L980.545 216.69L981.041 214.753ZM901.474 265.79L903.438 265.408L903.385 265.14L903.263 264.896L901.474 265.79ZM928.102 265.156L926.175 265.691L928.102 265.156ZM976.785 235.64L946.036 227.715L945.038 231.589L975.787 239.514L976.785 235.64ZM946.029 227.713C935.481 225.037 925.384 221.4 917.935 215.161C910.591 209.011 905.693 200.225 905.693 186.857H901.693C901.693 201.385 907.098 211.302 915.367 218.228C923.53 225.065 934.355 228.878 945.045 231.591L946.029 227.713ZM905.693 186.857C905.693 174.924 910.665 163.914 920.237 155.855C929.826 147.782 944.156 142.575 962.972 142.575V138.575C943.432 138.575 928.122 143.988 917.661 152.795C907.183 161.616 901.693 173.747 901.693 186.857H905.693ZM962.972 142.575C988.7 142.575 1015.25 152.595 1021.25 178.434L1025.15 177.528C1018.48 148.843 989.232 138.575 962.972 138.575V142.575ZM1021.2 177.981C1021.2 178.539 1021.33 179.154 1021.4 179.483C1021.44 179.689 1021.47 179.846 1021.49 179.987C1021.5 180.054 1021.51 180.106 1021.52 180.145C1021.52 180.185 1021.52 180.202 1021.52 180.2H1025.52C1025.52 179.642 1025.39 179.027 1025.32 178.698C1025.28 178.492 1025.25 178.335 1025.23 178.194C1025.22 178.127 1025.21 178.075 1025.21 178.036C1025.2 177.996 1025.2 177.979 1025.2 177.981H1021.2ZM1021.52 180.2C1021.52 183.485 1018.7 186.125 1014.01 186.125V190.125C1020.1 190.125 1025.52 186.425 1025.52 180.2H1021.52ZM1014.01 186.125H1007.99V190.125H1014.01V186.125ZM1007.99 186.125C1003.43 186.125 1000.46 183.189 998.046 178.355L994.469 180.143C997.123 185.453 1001.13 190.125 1007.99 190.125V186.125ZM998.056 178.374C991.827 165.571 976.5 161.399 963.606 161.399V165.399C976.073 165.399 989.275 169.469 994.459 180.124L998.056 178.374ZM963.606 161.399C953.495 161.399 944.964 163.761 938.902 168.115C932.785 172.509 929.272 178.883 929.272 186.54H933.272C933.272 180.249 936.099 175.053 941.236 171.363C946.428 167.634 954.064 165.399 963.606 165.399V161.399ZM929.272 186.54C929.272 193.243 932.223 198.302 936.781 202.035C941.266 205.709 947.294 208.1 953.6 209.716L954.593 205.842C948.535 204.288 943.151 202.083 939.315 198.941C935.552 195.859 933.272 191.883 933.272 186.54H929.272ZM953.595 209.715L980.54 216.689L981.542 212.817L954.597 205.843L953.595 209.715ZM980.545 216.69C992.942 219.869 1005.26 223.442 1014.51 230.087C1023.59 236.618 1029.76 246.165 1029.76 261.669H1033.76C1033.76 244.839 1026.94 234.098 1016.84 226.839C1006.9 219.695 993.866 215.977 981.538 212.816L980.545 216.69ZM1029.76 261.669C1029.76 275.507 1024.16 287.454 1013.7 295.979C1003.2 304.533 987.682 309.755 967.727 309.755V313.755C988.349 313.755 1004.84 308.358 1016.22 299.08C1027.64 289.774 1033.76 276.678 1033.76 261.669H1029.76ZM967.727 309.755C952.899 309.755 938.394 306.863 926.836 299.898C915.344 292.972 906.656 281.96 903.438 265.408L899.511 266.172C902.95 283.856 912.33 295.826 924.772 303.324C937.148 310.783 952.441 313.755 967.727 313.755V309.755ZM903.263 264.896C903.234 264.837 903.205 264.76 903.185 264.579C903.16 264.354 903.157 264.078 903.157 263.571H899.157C899.157 264.416 899.12 265.553 899.685 266.684L903.263 264.896ZM903.157 263.571C903.157 261.761 903.865 260.26 905.117 259.183C906.389 258.088 908.352 257.329 910.984 257.329V253.329C907.594 253.329 904.643 254.313 902.508 256.151C900.351 258.006 899.157 260.626 899.157 263.571H903.157ZM910.984 257.329H916.69V253.329H910.984V257.329ZM916.69 257.329C919.206 257.329 921.179 258.175 922.709 259.577C924.269 261.007 925.456 263.102 926.175 265.691L930.029 264.621C929.164 261.504 927.656 258.685 925.412 256.628C923.138 254.544 920.198 253.329 916.69 253.329V257.329ZM926.175 265.691C931.29 284.105 948.986 290.931 967.093 290.931V286.931C949.697 286.931 934.424 280.443 930.029 264.621L926.175 265.691ZM967.093 290.931C979.584 290.931 989.331 288.014 996.006 282.912C1002.73 277.771 1006.18 270.522 1006.18 262.303H1002.18C1002.18 269.3 999.293 275.365 993.577 279.734C987.809 284.142 979.012 286.931 967.093 286.931V290.931ZM1006.18 262.303C1006.18 254.519 1003.02 248.879 997.648 244.68C992.401 240.575 985.097 237.878 976.806 235.646L975.766 239.508C983.96 241.714 990.603 244.247 995.184 247.83C999.642 251.318 1002.18 255.822 1002.18 262.303H1006.18Z" fill="#0C50FF" mask="url(#path-26-outside-1_69_64)"/>
<defs>
<clipPath id="clip0_69_64">
<rect width="96.7256" height="77.3805" fill="white" transform="translate(315 861.62)"/>
</clipPath>
</defs>
</svg>
