<svg width="2144" height="60" viewBox="0 0 2144 60" fill="none" xmlns="http://www.w3.org/2000/svg">
<rect x="48" width="2048" height="60" rx="25" fill="#F5F4E3"/>
<rect width="241" height="20" transform="translate(951.5 20)" fill="#F5F4E3"/>
<mask id="path-2-outside-1_83_420" maskUnits="userSpaceOnUse" x="951.5" y="20.5" width="116" height="19" fill="black">
<rect fill="white" x="951.5" y="20.5" width="116" height="19"/>
<path d="M952.412 37.756V37.66L953.708 22.396C953.732 21.988 954.068 21.7 954.476 21.7H955.988C956.3 21.7 956.588 21.892 956.708 22.18L961.172 33.34L965.612 22.18C965.732 21.892 966.02 21.7 966.332 21.7H967.868C968.252 21.7 968.588 21.988 968.636 22.396L969.932 37.66V37.756C969.932 38.212 969.62 38.5 969.164 38.5H968.468C968.036 38.5 967.724 38.212 967.7 37.78L966.788 24.436L962.252 35.62C962.132 35.908 961.844 36.1 961.532 36.1H960.812C960.5 36.1 960.212 35.908 960.092 35.62L955.604 24.436L954.596 37.78C954.572 38.212 954.26 38.5 953.828 38.5H953.18C952.7 38.5 952.412 38.212 952.412 37.756ZM983.508 38.5H983.028C982.572 38.5 982.26 38.212 982.26 37.756V36.628C981.06 38.14 979.572 38.86 977.676 38.86C974.388 38.86 971.604 36.172 971.604 32.38C971.604 28.564 974.364 25.9 977.676 25.9C979.572 25.9 981.18 26.668 982.188 28.06V27.028C982.188 26.572 982.5 26.26 982.956 26.26H983.508C983.964 26.26 984.276 26.572 984.276 27.028V37.732C984.276 38.188 983.964 38.5 983.508 38.5ZM973.716 32.38C973.716 35.188 975.636 37.108 978.036 37.108C980.436 37.108 982.308 35.14 982.308 32.38C982.308 29.596 980.436 27.652 978.036 27.652C975.636 27.652 973.716 29.572 973.716 32.38ZM998.438 38.5H997.958C997.502 38.5 997.19 38.212 997.19 37.756V36.652C995.966 38.14 994.502 38.86 992.606 38.86C989.318 38.86 986.534 36.172 986.534 32.38C986.534 28.564 989.294 25.9 992.606 25.9C994.502 25.9 996.11 26.692 997.118 28.06V22.468C997.118 22.012 997.43 21.7 997.886 21.7H998.438C998.894 21.7 999.206 22.012 999.206 22.468V37.732C999.206 38.188 998.894 38.5 998.438 38.5ZM988.646 32.38C988.646 35.188 990.566 37.108 992.966 37.108C995.366 37.108 997.238 35.164 997.238 32.38C997.238 29.596 995.366 27.652 992.966 27.652C990.566 27.652 988.646 29.548 988.646 32.38ZM1013.42 33.052H1003.55C1003.89 35.716 1005.81 37.108 1007.9 37.108C1009.58 37.108 1010.9 36.292 1011.54 35.116C1011.69 34.852 1011.98 34.66 1012.26 34.66H1012.84C1013.3 34.66 1013.58 34.876 1013.58 35.212C1013.58 35.332 1013.54 35.476 1013.46 35.62C1012.38 37.684 1010.37 38.86 1007.87 38.86C1004.32 38.86 1001.46 36.22 1001.46 32.38C1001.46 28.612 1004.27 25.9 1007.87 25.9C1010.82 25.9 1014.09 27.82 1014.09 31.9C1014.09 32.524 1014.04 33.052 1013.42 33.052ZM1007.87 27.652C1005.88 27.652 1004.06 28.996 1003.62 31.3H1012.1C1011.76 28.9 1009.86 27.652 1007.87 27.652ZM1021.31 27.268C1021.09 26.668 1021.38 26.26 1022.03 26.26H1022.84C1023.18 26.26 1023.49 26.476 1023.59 26.812L1026.28 36.124H1026.35L1029.04 26.812C1029.13 26.476 1029.44 26.26 1029.78 26.26H1031.05C1031.39 26.26 1031.7 26.476 1031.8 26.812L1034.53 36.124H1034.6L1037.29 26.812C1037.39 26.476 1037.7 26.26 1038.04 26.26H1038.78C1039.43 26.26 1039.72 26.668 1039.52 27.268L1035.88 37.972C1035.78 38.284 1035.49 38.5 1035.16 38.5H1034C1033.64 38.5 1033.36 38.284 1033.26 37.948L1030.43 28.54H1030.36L1027.55 37.948C1027.45 38.284 1027.16 38.5 1026.8 38.5H1025.7C1025.36 38.5 1025.08 38.284 1024.98 37.972L1021.31 27.268ZM1042.76 38.5H1042.21C1041.75 38.5 1041.44 38.188 1041.44 37.732V27.028C1041.44 26.572 1041.75 26.26 1042.21 26.26H1042.76C1043.22 26.26 1043.53 26.572 1043.53 27.028V37.732C1043.53 38.188 1043.22 38.5 1042.76 38.5ZM1042.47 24.316C1041.68 24.316 1041.13 23.716 1041.13 22.972C1041.13 22.228 1041.68 21.628 1042.47 21.628C1043.29 21.628 1043.84 22.228 1043.84 22.972C1043.84 23.716 1043.29 24.316 1042.47 24.316ZM1045.62 27.172V27.028C1045.62 26.572 1045.93 26.26 1046.38 26.26H1047.73V23.644C1047.73 23.188 1048.04 22.876 1048.5 22.876H1049.05C1049.5 22.876 1049.82 23.188 1049.82 23.644V26.26H1052.22C1052.67 26.26 1052.98 26.572 1052.98 27.028V27.172C1052.98 27.628 1052.67 27.94 1052.22 27.94H1049.82V35.38C1049.82 36.484 1050.18 37.06 1051.52 37.06C1051.86 37.06 1052.31 36.964 1052.74 36.964C1053.15 36.964 1053.42 37.204 1053.42 37.66V37.924C1053.42 38.716 1051.93 38.812 1051.18 38.812C1048.81 38.812 1047.73 37.924 1047.73 35.476V27.94H1046.38C1045.93 27.94 1045.62 27.628 1045.62 27.172ZM1055.69 37.732V22.468C1055.69 22.012 1056 21.7 1056.46 21.7H1057.01C1057.47 21.7 1057.78 22.012 1057.78 22.468V27.988C1058.79 26.572 1060.35 25.9 1062.05 25.9C1065.08 25.9 1066.44 27.772 1066.44 30.58V37.732C1066.44 38.188 1066.13 38.5 1065.68 38.5H1065.12C1064.67 38.5 1064.36 38.188 1064.36 37.732V30.82C1064.36 28.876 1063.35 27.676 1061.45 27.676C1059.53 27.676 1057.78 29.26 1057.78 31.372V37.732C1057.78 38.188 1057.47 38.5 1057.01 38.5H1056.46C1056 38.5 1055.69 38.188 1055.69 37.732Z"/>
</mask>
<path d="M952.412 37.756V37.66L953.708 22.396C953.732 21.988 954.068 21.7 954.476 21.7H955.988C956.3 21.7 956.588 21.892 956.708 22.18L961.172 33.34L965.612 22.18C965.732 21.892 966.02 21.7 966.332 21.7H967.868C968.252 21.7 968.588 21.988 968.636 22.396L969.932 37.66V37.756C969.932 38.212 969.62 38.5 969.164 38.5H968.468C968.036 38.5 967.724 38.212 967.7 37.78L966.788 24.436L962.252 35.62C962.132 35.908 961.844 36.1 961.532 36.1H960.812C960.5 36.1 960.212 35.908 960.092 35.62L955.604 24.436L954.596 37.78C954.572 38.212 954.26 38.5 953.828 38.5H953.18C952.7 38.5 952.412 38.212 952.412 37.756ZM983.508 38.5H983.028C982.572 38.5 982.26 38.212 982.26 37.756V36.628C981.06 38.14 979.572 38.86 977.676 38.86C974.388 38.86 971.604 36.172 971.604 32.38C971.604 28.564 974.364 25.9 977.676 25.9C979.572 25.9 981.18 26.668 982.188 28.06V27.028C982.188 26.572 982.5 26.26 982.956 26.26H983.508C983.964 26.26 984.276 26.572 984.276 27.028V37.732C984.276 38.188 983.964 38.5 983.508 38.5ZM973.716 32.38C973.716 35.188 975.636 37.108 978.036 37.108C980.436 37.108 982.308 35.14 982.308 32.38C982.308 29.596 980.436 27.652 978.036 27.652C975.636 27.652 973.716 29.572 973.716 32.38ZM998.438 38.5H997.958C997.502 38.5 997.19 38.212 997.19 37.756V36.652C995.966 38.14 994.502 38.86 992.606 38.86C989.318 38.86 986.534 36.172 986.534 32.38C986.534 28.564 989.294 25.9 992.606 25.9C994.502 25.9 996.11 26.692 997.118 28.06V22.468C997.118 22.012 997.43 21.7 997.886 21.7H998.438C998.894 21.7 999.206 22.012 999.206 22.468V37.732C999.206 38.188 998.894 38.5 998.438 38.5ZM988.646 32.38C988.646 35.188 990.566 37.108 992.966 37.108C995.366 37.108 997.238 35.164 997.238 32.38C997.238 29.596 995.366 27.652 992.966 27.652C990.566 27.652 988.646 29.548 988.646 32.38ZM1013.42 33.052H1003.55C1003.89 35.716 1005.81 37.108 1007.9 37.108C1009.58 37.108 1010.9 36.292 1011.54 35.116C1011.69 34.852 1011.98 34.66 1012.26 34.66H1012.84C1013.3 34.66 1013.58 34.876 1013.58 35.212C1013.58 35.332 1013.54 35.476 1013.46 35.62C1012.38 37.684 1010.37 38.86 1007.87 38.86C1004.32 38.86 1001.46 36.22 1001.46 32.38C1001.46 28.612 1004.27 25.9 1007.87 25.9C1010.82 25.9 1014.09 27.82 1014.09 31.9C1014.09 32.524 1014.04 33.052 1013.42 33.052ZM1007.87 27.652C1005.88 27.652 1004.06 28.996 1003.62 31.3H1012.1C1011.76 28.9 1009.86 27.652 1007.87 27.652ZM1021.31 27.268C1021.09 26.668 1021.38 26.26 1022.03 26.26H1022.84C1023.18 26.26 1023.49 26.476 1023.59 26.812L1026.28 36.124H1026.35L1029.04 26.812C1029.13 26.476 1029.44 26.26 1029.78 26.26H1031.05C1031.39 26.26 1031.7 26.476 1031.8 26.812L1034.53 36.124H1034.6L1037.29 26.812C1037.39 26.476 1037.7 26.26 1038.04 26.26H1038.78C1039.43 26.26 1039.72 26.668 1039.52 27.268L1035.88 37.972C1035.78 38.284 1035.49 38.5 1035.16 38.5H1034C1033.64 38.5 1033.36 38.284 1033.26 37.948L1030.43 28.54H1030.36L1027.55 37.948C1027.45 38.284 1027.16 38.5 1026.8 38.5H1025.7C1025.36 38.5 1025.08 38.284 1024.98 37.972L1021.31 27.268ZM1042.76 38.5H1042.21C1041.75 38.5 1041.44 38.188 1041.44 37.732V27.028C1041.44 26.572 1041.75 26.26 1042.21 26.26H1042.76C1043.22 26.26 1043.53 26.572 1043.53 27.028V37.732C1043.53 38.188 1043.22 38.5 1042.76 38.5ZM1042.47 24.316C1041.68 24.316 1041.13 23.716 1041.13 22.972C1041.13 22.228 1041.68 21.628 1042.47 21.628C1043.29 21.628 1043.84 22.228 1043.84 22.972C1043.84 23.716 1043.29 24.316 1042.47 24.316ZM1045.62 27.172V27.028C1045.62 26.572 1045.93 26.26 1046.38 26.26H1047.73V23.644C1047.73 23.188 1048.04 22.876 1048.5 22.876H1049.05C1049.5 22.876 1049.82 23.188 1049.82 23.644V26.26H1052.22C1052.67 26.26 1052.98 26.572 1052.98 27.028V27.172C1052.98 27.628 1052.67 27.94 1052.22 27.94H1049.82V35.38C1049.82 36.484 1050.18 37.06 1051.52 37.06C1051.86 37.06 1052.31 36.964 1052.74 36.964C1053.15 36.964 1053.42 37.204 1053.42 37.66V37.924C1053.42 38.716 1051.93 38.812 1051.18 38.812C1048.81 38.812 1047.73 37.924 1047.73 35.476V27.94H1046.38C1045.93 27.94 1045.62 27.628 1045.62 27.172ZM1055.69 37.732V22.468C1055.69 22.012 1056 21.7 1056.46 21.7H1057.01C1057.47 21.7 1057.78 22.012 1057.78 22.468V27.988C1058.79 26.572 1060.35 25.9 1062.05 25.9C1065.08 25.9 1066.44 27.772 1066.44 30.58V37.732C1066.44 38.188 1066.13 38.5 1065.68 38.5H1065.12C1064.67 38.5 1064.36 38.188 1064.36 37.732V30.82C1064.36 28.876 1063.35 27.676 1061.45 27.676C1059.53 27.676 1057.78 29.26 1057.78 31.372V37.732C1057.78 38.188 1057.47 38.5 1057.01 38.5H1056.46C1056 38.5 1055.69 38.188 1055.69 37.732Z" fill="#0C50FF"/>
<path d="M952.412 37.66L952.258 37.647V37.66H952.412ZM953.708 22.396L953.861 22.409L953.861 22.405L953.708 22.396ZM956.708 22.18L956.851 22.1229L956.85 22.1209L956.708 22.18ZM961.172 33.34L961.029 33.397L961.172 33.7546L961.315 33.3968L961.172 33.34ZM965.612 22.18L965.47 22.1209L965.469 22.1232L965.612 22.18ZM968.636 22.396L968.789 22.383L968.789 22.3781L968.636 22.396ZM969.932 37.66H970.086L970.085 37.647L969.932 37.66ZM967.7 37.78L967.853 37.7715L967.853 37.7695L967.7 37.78ZM966.788 24.436L966.941 24.4255L966.646 24.3783L966.788 24.436ZM962.252 35.62L962.394 35.6791L962.394 35.6777L962.252 35.62ZM960.092 35.62L959.949 35.6772L959.95 35.6791L960.092 35.62ZM955.604 24.436L955.747 24.3788L955.451 24.4244L955.604 24.436ZM954.596 37.78L954.443 37.7684L954.443 37.7715L954.596 37.78ZM952.566 37.756V37.66H952.258V37.756H952.566ZM952.565 37.673L953.861 22.409L953.555 22.383L952.259 37.647L952.565 37.673ZM953.861 22.405C953.88 22.086 954.141 21.8536 954.476 21.8536V21.5464C953.995 21.5464 953.584 21.89 953.555 22.387L953.861 22.405ZM954.476 21.8536H955.988V21.5464H954.476V21.8536ZM955.988 21.8536C956.238 21.8536 956.47 22.0083 956.566 22.2391L956.85 22.1209C956.706 21.7757 956.362 21.5464 955.988 21.5464V21.8536ZM956.565 22.237L961.029 33.397L961.315 33.283L956.851 22.123L956.565 22.237ZM961.315 33.3968L965.755 22.2368L965.469 22.1232L961.029 33.2832L961.315 33.3968ZM965.754 22.2391C965.85 22.0083 966.082 21.8536 966.332 21.8536V21.5464C965.958 21.5464 965.614 21.7757 965.47 22.1209L965.754 22.2391ZM966.332 21.8536H967.868V21.5464H966.332V21.8536ZM967.868 21.8536C968.174 21.8536 968.445 22.083 968.483 22.4139L968.789 22.3781C968.731 21.893 968.33 21.5464 967.868 21.5464V21.8536ZM968.483 22.409L969.779 37.673L970.085 37.647L968.789 22.383L968.483 22.409ZM969.778 37.66V37.756H970.086V37.66H969.778ZM969.778 37.756C969.778 37.9476 969.714 38.0916 969.613 38.1879C969.511 38.2851 969.36 38.3464 969.164 38.3464V38.6536C969.424 38.6536 969.657 38.5709 969.825 38.4101C969.994 38.2484 970.086 38.0204 970.086 37.756H969.778ZM969.164 38.3464H968.468V38.6536H969.164V38.3464ZM968.468 38.3464C968.287 38.3464 968.14 38.2865 968.036 38.1897C967.932 38.0931 967.863 37.9515 967.853 37.7715L967.547 37.7885C967.561 38.0405 967.66 38.2589 967.826 38.4143C967.992 38.5695 968.217 38.6536 968.468 38.6536V38.3464ZM967.853 37.7695L966.941 24.4255L966.635 24.4465L967.547 37.7905L967.853 37.7695ZM966.646 24.3783L962.11 35.5623L962.394 35.6777L966.93 24.4937L966.646 24.3783ZM962.11 35.5609C962.014 35.7917 961.782 35.9464 961.532 35.9464V36.2536C961.906 36.2536 962.25 36.0243 962.394 35.6791L962.11 35.5609ZM961.532 35.9464H960.812V36.2536H961.532V35.9464ZM960.812 35.9464C960.562 35.9464 960.33 35.7917 960.234 35.5609L959.95 35.6791C960.094 36.0243 960.438 36.2536 960.812 36.2536V35.9464ZM960.235 35.5628L955.747 24.3788L955.461 24.4932L959.949 35.6772L960.235 35.5628ZM955.451 24.4244L954.443 37.7684L954.749 37.7916L955.757 24.4476L955.451 24.4244ZM954.443 37.7715C954.433 37.9515 954.364 38.0931 954.26 38.1897C954.156 38.2865 954.009 38.3464 953.828 38.3464V38.6536C954.079 38.6536 954.304 38.5695 954.47 38.4143C954.636 38.2589 954.735 38.0405 954.749 37.7885L954.443 37.7715ZM953.828 38.3464H953.18V38.6536H953.828V38.3464ZM953.18 38.3464C952.971 38.3464 952.821 38.2842 952.723 38.1891C952.626 38.0945 952.566 37.9511 952.566 37.756H952.258C952.258 38.0169 952.342 38.2455 952.509 38.4089C952.675 38.5718 952.909 38.6536 953.18 38.6536V38.3464ZM982.26 36.628H982.414V36.1874L982.14 36.5325L982.26 36.628ZM982.188 28.06L982.064 28.1501L982.342 28.534V28.06H982.188ZM983.508 38.3464H983.028V38.6536H983.508V38.3464ZM983.028 38.3464C982.832 38.3464 982.681 38.2851 982.579 38.1879C982.478 38.0916 982.414 37.9476 982.414 37.756H982.106C982.106 38.0204 982.198 38.2484 982.367 38.4101C982.535 38.5709 982.768 38.6536 983.028 38.6536V38.3464ZM982.414 37.756V36.628H982.106V37.756H982.414ZM982.14 36.5325C980.968 38.0083 979.524 38.7064 977.676 38.7064V39.0136C979.619 39.0136 981.151 38.2717 982.38 36.7235L982.14 36.5325ZM977.676 38.7064C974.478 38.7064 971.758 36.0922 971.758 32.38H971.45C971.45 36.2518 974.298 39.0136 977.676 39.0136V38.7064ZM971.758 32.38C971.758 28.6438 974.454 26.0536 977.676 26.0536V25.7464C974.274 25.7464 971.45 28.4842 971.45 32.38H971.758ZM977.676 26.0536C979.529 26.0536 981.088 26.8027 982.064 28.1501L982.312 27.9699C981.272 26.5333 979.615 25.7464 977.676 25.7464V26.0536ZM982.342 28.06V27.028H982.034V28.06H982.342ZM982.342 27.028C982.342 26.8359 982.407 26.6846 982.51 26.5816C982.613 26.4787 982.764 26.4136 982.956 26.4136V26.1064C982.692 26.1064 982.459 26.1973 982.292 26.3644C982.125 26.5314 982.034 26.7641 982.034 27.028H982.342ZM982.956 26.4136H983.508V26.1064H982.956V26.4136ZM983.508 26.4136C983.7 26.4136 983.851 26.4787 983.954 26.5816C984.057 26.6846 984.122 26.8359 984.122 27.028H984.43C984.43 26.7641 984.339 26.5314 984.172 26.3644C984.005 26.1973 983.772 26.1064 983.508 26.1064V26.4136ZM984.122 27.028V37.732H984.43V27.028H984.122ZM984.122 37.732C984.122 37.9241 984.057 38.0754 983.954 38.1784C983.851 38.2813 983.7 38.3464 983.508 38.3464V38.6536C983.772 38.6536 984.005 38.5627 984.172 38.3956C984.339 38.2286 984.43 37.9959 984.43 37.732H984.122ZM973.562 32.38C973.562 35.2635 975.542 37.2616 978.036 37.2616V36.9544C975.73 36.9544 973.87 35.1125 973.87 32.38H973.562ZM978.036 37.2616C980.533 37.2616 982.462 35.2121 982.462 32.38H982.154C982.154 35.0679 980.339 36.9544 978.036 36.9544V37.2616ZM982.462 32.38C982.462 29.5233 980.532 27.4984 978.036 27.4984V27.8056C980.339 27.8056 982.154 29.6687 982.154 32.38H982.462ZM978.036 27.4984C975.542 27.4984 973.562 29.4965 973.562 32.38H973.87C973.87 29.6475 975.73 27.8056 978.036 27.8056V27.4984ZM997.19 36.652H997.343V36.2235L997.071 36.5544L997.19 36.652ZM997.118 28.06L996.994 28.1511L997.271 28.5274V28.06H997.118ZM998.438 38.3464H997.958V38.6536H998.438V38.3464ZM997.958 38.3464C997.762 38.3464 997.61 38.2851 997.509 38.1879C997.408 38.0916 997.343 37.9476 997.343 37.756H997.036C997.036 38.0204 997.127 38.2484 997.297 38.4101C997.465 38.5709 997.697 38.6536 997.958 38.6536V38.3464ZM997.343 37.756V36.652H997.036V37.756H997.343ZM997.071 36.5544C995.875 38.0087 994.454 38.7064 992.606 38.7064V39.0136C994.55 39.0136 996.056 38.2713 997.308 36.7496L997.071 36.5544ZM992.606 38.7064C989.407 38.7064 986.687 36.0922 986.687 32.38H986.38C986.38 36.2518 989.228 39.0136 992.606 39.0136V38.7064ZM986.687 32.38C986.687 28.6438 989.383 26.0536 992.606 26.0536V25.7464C989.204 25.7464 986.38 28.4842 986.38 32.38H986.687ZM992.606 26.0536C994.457 26.0536 996.017 26.8258 996.994 28.1511L997.241 27.9689C996.202 26.5582 994.546 25.7464 992.606 25.7464V26.0536ZM997.271 28.06V22.468H996.964V28.06H997.271ZM997.271 22.468C997.271 22.2759 997.336 22.1246 997.439 22.0216C997.542 21.9187 997.694 21.8536 997.886 21.8536V21.5464C997.622 21.5464 997.389 21.6373 997.222 21.8044C997.055 21.9714 996.964 22.2041 996.964 22.468H997.271ZM997.886 21.8536H998.438V21.5464H997.886V21.8536ZM998.438 21.8536C998.63 21.8536 998.781 21.9187 998.884 22.0216C998.987 22.1246 999.052 22.2759 999.052 22.468H999.359C999.359 22.2041 999.268 21.9714 999.101 21.8044C998.934 21.6373 998.702 21.5464 998.438 21.5464V21.8536ZM999.052 22.468V37.732H999.359V22.468H999.052ZM999.052 37.732C999.052 37.9241 998.987 38.0754 998.884 38.1784C998.781 38.2813 998.63 38.3464 998.438 38.3464V38.6536C998.702 38.6536 998.934 38.5627 999.101 38.3956C999.268 38.2286 999.359 37.9959 999.359 37.732H999.052ZM988.492 32.38C988.492 35.2635 990.472 37.2616 992.966 37.2616V36.9544C990.659 36.9544 988.799 35.1125 988.799 32.38H988.492ZM992.966 37.2616C995.462 37.2616 997.391 35.2367 997.391 32.38H997.084C997.084 35.0913 995.269 36.9544 992.966 36.9544V37.2616ZM997.391 32.38C997.391 29.5233 995.462 27.4984 992.966 27.4984V27.8056C995.269 27.8056 997.084 29.6687 997.084 32.38H997.391ZM992.966 27.4984C990.472 27.4984 988.492 29.4719 988.492 32.38H988.799C988.799 29.6241 990.659 27.8056 992.966 27.8056V27.4984ZM1003.55 33.052V32.8984H1003.38L1003.4 33.0712L1003.55 33.052ZM1011.54 35.116L1011.68 35.1901L1011.68 35.1896L1011.54 35.116ZM1013.46 35.62L1013.6 35.6912L1013.6 35.6887L1013.46 35.62ZM1003.62 31.3L1003.47 31.2717L1003.44 31.4536H1003.62V31.3ZM1012.1 31.3V31.4536H1012.27L1012.25 31.2787L1012.1 31.3ZM1013.42 32.8984H1003.55V33.2056H1013.42V32.8984ZM1003.4 33.0712C1003.74 35.8139 1005.73 37.2616 1007.9 37.2616V36.9544C1005.88 36.9544 1004.03 35.6181 1003.7 33.0328L1003.4 33.0712ZM1007.9 37.2616C1009.63 37.2616 1011 36.4191 1011.68 35.1901L1011.41 35.0419C1010.79 36.1649 1009.52 36.9544 1007.9 36.9544V37.2616ZM1011.68 35.1896C1011.8 34.9672 1012.04 34.8136 1012.26 34.8136V34.5064C1011.91 34.5064 1011.58 34.7368 1011.41 35.0424L1011.68 35.1896ZM1012.26 34.8136H1012.84V34.5064H1012.26V34.8136ZM1012.84 34.8136C1013.05 34.8136 1013.2 34.8626 1013.29 34.9332C1013.38 35.0006 1013.43 35.0931 1013.43 35.212H1013.74C1013.74 34.9949 1013.64 34.8114 1013.47 34.6868C1013.31 34.5654 1013.09 34.5064 1012.84 34.5064V34.8136ZM1013.43 35.212C1013.43 35.2966 1013.39 35.4151 1013.33 35.5513L1013.6 35.6887C1013.68 35.5369 1013.74 35.3674 1013.74 35.212H1013.43ZM1013.33 35.5488C1012.28 37.5583 1010.31 38.7064 1007.87 38.7064V39.0136C1010.42 39.0136 1012.49 37.8097 1013.6 35.6912L1013.33 35.5488ZM1007.87 38.7064C1004.4 38.7064 1001.62 36.1329 1001.62 32.38H1001.31C1001.31 36.3071 1004.24 39.0136 1007.87 39.0136V38.7064ZM1001.62 32.38C1001.62 28.6972 1004.36 26.0536 1007.87 26.0536V25.7464C1004.19 25.7464 1001.31 28.5268 1001.31 32.38H1001.62ZM1007.87 26.0536C1009.32 26.0536 1010.83 26.5239 1011.99 27.4879C1013.14 28.4486 1013.93 29.9054 1013.93 31.9H1014.24C1014.24 29.8146 1013.4 28.2714 1012.18 27.2521C1010.97 26.2361 1009.38 25.7464 1007.87 25.7464V26.0536ZM1013.93 31.9C1013.93 32.2168 1013.92 32.473 1013.84 32.6495C1013.81 32.7327 1013.76 32.7913 1013.7 32.8305C1013.64 32.8701 1013.55 32.8984 1013.42 32.8984V33.2056C1013.59 33.2056 1013.74 33.1679 1013.87 33.089C1013.99 33.0097 1014.07 32.8973 1014.13 32.7705C1014.23 32.527 1014.24 32.2072 1014.24 31.9H1013.93ZM1007.87 27.4984C1005.81 27.4984 1003.92 28.8938 1003.47 31.2717L1003.77 31.3283C1004.19 29.0982 1005.95 27.8056 1007.87 27.8056V27.4984ZM1003.62 31.4536H1012.1V31.1464H1003.62V31.4536ZM1012.25 31.2787C1011.9 28.7921 1009.93 27.4984 1007.87 27.4984V27.8056C1009.8 27.8056 1011.62 29.0079 1011.94 31.3213L1012.25 31.2787ZM1021.31 27.268L1021.45 27.2182L1021.45 27.216L1021.31 27.268ZM1023.59 26.812L1023.44 26.8542L1023.44 26.8546L1023.59 26.812ZM1026.28 36.124L1026.13 36.1666L1026.16 36.2776H1026.28V36.124ZM1026.35 36.124V36.2776H1026.46L1026.5 36.1666L1026.35 36.124ZM1029.04 26.812L1029.18 26.8546L1029.18 26.8542L1029.04 26.812ZM1031.8 26.812L1031.65 26.8542L1031.65 26.8553L1031.8 26.812ZM1034.53 36.124L1034.38 36.1673L1034.42 36.2776H1034.53V36.124ZM1034.6 36.124V36.2776H1034.72L1034.75 36.1666L1034.6 36.124ZM1037.29 26.812L1037.44 26.8546L1037.44 26.8542L1037.29 26.812ZM1039.52 27.268L1039.67 27.3176L1039.67 27.3148L1039.52 27.268ZM1035.88 37.972L1035.73 37.9224L1035.73 37.9268L1035.88 37.972ZM1033.26 37.948L1033.41 37.9058L1033.41 37.9037L1033.26 37.948ZM1030.43 28.54L1030.57 28.4957L1030.54 28.3864H1030.43V28.54ZM1030.36 28.54V28.3864H1030.24L1030.21 28.4961L1030.36 28.54ZM1027.55 37.948L1027.4 37.9041L1027.4 37.9058L1027.55 37.948ZM1024.98 37.972L1025.13 37.9268L1025.12 37.9222L1024.98 37.972ZM1021.45 27.216C1021.35 26.9442 1021.38 26.7499 1021.47 26.6281C1021.56 26.5058 1021.73 26.4136 1022.03 26.4136V26.1064C1021.67 26.1064 1021.38 26.2182 1021.22 26.4499C1021.05 26.6821 1021.04 26.9918 1021.16 27.32L1021.45 27.216ZM1022.03 26.4136H1022.84V26.1064H1022.03V26.4136ZM1022.84 26.4136C1023.12 26.4136 1023.36 26.5884 1023.44 26.8542L1023.74 26.7698C1023.62 26.3636 1023.24 26.1064 1022.84 26.1064V26.4136ZM1023.44 26.8546L1026.13 36.1666L1026.42 36.0814L1023.74 26.7694L1023.44 26.8546ZM1026.28 36.2776H1026.35V35.9704H1026.28V36.2776ZM1026.5 36.1666L1029.18 26.8546L1028.89 26.7694L1026.2 36.0814L1026.5 36.1666ZM1029.18 26.8542C1029.26 26.5884 1029.51 26.4136 1029.78 26.4136V26.1064C1029.38 26.1064 1029 26.3636 1028.89 26.7698L1029.18 26.8542ZM1029.78 26.4136H1031.05V26.1064H1029.78V26.4136ZM1031.05 26.4136C1031.32 26.4136 1031.57 26.5884 1031.65 26.8542L1031.94 26.7698C1031.83 26.3636 1031.45 26.1064 1031.05 26.1064V26.4136ZM1031.65 26.8553L1034.38 36.1673L1034.68 36.0807L1031.94 26.7687L1031.65 26.8553ZM1034.53 36.2776H1034.6V35.9704H1034.53V36.2776ZM1034.75 36.1666L1037.44 26.8546L1037.14 26.7694L1034.46 36.0814L1034.75 36.1666ZM1037.44 26.8542C1037.52 26.5884 1037.76 26.4136 1038.04 26.4136V26.1064C1037.64 26.1064 1037.26 26.3636 1037.14 26.7698L1037.44 26.8542ZM1038.04 26.4136H1038.78V26.1064H1038.04V26.4136ZM1038.78 26.4136C1039.07 26.4136 1039.25 26.5055 1039.34 26.6295C1039.43 26.7536 1039.46 26.9496 1039.38 27.2212L1039.67 27.3148C1039.77 26.9864 1039.76 26.6784 1039.59 26.4485C1039.42 26.2185 1039.13 26.1064 1038.78 26.1064V26.4136ZM1039.38 27.2184L1035.73 37.9224L1036.02 38.0216L1039.67 27.3176L1039.38 27.2184ZM1035.73 37.9268C1035.65 38.1743 1035.42 38.3464 1035.16 38.3464V38.6536C1035.56 38.6536 1035.91 38.3937 1036.02 38.0172L1035.73 37.9268ZM1035.16 38.3464H1034V38.6536H1035.16V38.3464ZM1034 38.3464C1033.71 38.3464 1033.48 38.1743 1033.41 37.9058L1033.11 37.9902C1033.23 38.3937 1033.58 38.6536 1034 38.6536V38.3464ZM1033.41 37.9037L1030.57 28.4957L1030.28 28.5843L1033.11 37.9923L1033.41 37.9037ZM1030.43 28.3864H1030.36V28.6936H1030.43V28.3864ZM1030.21 28.4961L1027.4 37.9041L1027.69 37.9919L1030.5 28.5839L1030.21 28.4961ZM1027.4 37.9058C1027.32 38.1743 1027.1 38.3464 1026.8 38.3464V38.6536C1027.23 38.6536 1027.58 38.3937 1027.7 37.9902L1027.4 37.9058ZM1026.8 38.3464H1025.7V38.6536H1026.8V38.3464ZM1025.7 38.3464C1025.43 38.3464 1025.2 38.1743 1025.13 37.9268L1024.83 38.0172C1024.95 38.3937 1025.3 38.6536 1025.7 38.6536V38.3464ZM1025.12 37.9222L1021.45 27.2182L1021.16 27.3178L1024.83 38.0218L1025.12 37.9222ZM1042.76 38.3464H1042.21V38.6536H1042.76V38.3464ZM1042.21 38.3464C1042.02 38.3464 1041.87 38.2813 1041.76 38.1784C1041.66 38.0754 1041.59 37.9241 1041.59 37.732H1041.29C1041.29 37.9959 1041.38 38.2286 1041.55 38.3956C1041.71 38.5627 1041.95 38.6536 1042.21 38.6536V38.3464ZM1041.59 37.732V27.028H1041.29V37.732H1041.59ZM1041.59 27.028C1041.59 26.8359 1041.66 26.6846 1041.76 26.5816C1041.87 26.4787 1042.02 26.4136 1042.21 26.4136V26.1064C1041.95 26.1064 1041.71 26.1973 1041.55 26.3644C1041.38 26.5314 1041.29 26.7641 1041.29 27.028H1041.59ZM1042.21 26.4136H1042.76V26.1064H1042.21V26.4136ZM1042.76 26.4136C1042.95 26.4136 1043.1 26.4787 1043.21 26.5816C1043.31 26.6846 1043.38 26.8359 1043.38 27.028H1043.68C1043.68 26.7641 1043.59 26.5314 1043.42 26.3644C1043.26 26.1973 1043.03 26.1064 1042.76 26.1064V26.4136ZM1043.38 27.028V37.732H1043.68V27.028H1043.38ZM1043.38 37.732C1043.38 37.9241 1043.31 38.0754 1043.21 38.1784C1043.1 38.2813 1042.95 38.3464 1042.76 38.3464V38.6536C1043.03 38.6536 1043.26 38.5627 1043.42 38.3956C1043.59 38.2286 1043.68 37.9959 1043.68 37.732H1043.38ZM1042.47 24.1624C1041.77 24.1624 1041.28 23.6348 1041.28 22.972H1040.98C1040.98 23.7972 1041.59 24.4696 1042.47 24.4696V24.1624ZM1041.28 22.972C1041.28 22.3092 1041.77 21.7816 1042.47 21.7816V21.4744C1041.59 21.4744 1040.98 22.1468 1040.98 22.972H1041.28ZM1042.47 21.7816C1043.2 21.7816 1043.69 22.311 1043.69 22.972H1043.99C1043.99 22.145 1043.38 21.4744 1042.47 21.4744V21.7816ZM1043.69 22.972C1043.69 23.633 1043.2 24.1624 1042.47 24.1624V24.4696C1043.38 24.4696 1043.99 23.799 1043.99 22.972H1043.69ZM1047.73 26.26V26.4136H1047.88V26.26H1047.73ZM1049.82 26.26H1049.66V26.4136H1049.82V26.26ZM1049.82 27.94V27.7864H1049.66V27.94H1049.82ZM1047.73 27.94H1047.88V27.7864H1047.73V27.94ZM1045.77 27.172V27.028H1045.46V27.172H1045.77ZM1045.77 27.028C1045.77 26.8359 1045.83 26.6846 1045.94 26.5816C1046.04 26.4787 1046.19 26.4136 1046.38 26.4136V26.1064C1046.12 26.1064 1045.89 26.1973 1045.72 26.3644C1045.55 26.5314 1045.46 26.7641 1045.46 27.028H1045.77ZM1046.38 26.4136H1047.73V26.1064H1046.38V26.4136ZM1047.88 26.26V23.644H1047.57V26.26H1047.88ZM1047.88 23.644C1047.88 23.4519 1047.95 23.3006 1048.05 23.1976C1048.15 23.0947 1048.3 23.0296 1048.5 23.0296V22.7224C1048.23 22.7224 1048 22.8133 1047.83 22.9804C1047.66 23.1474 1047.57 23.3801 1047.57 23.644H1047.88ZM1048.5 23.0296H1049.05V22.7224H1048.5V23.0296ZM1049.05 23.0296C1049.24 23.0296 1049.39 23.0947 1049.49 23.1976C1049.6 23.3006 1049.66 23.4519 1049.66 23.644H1049.97C1049.97 23.3801 1049.88 23.1474 1049.71 22.9804C1049.54 22.8133 1049.31 22.7224 1049.05 22.7224V23.0296ZM1049.66 23.644V26.26H1049.97V23.644H1049.66ZM1049.82 26.4136H1052.22V26.1064H1049.82V26.4136ZM1052.22 26.4136C1052.41 26.4136 1052.56 26.4787 1052.66 26.5816C1052.76 26.6846 1052.83 26.8359 1052.83 27.028H1053.14C1053.14 26.7641 1053.05 26.5314 1052.88 26.3644C1052.71 26.1973 1052.48 26.1064 1052.22 26.1064V26.4136ZM1052.83 27.028V27.172H1053.14V27.028H1052.83ZM1052.83 27.172C1052.83 27.3641 1052.76 27.5154 1052.66 27.6184C1052.56 27.7213 1052.41 27.7864 1052.22 27.7864V28.0936C1052.48 28.0936 1052.71 28.0027 1052.88 27.8356C1053.05 27.6686 1053.14 27.4359 1053.14 27.172H1052.83ZM1052.22 27.7864H1049.82V28.0936H1052.22V27.7864ZM1049.66 27.94V35.38H1049.97V27.94H1049.66ZM1049.66 35.38C1049.66 35.9416 1049.75 36.4116 1050.05 36.7377C1050.35 37.0668 1050.83 37.2136 1051.52 37.2136V36.9064C1050.86 36.9064 1050.49 36.7652 1050.28 36.5303C1050.06 36.2924 1049.97 35.9224 1049.97 35.38H1049.66ZM1051.52 37.2136C1051.7 37.2136 1051.91 37.1882 1052.11 37.1646C1052.32 37.1405 1052.54 37.1176 1052.74 37.1176V36.8104C1052.52 36.8104 1052.29 36.8355 1052.08 36.8594C1051.86 36.8838 1051.68 36.9064 1051.52 36.9064V37.2136ZM1052.74 37.1176C1052.92 37.1176 1053.04 37.1683 1053.12 37.2496C1053.21 37.3308 1053.26 37.4615 1053.26 37.66H1053.57C1053.57 37.4025 1053.49 37.1852 1053.34 37.0324C1053.19 36.8797 1052.98 36.8104 1052.74 36.8104V37.1176ZM1053.26 37.66V37.924H1053.57V37.66H1053.26ZM1053.26 37.924C1053.26 38.0657 1053.2 38.179 1053.08 38.2767C1052.95 38.3781 1052.76 38.4575 1052.54 38.5165C1052.09 38.6343 1051.55 38.6584 1051.18 38.6584V38.9656C1051.56 38.9656 1052.13 38.9417 1052.62 38.8135C1052.86 38.7495 1053.09 38.6564 1053.27 38.517C1053.45 38.374 1053.57 38.1783 1053.57 37.924H1053.26ZM1051.18 38.6584C1050.01 38.6584 1049.19 38.4377 1048.67 37.9496C1048.15 37.4638 1047.88 36.6815 1047.88 35.476H1047.57C1047.57 36.7185 1047.85 37.6042 1048.46 38.1744C1049.07 38.7423 1049.98 38.9656 1051.18 38.9656V38.6584ZM1047.88 35.476V27.94H1047.57V35.476H1047.88ZM1047.73 27.7864H1046.38V28.0936H1047.73V27.7864ZM1046.38 27.7864C1046.19 27.7864 1046.04 27.7213 1045.94 27.6184C1045.83 27.5154 1045.77 27.3641 1045.77 27.172H1045.46C1045.46 27.4359 1045.55 27.6686 1045.72 27.8356C1045.89 28.0027 1046.12 28.0936 1046.38 28.0936V27.7864ZM1057.78 27.988H1057.63V28.4686L1057.9 28.0771L1057.78 27.988ZM1055.84 37.732V22.468H1055.54V37.732H1055.84ZM1055.84 22.468C1055.84 22.2759 1055.91 22.1246 1056.01 22.0216C1056.12 21.9187 1056.27 21.8536 1056.46 21.8536V21.5464C1056.2 21.5464 1055.96 21.6373 1055.8 21.8044C1055.63 21.9714 1055.54 22.2041 1055.54 22.468H1055.84ZM1056.46 21.8536H1057.01V21.5464H1056.46V21.8536ZM1057.01 21.8536C1057.2 21.8536 1057.35 21.9187 1057.46 22.0216C1057.56 22.1246 1057.63 22.2759 1057.63 22.468H1057.93C1057.93 22.2041 1057.84 21.9714 1057.67 21.8044C1057.51 21.6373 1057.28 21.5464 1057.01 21.5464V21.8536ZM1057.63 22.468V27.988H1057.93V22.468H1057.63ZM1057.9 28.0771C1058.88 26.7077 1060.39 26.0536 1062.05 26.0536V25.7464C1060.31 25.7464 1058.7 26.4363 1057.65 27.8989L1057.9 28.0771ZM1062.05 26.0536C1063.53 26.0536 1064.58 26.5102 1065.27 27.2884C1065.95 28.07 1066.29 29.1986 1066.29 30.58H1066.6C1066.6 29.1534 1066.25 27.942 1065.5 27.0856C1064.74 26.2258 1063.6 25.7464 1062.05 25.7464V26.0536ZM1066.29 30.58V37.732H1066.6V30.58H1066.29ZM1066.29 37.732C1066.29 37.9241 1066.22 38.0754 1066.12 38.1784C1066.02 38.2813 1065.87 38.3464 1065.68 38.3464V38.6536C1065.94 38.6536 1066.17 38.5627 1066.34 38.3956C1066.51 38.2286 1066.6 37.9959 1066.6 37.732H1066.29ZM1065.68 38.3464H1065.12V38.6536H1065.68V38.3464ZM1065.12 38.3464C1064.93 38.3464 1064.78 38.2813 1064.68 38.1784C1064.57 38.0754 1064.51 37.9241 1064.51 37.732H1064.2C1064.2 37.9959 1064.29 38.2286 1064.46 38.3956C1064.63 38.5627 1064.86 38.6536 1065.12 38.6536V38.3464ZM1064.51 37.732V30.82H1064.2V37.732H1064.51ZM1064.51 30.82C1064.51 29.823 1064.25 28.9958 1063.73 28.4162C1063.2 27.8342 1062.43 27.5224 1061.45 27.5224V27.8296C1062.37 27.8296 1063.05 28.1178 1063.5 28.6218C1063.96 29.1282 1064.2 29.873 1064.2 30.82H1064.51ZM1061.45 27.5224C1059.45 27.5224 1057.63 29.1713 1057.63 31.372H1057.93C1057.93 29.3487 1059.61 27.8296 1061.45 27.8296V27.5224ZM1057.63 31.372V37.732H1057.93V31.372H1057.63ZM1057.63 37.732C1057.63 37.9241 1057.56 38.0754 1057.46 38.1784C1057.35 38.2813 1057.2 38.3464 1057.01 38.3464V38.6536C1057.28 38.6536 1057.51 38.5627 1057.67 38.3956C1057.84 38.2286 1057.93 37.9959 1057.93 37.732H1057.63ZM1057.01 38.3464H1056.46V38.6536H1057.01V38.3464ZM1056.46 38.3464C1056.27 38.3464 1056.12 38.2813 1056.01 38.1784C1055.91 38.0754 1055.84 37.9241 1055.84 37.732H1055.54C1055.54 37.9959 1055.63 38.2286 1055.8 38.3956C1055.96 38.5627 1056.2 38.6536 1056.46 38.6536V38.3464Z" fill="#0C50FF" mask="url(#path-2-outside-1_83_420)"/>
<g clip-path="url(#clip0_83_420)">
<mask id="mask0_83_420" style="mask-type:luminance" maskUnits="userSpaceOnUse" x="1078" y="22" width="21" height="18">
<path d="M1078.5 22.36H1098.5V39.86H1078.5V22.36Z" fill="white"/>
<path fill-rule="evenodd" clip-rule="evenodd" d="M1082.26 26.1215C1081.61 26.7743 1081.25 27.6553 1081.25 28.5734C1081.25 29.4914 1081.61 30.3723 1082.26 31.025L1082.26 31.026L1088.33 37.104L1088.33 37.105C1088.36 37.1339 1088.4 37.15 1088.44 37.15H1088.45C1088.49 37.15 1088.53 37.1334 1088.56 37.104L1094.63 31.026L1094.63 31.025C1095.28 30.3722 1095.64 29.4913 1095.64 28.5732C1095.64 27.6552 1095.28 26.7743 1094.63 26.1215C1093.98 25.4736 1093.1 25.1099 1092.18 25.1102C1091.26 25.1105 1090.38 25.4747 1089.73 26.123L1088.8 27.055C1088.7 27.1487 1088.58 27.2014 1088.44 27.2014C1088.31 27.2014 1088.18 27.1487 1088.09 27.055L1087.16 26.123C1086.51 25.4745 1085.63 25.1102 1084.71 25.1099C1083.79 25.1096 1082.91 25.4734 1082.26 26.1215ZM1081.37 25.238C1082.26 24.3555 1083.46 23.86 1084.71 23.86C1085.96 23.86 1087.16 24.3555 1088.04 25.238L1088.04 25.2385L1088.09 25.2875C1088.18 25.3812 1088.31 25.4339 1088.44 25.4339C1088.58 25.4339 1088.7 25.3812 1088.8 25.2875L1088.85 25.2385L1088.85 25.238C1089.73 24.3554 1090.93 23.8597 1092.18 23.8597C1093.43 23.8597 1094.63 24.3554 1095.51 25.238L1095.52 25.241C1096.4 26.1279 1096.89 27.3254 1096.89 28.5732C1096.89 29.8211 1096.4 31.0186 1095.52 31.9055L1095.52 31.9075L1089.44 37.9895L1089.44 37.9915C1089.17 38.254 1088.82 38.4007 1088.44 38.3995C1088.07 38.4006 1087.71 38.2538 1087.45 37.9915L1087.45 37.9895L1081.37 31.9055C1080.49 31.0186 1080 29.821 1080 28.573C1080 27.325 1080.49 26.1274 1081.37 25.2405L1081.37 25.238Z" fill="black"/>
</mask>
<g mask="url(#mask0_83_420)">
<path d="M1082.26 26.1215L1081.41 25.2715L1081.41 25.275L1081.4 25.278L1082.26 26.1215ZM1082.26 31.026L1081.41 31.8705L1081.41 31.874L1082.26 31.026ZM1088.33 37.104L1087.48 37.952L1087.48 37.9565L1088.33 37.104ZM1088.44 37.1495L1088.45 35.9495H1088.44L1088.44 37.1495ZM1088.56 37.105L1089.4 37.962L1089.4 37.9615L1088.56 37.105ZM1088.56 37.104L1089.4 37.9565L1089.41 37.952L1088.56 37.104ZM1094.63 31.026L1095.48 31.874L1095.48 31.8705L1094.63 31.026H1094.63ZM1094.63 31.025L1095.48 31.87L1095.48 31.869L1094.63 31.025ZM1094.63 26.1215L1095.48 25.278L1095.48 25.2745L1095.48 25.2715L1094.63 26.1215ZM1081.37 25.238L1080.53 24.388L1080.52 24.391L1081.37 25.238ZM1088.04 25.2385L1088.89 24.39L1088.89 24.3885L1088.04 25.2385ZM1088.85 25.2385L1088 24.389L1088 24.39L1088.85 25.2385H1088.85ZM1095.52 25.241L1096.37 24.397L1096.37 24.394L1096.37 24.391L1095.52 25.241ZM1095.52 31.9055L1096.37 32.7515L1096.37 32.7495L1095.52 31.9055ZM1095.52 31.9075L1096.37 32.7555L1096.37 32.753L1095.52 31.9075ZM1089.44 37.9895L1090.29 38.8395L1090.29 38.8375L1089.44 37.9895ZM1089.44 37.9915L1090.28 38.8435L1090.29 38.8415L1089.44 37.9915ZM1088.44 38.4L1088.45 37.2H1088.44L1088.44 38.4ZM1087.45 37.9915L1086.6 38.8415L1086.6 38.8435L1087.45 37.9915ZM1087.45 37.9895L1086.6 38.8375L1086.6 38.8395L1087.45 37.9895ZM1081.37 31.9055L1080.52 32.7495L1080.52 32.7535L1081.37 31.9055ZM1081.37 25.2405L1080.52 24.394L1080.52 24.397L1081.37 25.2405ZM1082.45 28.573C1082.45 27.971 1082.69 27.393 1083.11 26.9655L1081.4 25.278C1080.54 26.1554 1080.05 27.3393 1080.05 28.573H1082.45ZM1083.11 30.1815C1082.69 29.7533 1082.45 29.1753 1082.45 28.573H1080.05C1080.05 29.807 1080.54 30.9915 1081.4 31.869L1083.11 30.1815ZM1083.11 30.1815L1081.4 31.8685L1081.41 31.8705L1083.11 30.1815ZM1089.18 36.2565L1083.11 30.178L1081.41 31.874L1087.48 37.952L1089.18 36.2565ZM1089.17 36.248C1089.17 36.2493 1089.17 36.2507 1089.17 36.252L1087.48 37.9565L1087.49 37.9615L1089.17 36.248ZM1088.83 36.027C1088.96 36.078 1089.07 36.153 1089.17 36.2475L1087.49 37.9615C1087.62 38.0845 1087.76 38.182 1087.93 38.249L1088.83 36.027ZM1088.43 35.9495C1088.57 35.9488 1088.71 35.9752 1088.83 36.027L1087.93 38.249C1088.09 38.3165 1088.27 38.3505 1088.45 38.3495L1088.43 35.9495ZM1088.44 35.9495H1088.43L1088.45 38.3495H1088.45L1088.44 35.9495ZM1088.45 35.9495H1088.45L1088.44 38.3495H1088.44L1088.45 35.9495ZM1088.05 36.027C1088.18 35.9752 1088.32 35.9488 1088.45 35.9495L1088.44 38.3495C1088.62 38.3505 1088.8 38.3165 1088.96 38.249L1088.05 36.027ZM1087.72 36.2475C1087.81 36.153 1087.93 36.078 1088.05 36.0275L1088.96 38.249C1089.12 38.1824 1089.27 38.0845 1089.4 37.9615L1087.72 36.2475ZM1087.71 36.252C1087.71 36.2507 1087.72 36.2493 1087.72 36.248L1089.4 37.9615C1089.4 37.9598 1089.4 37.9582 1089.4 37.9565L1087.71 36.2515V36.252ZM1093.78 30.178L1087.71 36.256L1089.41 37.952L1095.48 31.874L1093.78 30.178ZM1093.78 30.1805C1093.78 30.1815 1093.78 30.182 1093.78 30.182L1095.48 31.8705L1095.48 31.8695L1093.78 30.1805ZM1094.44 28.573C1094.44 29.1755 1094.2 29.753 1093.78 30.1815L1095.48 31.869C1096.35 30.9915 1096.84 29.8071 1096.84 28.573H1094.44ZM1093.78 26.9655C1094.2 27.3936 1094.44 27.9712 1094.44 28.573H1096.84C1096.84 27.3393 1096.35 26.1554 1095.48 25.278L1093.78 26.966L1093.78 26.9655ZM1092.18 26.31C1092.78 26.31 1093.36 26.548 1093.78 26.972L1095.48 25.2715C1094.6 24.3996 1093.42 23.91 1092.18 23.91V26.31ZM1090.58 26.9725C1091 26.5482 1091.58 26.31 1092.18 26.31V23.91C1090.94 23.91 1089.76 24.4 1088.88 25.273L1090.58 26.973V26.9725ZM1084.71 26.31C1085.31 26.31 1085.89 26.5485 1086.31 26.973L1088.01 25.273C1087.13 24.4001 1085.94 23.9099 1084.71 23.91V26.31ZM1083.1 26.972C1083.53 26.548 1084.11 26.31 1084.71 26.31V23.91C1083.47 23.9098 1082.29 24.3994 1081.41 25.2715L1083.1 26.9715V26.972ZM1084.71 22.66C1083.14 22.6599 1081.64 23.2815 1080.53 24.3885L1082.22 26.088C1082.88 25.4297 1083.77 25.06 1084.71 25.06V22.66ZM1088.89 24.3885C1087.78 23.2817 1086.27 22.6601 1084.71 22.66V25.06C1085.64 25.06 1086.53 25.4295 1087.19 26.088L1088.89 24.388L1088.89 24.3885ZM1088.89 24.3885H1088.89L1087.19 26.0875L1087.19 26.088L1088.89 24.388L1088.89 24.3885ZM1088.94 24.4385L1088.89 24.39L1087.19 26.087L1087.24 26.136L1088.94 24.4385ZM1088 24.39L1087.95 24.439L1089.65 26.136L1089.69 26.087L1088 24.39ZM1088 24.3885L1088 24.389L1089.69 26.088L1088 24.388L1088 24.3885ZM1092.18 22.66C1090.61 22.6601 1089.11 23.2817 1088 24.3885L1089.69 26.088C1090.35 25.4298 1091.25 25.0602 1092.18 25.06V22.66ZM1096.36 24.3885C1095.25 23.2817 1093.75 22.6601 1092.18 22.66V25.06C1093.11 25.0599 1094.01 25.4296 1094.67 26.088L1096.36 24.388L1096.36 24.3885ZM1096.36 24.391L1096.36 24.3885L1094.67 26.088L1094.67 26.0905L1096.37 24.391H1096.36ZM1098.09 28.573C1098.09 27.009 1097.47 25.508 1096.37 24.397L1094.66 26.085C1095.32 26.7472 1095.69 27.6413 1095.69 28.573H1098.09ZM1096.37 32.7495C1097.47 31.6378 1098.09 30.137 1098.09 28.573H1095.69C1095.69 29.5047 1095.32 30.3988 1094.66 31.061L1096.37 32.7495ZM1096.37 32.753L1096.37 32.7515L1094.67 31.0595L1094.66 31.0615L1096.37 32.753ZM1090.29 38.8375L1096.36 32.7555L1094.67 31.0595L1088.59 37.1415L1090.29 38.8375ZM1090.29 38.8415L1090.29 38.8395L1088.59 37.1395L1088.59 37.1415L1090.29 38.8415ZM1089.43 39.4065C1089.75 39.2766 1090.04 39.0853 1090.28 38.8435L1088.59 37.1395C1088.57 37.1588 1088.55 37.1736 1088.53 37.184L1089.43 39.4065ZM1088.44 39.5995C1088.78 39.6006 1089.12 39.5354 1089.43 39.4065L1088.53 37.184C1088.5 37.1943 1088.47 37.2 1088.45 37.2L1088.44 39.5995ZM1087.45 39.406C1087.77 39.535 1088.11 39.601 1088.45 39.5995L1088.44 37.2C1088.41 37.2002 1088.39 37.1941 1088.36 37.184L1087.45 39.406ZM1086.6 38.8435C1086.85 39.0851 1087.14 39.2762 1087.45 39.406L1088.36 37.184C1088.34 37.1738 1088.31 37.1586 1088.29 37.1395L1086.6 38.8435ZM1086.6 38.8395L1086.6 38.8415L1088.3 37.1415L1088.29 37.1395L1086.6 38.8395ZM1078.8 28.573C1078.8 30.137 1079.42 31.638 1080.52 32.7495L1082.22 31.061C1081.57 30.3988 1081.2 29.5047 1081.2 28.573H1078.8ZM1080.52 24.397C1079.42 25.5085 1078.8 27.0092 1078.8 28.573H1081.2C1081.2 27.6415 1081.57 26.7475 1082.22 26.085L1080.52 24.397ZM1080.52 24.391L1080.52 24.394L1082.22 26.088L1082.22 26.085L1080.52 24.391ZM1089.65 27.9035L1090.58 26.9715L1088.88 25.2745L1087.95 26.2065L1089.65 27.9035ZM1086.31 26.9715L1087.24 27.9035L1088.94 26.2065L1088.01 25.2745L1086.31 26.9715ZM1080.52 32.7535L1086.6 38.8375L1088.3 37.1415L1082.22 31.0575L1080.52 32.7535ZM1087.24 26.136C1087.4 26.2939 1087.59 26.4192 1087.79 26.5046C1088 26.5901 1088.22 26.6341 1088.44 26.6341C1088.67 26.6341 1088.89 26.5901 1089.09 26.5046C1089.3 26.4192 1089.49 26.2939 1089.65 26.136L1087.95 24.439C1088.01 24.374 1088.09 24.3224 1088.18 24.2872C1088.26 24.2521 1088.35 24.2339 1088.44 24.2339C1088.54 24.2339 1088.63 24.2521 1088.71 24.2872C1088.8 24.3224 1088.87 24.3735 1088.94 24.4385L1087.24 26.136H1087.24ZM1087.95 26.2065C1088.01 26.1415 1088.09 26.0899 1088.18 26.0547C1088.26 26.0196 1088.35 26.0014 1088.44 26.0014C1088.54 26.0014 1088.63 26.0196 1088.71 26.0547C1088.8 26.0899 1088.87 26.1415 1088.94 26.2065L1087.24 27.9035C1087.4 28.0614 1087.59 28.1872 1087.79 28.2726C1088 28.3581 1088.22 28.4021 1088.44 28.4021C1088.67 28.4021 1088.89 28.3581 1089.09 28.2726C1089.3 28.1872 1089.49 28.0614 1089.65 27.9035L1087.95 26.206L1087.95 26.2065Z" fill="#3139FB"/>
</g>
</g>
<mask id="path-7-outside-2_83_420" maskUnits="userSpaceOnUse" x="1109.5" y="21.5" width="83" height="23" fill="black">
<rect fill="white" x="1109.5" y="21.5" width="83" height="23"/>
<path d="M1111.21 38.5H1110.76C1110.3 38.5 1109.99 38.188 1109.99 37.732V22.468C1109.99 22.012 1110.3 21.7 1110.76 21.7H1111.31C1111.76 21.7 1112.08 22.012 1112.08 22.468V28.06C1113.13 26.668 1114.69 25.9 1116.59 25.9C1119.9 25.9 1122.66 28.564 1122.66 32.38C1122.66 36.172 1119.88 38.86 1116.59 38.86C1114.69 38.86 1113.13 38.116 1111.98 36.628V37.732C1111.98 38.188 1111.67 38.5 1111.21 38.5ZM1111.96 32.38C1111.96 35.14 1113.83 37.108 1116.23 37.108C1118.63 37.108 1120.55 35.188 1120.55 32.38C1120.55 29.548 1118.63 27.652 1116.23 27.652C1113.83 27.652 1111.96 29.596 1111.96 32.38ZM1123.86 26.884C1123.86 26.5 1124.15 26.26 1124.68 26.26H1125.33C1125.64 26.26 1125.93 26.452 1126.05 26.764L1129.6 36.148H1129.67L1133.17 26.764C1133.29 26.452 1133.58 26.26 1133.89 26.26H1134.54C1135.05 26.26 1135.33 26.5 1135.33 26.884C1135.33 27.028 1135.31 27.172 1135.24 27.316L1130.82 38.284C1129.33 41.956 1128.54 43.42 1126.26 43.42C1125.85 43.42 1125.35 43.372 1124.89 43.3C1124.53 43.252 1124.32 42.94 1124.32 42.604V42.268C1124.32 41.812 1124.53 41.644 1124.94 41.644C1125.3 41.644 1125.64 41.692 1125.9 41.692C1127.32 41.692 1128.09 39.988 1128.57 38.404L1123.96 27.316C1123.89 27.172 1123.86 27.028 1123.86 26.884ZM1147.01 31.636L1148.57 31.42C1149.89 31.252 1150.66 30.796 1150.66 29.884C1150.66 28.3 1149.46 27.604 1147.95 27.604C1146.68 27.604 1145.69 28.18 1145.26 29.068C1145.09 29.404 1144.81 29.668 1144.45 29.668H1143.8C1143.37 29.668 1143.05 29.428 1143.05 29.068C1143.05 28.996 1143.08 28.924 1143.1 28.828C1143.77 26.812 1145.69 25.924 1147.93 25.924C1150.09 25.924 1151.48 26.812 1152.13 28.252C1153.18 26.74 1155.08 25.9 1157.09 25.9C1160.05 25.9 1163.31 27.82 1163.31 31.9C1163.31 32.524 1163.26 33.052 1162.64 33.052H1152.77C1153.11 35.716 1155.03 37.108 1157.12 37.108C1158.8 37.108 1160.09 36.268 1160.77 35.116C1160.91 34.852 1161.2 34.66 1161.49 34.66H1162.06C1162.52 34.66 1162.81 34.876 1162.81 35.212C1162.81 35.332 1162.76 35.476 1162.69 35.62C1161.61 37.684 1159.59 38.86 1157.09 38.86C1154.96 38.86 1152.87 37.876 1151.77 36.028C1150.49 37.9 1148.62 38.86 1146.29 38.86C1144.23 38.86 1142.48 37.66 1142.48 35.428C1142.48 32.548 1144.83 31.948 1147.01 31.636ZM1150.64 33.964V32.092C1150.23 32.524 1149.46 32.74 1148.6 32.86L1147.35 33.052C1145.93 33.268 1144.61 33.748 1144.61 35.356C1144.61 36.556 1145.45 37.228 1146.82 37.228C1148.55 37.228 1150.64 35.788 1150.64 33.964ZM1157.09 27.652C1155.1 27.652 1153.28 28.996 1152.85 31.3H1161.32C1160.98 28.9 1159.09 27.652 1157.09 27.652ZM1165.56 27.028C1165.56 26.572 1165.87 26.26 1166.33 26.26H1166.81C1167.26 26.26 1167.57 26.572 1167.57 27.028V27.988C1168.7 26.548 1170.21 25.9 1171.87 25.9C1174.94 25.9 1176.31 27.772 1176.31 30.58V37.732C1176.31 38.188 1176 38.5 1175.54 38.5H1174.99C1174.53 38.5 1174.22 38.188 1174.22 37.732V30.796C1174.22 28.852 1173.19 27.676 1171.32 27.676C1169.4 27.676 1167.65 29.26 1167.65 31.348V37.732C1167.65 38.188 1167.33 38.5 1166.88 38.5H1166.33C1165.87 38.5 1165.56 38.188 1165.56 37.732V27.028ZM1178.57 32.38C1178.57 28.684 1181.33 25.9 1185 25.9C1188.65 25.9 1191.44 28.636 1191.44 32.38C1191.44 36.148 1188.65 38.86 1185 38.86C1181.33 38.86 1178.57 36.1 1178.57 32.38ZM1180.68 32.38C1180.68 35.212 1182.56 37.108 1185 37.108C1187.43 37.108 1189.32 35.212 1189.32 32.38C1189.32 29.572 1187.48 27.652 1185 27.652C1182.56 27.652 1180.68 29.572 1180.68 32.38Z"/>
</mask>
<path d="M1111.21 38.5H1110.76C1110.3 38.5 1109.99 38.188 1109.99 37.732V22.468C1109.99 22.012 1110.3 21.7 1110.76 21.7H1111.31C1111.76 21.7 1112.08 22.012 1112.08 22.468V28.06C1113.13 26.668 1114.69 25.9 1116.59 25.9C1119.9 25.9 1122.66 28.564 1122.66 32.38C1122.66 36.172 1119.88 38.86 1116.59 38.86C1114.69 38.86 1113.13 38.116 1111.98 36.628V37.732C1111.98 38.188 1111.67 38.5 1111.21 38.5ZM1111.96 32.38C1111.96 35.14 1113.83 37.108 1116.23 37.108C1118.63 37.108 1120.55 35.188 1120.55 32.38C1120.55 29.548 1118.63 27.652 1116.23 27.652C1113.83 27.652 1111.96 29.596 1111.96 32.38ZM1123.86 26.884C1123.86 26.5 1124.15 26.26 1124.68 26.26H1125.33C1125.64 26.26 1125.93 26.452 1126.05 26.764L1129.6 36.148H1129.67L1133.17 26.764C1133.29 26.452 1133.58 26.26 1133.89 26.26H1134.54C1135.05 26.26 1135.33 26.5 1135.33 26.884C1135.33 27.028 1135.31 27.172 1135.24 27.316L1130.82 38.284C1129.33 41.956 1128.54 43.42 1126.26 43.42C1125.85 43.42 1125.35 43.372 1124.89 43.3C1124.53 43.252 1124.32 42.94 1124.32 42.604V42.268C1124.32 41.812 1124.53 41.644 1124.94 41.644C1125.3 41.644 1125.64 41.692 1125.9 41.692C1127.32 41.692 1128.09 39.988 1128.57 38.404L1123.96 27.316C1123.89 27.172 1123.86 27.028 1123.86 26.884ZM1147.01 31.636L1148.57 31.42C1149.89 31.252 1150.66 30.796 1150.66 29.884C1150.66 28.3 1149.46 27.604 1147.95 27.604C1146.68 27.604 1145.69 28.18 1145.26 29.068C1145.09 29.404 1144.81 29.668 1144.45 29.668H1143.8C1143.37 29.668 1143.05 29.428 1143.05 29.068C1143.05 28.996 1143.08 28.924 1143.1 28.828C1143.77 26.812 1145.69 25.924 1147.93 25.924C1150.09 25.924 1151.48 26.812 1152.13 28.252C1153.18 26.74 1155.08 25.9 1157.09 25.9C1160.05 25.9 1163.31 27.82 1163.31 31.9C1163.31 32.524 1163.26 33.052 1162.64 33.052H1152.77C1153.11 35.716 1155.03 37.108 1157.12 37.108C1158.8 37.108 1160.09 36.268 1160.77 35.116C1160.91 34.852 1161.2 34.66 1161.49 34.66H1162.06C1162.52 34.66 1162.81 34.876 1162.81 35.212C1162.81 35.332 1162.76 35.476 1162.69 35.62C1161.61 37.684 1159.59 38.86 1157.09 38.86C1154.96 38.86 1152.87 37.876 1151.77 36.028C1150.49 37.9 1148.62 38.86 1146.29 38.86C1144.23 38.86 1142.48 37.66 1142.48 35.428C1142.48 32.548 1144.83 31.948 1147.01 31.636ZM1150.64 33.964V32.092C1150.23 32.524 1149.46 32.74 1148.6 32.86L1147.35 33.052C1145.93 33.268 1144.61 33.748 1144.61 35.356C1144.61 36.556 1145.45 37.228 1146.82 37.228C1148.55 37.228 1150.64 35.788 1150.64 33.964ZM1157.09 27.652C1155.1 27.652 1153.28 28.996 1152.85 31.3H1161.32C1160.98 28.9 1159.09 27.652 1157.09 27.652ZM1165.56 27.028C1165.56 26.572 1165.87 26.26 1166.33 26.26H1166.81C1167.26 26.26 1167.57 26.572 1167.57 27.028V27.988C1168.7 26.548 1170.21 25.9 1171.87 25.9C1174.94 25.9 1176.31 27.772 1176.31 30.58V37.732C1176.31 38.188 1176 38.5 1175.54 38.5H1174.99C1174.53 38.5 1174.22 38.188 1174.22 37.732V30.796C1174.22 28.852 1173.19 27.676 1171.32 27.676C1169.4 27.676 1167.65 29.26 1167.65 31.348V37.732C1167.65 38.188 1167.33 38.5 1166.88 38.5H1166.33C1165.87 38.5 1165.56 38.188 1165.56 37.732V27.028ZM1178.57 32.38C1178.57 28.684 1181.33 25.9 1185 25.9C1188.65 25.9 1191.44 28.636 1191.44 32.38C1191.44 36.148 1188.65 38.86 1185 38.86C1181.33 38.86 1178.57 36.1 1178.57 32.38ZM1180.68 32.38C1180.68 35.212 1182.56 37.108 1185 37.108C1187.43 37.108 1189.32 35.212 1189.32 32.38C1189.32 29.572 1187.48 27.652 1185 27.652C1182.56 27.652 1180.68 29.572 1180.68 32.38Z" fill="#0C50FF"/>
<path d="M1112.08 28.06H1111.92V28.5166L1112.2 28.1528L1112.08 28.06ZM1111.98 36.628L1112.1 36.534L1111.83 36.1787V36.628H1111.98ZM1111.21 38.3464H1110.76V38.6536H1111.21V38.3464ZM1110.76 38.3464C1110.56 38.3464 1110.41 38.2813 1110.31 38.1784C1110.21 38.0754 1110.14 37.9241 1110.14 37.732H1109.83C1109.83 37.9959 1109.93 38.2286 1110.09 38.3956C1110.26 38.5627 1110.49 38.6536 1110.76 38.6536V38.3464ZM1110.14 37.732V22.468H1109.83V37.732H1110.14ZM1110.14 22.468C1110.14 22.2759 1110.21 22.1246 1110.31 22.0216C1110.41 21.9187 1110.56 21.8536 1110.76 21.8536V21.5464C1110.49 21.5464 1110.26 21.6373 1110.09 21.8044C1109.93 21.9714 1109.83 22.2041 1109.83 22.468H1110.14ZM1110.76 21.8536H1111.31V21.5464H1110.76V21.8536ZM1111.31 21.8536C1111.5 21.8536 1111.65 21.9187 1111.75 22.0216C1111.86 22.1246 1111.92 22.2759 1111.92 22.468H1112.23C1112.23 22.2041 1112.14 21.9714 1111.97 21.8044C1111.8 21.6373 1111.57 21.5464 1111.31 21.5464V21.8536ZM1111.92 22.468V28.06H1112.23V22.468H1111.92ZM1112.2 28.1528C1113.22 26.8012 1114.74 26.0536 1116.59 26.0536V25.7464C1114.65 25.7464 1113.04 26.5348 1111.95 27.9672L1112.2 28.1528ZM1116.59 26.0536C1119.81 26.0536 1122.51 28.6438 1122.51 32.38H1122.81C1122.81 28.4842 1119.99 25.7464 1116.59 25.7464V26.0536ZM1122.51 32.38C1122.51 36.0922 1119.79 38.7064 1116.59 38.7064V39.0136C1119.97 39.0136 1122.81 36.2518 1122.81 32.38H1122.51ZM1116.59 38.7064C1114.74 38.7064 1113.22 37.9832 1112.1 36.534L1111.86 36.722C1113.04 38.2488 1114.65 39.0136 1116.59 39.0136V38.7064ZM1111.83 36.628V37.732H1112.13V36.628H1111.83ZM1111.83 37.732C1111.83 37.9241 1111.76 38.0754 1111.66 38.1784C1111.56 38.2813 1111.4 38.3464 1111.21 38.3464V38.6536C1111.48 38.6536 1111.71 38.5627 1111.88 38.3956C1112.04 38.2286 1112.13 37.9959 1112.13 37.732H1111.83ZM1111.8 32.38C1111.8 35.2121 1113.73 37.2616 1116.23 37.2616V36.9544C1113.93 36.9544 1112.11 35.0679 1112.11 32.38H1111.8ZM1116.23 37.2616C1118.72 37.2616 1120.7 35.2635 1120.7 32.38H1120.39C1120.39 35.1125 1118.53 36.9544 1116.23 36.9544V37.2616ZM1120.7 32.38C1120.7 29.4719 1118.72 27.4984 1116.23 27.4984V27.8056C1118.53 27.8056 1120.39 29.6241 1120.39 32.38H1120.7ZM1116.23 27.4984C1113.73 27.4984 1111.8 29.5233 1111.8 32.38H1112.11C1112.11 29.6687 1113.92 27.8056 1116.23 27.8056V27.4984ZM1126.05 26.764L1126.19 26.7096L1126.19 26.7089L1126.05 26.764ZM1129.6 36.148L1129.45 36.2024L1129.49 36.3016H1129.6V36.148ZM1129.67 36.148V36.3016H1129.78L1129.81 36.2017L1129.67 36.148ZM1133.17 26.764L1133.03 26.7089L1133.03 26.7103L1133.17 26.764ZM1135.24 27.316L1135.1 27.2471L1135.1 27.2586L1135.24 27.316ZM1130.82 38.284L1130.96 38.3417L1130.96 38.3414L1130.82 38.284ZM1124.89 43.3L1124.92 43.1482L1124.91 43.1477L1124.89 43.3ZM1128.57 38.404L1128.71 38.4485L1128.73 38.3959L1128.71 38.3451L1128.57 38.404ZM1123.96 27.316L1124.1 27.2569L1124.1 27.2473L1123.96 27.316ZM1124.02 26.884C1124.02 26.7342 1124.07 26.6249 1124.17 26.549C1124.27 26.4692 1124.43 26.4136 1124.68 26.4136V26.1064C1124.39 26.1064 1124.15 26.1708 1123.98 26.307C1123.8 26.4471 1123.71 26.6498 1123.71 26.884H1124.02ZM1124.68 26.4136H1125.33V26.1064H1124.68V26.4136ZM1125.33 26.4136C1125.57 26.4136 1125.8 26.5659 1125.9 26.8191L1126.19 26.7089C1126.05 26.3381 1125.7 26.1064 1125.33 26.1064V26.4136ZM1125.9 26.8184L1129.45 36.2024L1129.74 36.0936L1126.19 26.7096L1125.9 26.8184ZM1129.6 36.3016H1129.67V35.9944H1129.6V36.3016ZM1129.81 36.2017L1133.32 26.8177L1133.03 26.7103L1129.53 36.0943L1129.81 36.2017ZM1133.32 26.8191C1133.41 26.5659 1133.65 26.4136 1133.89 26.4136V26.1064C1133.52 26.1064 1133.17 26.3381 1133.03 26.7089L1133.32 26.8191ZM1133.89 26.4136H1134.54V26.1064H1133.89V26.4136ZM1134.54 26.4136C1134.77 26.4136 1134.93 26.4685 1135.03 26.5479C1135.13 26.624 1135.18 26.734 1135.18 26.884H1135.49C1135.49 26.65 1135.4 26.448 1135.22 26.3081C1135.05 26.1715 1134.82 26.1064 1134.54 26.1064V26.4136ZM1135.18 26.884C1135.18 27.01 1135.16 27.1293 1135.1 27.2473L1135.38 27.3847C1135.46 27.2147 1135.49 27.046 1135.49 26.884H1135.18ZM1135.1 27.2586L1130.68 38.2266L1130.96 38.3414L1135.38 27.3734L1135.1 27.2586ZM1130.68 38.2263C1129.93 40.0674 1129.37 41.3284 1128.72 42.1323C1128.4 42.5305 1128.05 42.8118 1127.66 42.9946C1127.27 43.1776 1126.82 43.2664 1126.26 43.2664V43.5736C1126.85 43.5736 1127.35 43.4794 1127.79 43.2731C1128.24 43.0667 1128.61 42.7525 1128.96 42.3257C1129.64 41.4796 1130.22 40.1726 1130.96 38.3417L1130.68 38.2263ZM1126.26 43.2664C1125.86 43.2664 1125.37 43.2194 1124.92 43.1483L1124.87 43.4517C1125.33 43.5246 1125.84 43.5736 1126.26 43.5736V43.2664ZM1124.91 43.1477C1124.64 43.1118 1124.47 42.8779 1124.47 42.604H1124.16C1124.16 43.0021 1124.42 43.3922 1124.87 43.4523L1124.91 43.1477ZM1124.47 42.604V42.268H1124.16V42.604H1124.47ZM1124.47 42.268C1124.47 42.0613 1124.52 41.9549 1124.58 41.8968C1124.65 41.8368 1124.75 41.7976 1124.94 41.7976V41.4904C1124.72 41.4904 1124.52 41.5352 1124.37 41.6732C1124.22 41.8131 1124.16 42.0187 1124.16 42.268H1124.47ZM1124.94 41.7976C1125.12 41.7976 1125.28 41.8092 1125.45 41.8212C1125.61 41.833 1125.76 41.8456 1125.9 41.8456V41.5384C1125.78 41.5384 1125.63 41.527 1125.47 41.5148C1125.31 41.5028 1125.13 41.4904 1124.94 41.4904V41.7976ZM1125.9 41.8456C1126.68 41.8456 1127.27 41.3737 1127.71 40.729C1128.15 40.085 1128.47 39.2446 1128.71 38.4485L1128.42 38.3595C1128.18 39.1474 1127.87 39.951 1127.46 40.555C1127.04 41.1583 1126.54 41.5384 1125.9 41.5384V41.8456ZM1128.71 38.3451L1124.1 27.2571L1123.82 27.3749L1128.42 38.4629L1128.71 38.3451ZM1124.1 27.2473C1124.04 27.1293 1124.02 27.01 1124.02 26.884H1123.71C1123.71 27.046 1123.74 27.2147 1123.82 27.3847L1124.1 27.2473ZM1147.01 31.636L1146.99 31.4838L1146.99 31.4839L1147.01 31.636ZM1148.57 31.42L1148.55 31.2676L1148.55 31.2678L1148.57 31.42ZM1145.26 29.068L1145.4 29.1367L1145.4 29.1352L1145.26 29.068ZM1143.1 28.828L1142.96 28.7793L1142.95 28.7907L1143.1 28.828ZM1152.13 28.252L1151.99 28.315L1152.1 28.5618L1152.25 28.34L1152.13 28.252ZM1152.77 33.052V32.8984H1152.6L1152.62 33.0712L1152.77 33.052ZM1160.77 35.116L1160.9 35.1934L1160.9 35.1896L1160.77 35.116ZM1162.69 35.62L1162.82 35.6912L1162.82 35.6887L1162.69 35.62ZM1151.77 36.028L1151.9 35.9492L1151.77 35.7424L1151.64 35.9417L1151.77 36.028ZM1150.64 32.092H1150.79V31.7057L1150.53 31.9865L1150.64 32.092ZM1148.6 32.86L1148.58 32.7078L1148.57 32.7082L1148.6 32.86ZM1147.35 33.052L1147.37 33.2038L1147.37 33.2038L1147.35 33.052ZM1152.85 31.3L1152.69 31.2717L1152.66 31.4536H1152.85V31.3ZM1161.32 31.3V31.4536H1161.49L1161.47 31.2787L1161.32 31.3ZM1147.03 31.7882L1148.59 31.5722L1148.55 31.2678L1146.99 31.4838L1147.03 31.7882ZM1148.59 31.5724C1149.26 31.4872 1149.81 31.3269 1150.2 31.057C1150.6 30.7805 1150.82 30.3923 1150.82 29.884H1150.51C1150.51 30.2877 1150.34 30.5835 1150.02 30.805C1149.7 31.0331 1149.21 31.1848 1148.55 31.2676L1148.59 31.5724ZM1150.82 29.884C1150.82 29.0484 1150.5 28.4313 1149.97 28.0277C1149.44 27.6288 1148.73 27.4504 1147.95 27.4504V27.7576C1148.69 27.7576 1149.33 27.9272 1149.78 28.2722C1150.23 28.6127 1150.51 29.1356 1150.51 29.884H1150.82ZM1147.95 27.4504C1146.63 27.4504 1145.59 28.0491 1145.12 29.0008L1145.4 29.1352C1145.8 28.3109 1146.72 27.7576 1147.95 27.7576V27.4504ZM1145.12 28.9993C1144.97 29.3091 1144.72 29.5144 1144.45 29.5144V29.8216C1144.89 29.8216 1145.22 29.4989 1145.4 29.1367L1145.12 28.9993ZM1144.45 29.5144H1143.8V29.8216H1144.45V29.5144ZM1143.8 29.5144C1143.61 29.5144 1143.46 29.4619 1143.36 29.3828C1143.26 29.3058 1143.21 29.1994 1143.21 29.068H1142.9C1142.9 29.2966 1143 29.4902 1143.17 29.6232C1143.33 29.7541 1143.55 29.8216 1143.8 29.8216V29.5144ZM1143.21 29.068C1143.21 29.0209 1143.22 28.9788 1143.25 28.8653L1142.95 28.7907C1142.93 28.8692 1142.9 28.9711 1142.9 29.068H1143.21ZM1143.25 28.8766C1143.89 26.948 1145.73 26.0776 1147.93 26.0776V25.7704C1145.66 25.7704 1143.66 26.676 1142.96 28.7794L1143.25 28.8766ZM1147.93 26.0776C1150.04 26.0776 1151.37 26.9413 1151.99 28.315L1152.27 28.189C1151.59 26.6827 1150.13 25.7704 1147.93 25.7704V26.0776ZM1152.25 28.34C1153.27 26.8773 1155.12 26.0536 1157.09 26.0536V25.7464C1155.04 25.7464 1153.09 26.6027 1152 28.164L1152.25 28.34ZM1157.09 26.0536C1158.54 26.0536 1160.06 26.5239 1161.21 27.4879C1162.36 28.4486 1163.16 29.9054 1163.16 31.9H1163.46C1163.46 29.8146 1162.63 28.2714 1161.41 27.2521C1160.19 26.2361 1158.6 25.7464 1157.09 25.7464V26.0536ZM1163.16 31.9C1163.16 32.2168 1163.14 32.473 1163.07 32.6495C1163.03 32.7327 1162.98 32.7913 1162.92 32.8305C1162.86 32.8701 1162.77 32.8984 1162.64 32.8984V33.2056C1162.82 33.2056 1162.97 33.1679 1163.09 33.089C1163.21 33.0097 1163.29 32.8973 1163.35 32.7705C1163.45 32.527 1163.46 32.2072 1163.46 31.9H1163.16ZM1162.64 32.8984H1152.77V33.2056H1162.64V32.8984ZM1152.62 33.0712C1152.97 35.8139 1154.95 37.2616 1157.12 37.2616V36.9544C1155.11 36.9544 1153.25 35.6181 1152.93 33.0328L1152.62 33.0712ZM1157.12 37.2616C1158.85 37.2616 1160.2 36.3928 1160.9 35.1934L1160.63 35.0386C1159.99 36.1432 1158.74 36.9544 1157.12 36.9544V37.2616ZM1160.9 35.1896C1161.02 34.9672 1161.26 34.8136 1161.49 34.8136V34.5064C1161.13 34.5064 1160.8 34.7368 1160.63 35.0424L1160.9 35.1896ZM1161.49 34.8136H1162.06V34.5064H1161.49V34.8136ZM1162.06 34.8136C1162.27 34.8136 1162.42 34.8626 1162.51 34.9332C1162.6 35.0006 1162.65 35.0931 1162.65 35.212H1162.96C1162.96 34.9949 1162.86 34.8114 1162.7 34.6868C1162.53 34.5654 1162.31 34.5064 1162.06 34.5064V34.8136ZM1162.65 35.212C1162.65 35.2966 1162.62 35.4151 1162.55 35.5513L1162.82 35.6887C1162.9 35.5369 1162.96 35.3674 1162.96 35.212H1162.65ZM1162.55 35.5488C1161.5 37.5583 1159.54 38.7064 1157.09 38.7064V39.0136C1159.64 39.0136 1161.71 37.8097 1162.82 35.6912L1162.55 35.5488ZM1157.09 38.7064C1155 38.7064 1152.97 37.7428 1151.9 35.9492L1151.63 36.1068C1152.77 38.0092 1154.91 39.0136 1157.09 39.0136V38.7064ZM1151.64 35.9417C1150.4 37.7696 1148.57 38.7064 1146.29 38.7064V39.0136C1148.67 39.0136 1150.59 38.0304 1151.89 36.1143L1151.64 35.9417ZM1146.29 38.7064C1145.29 38.7064 1144.37 38.4145 1143.71 37.8629C1143.05 37.314 1142.63 36.4999 1142.63 35.428H1142.32C1142.32 36.5881 1142.78 37.49 1143.51 38.0991C1144.24 38.7055 1145.23 39.0136 1146.29 39.0136V38.7064ZM1142.63 35.428C1142.63 34.0401 1143.19 33.2191 1144.01 32.6985C1144.84 32.1691 1145.94 31.944 1147.04 31.7881L1146.99 31.4839C1145.9 31.64 1144.74 31.8709 1143.84 32.4395C1142.94 33.0169 1142.32 33.9359 1142.32 35.428H1142.63ZM1150.79 33.964V32.092H1150.48V33.964H1150.79ZM1150.53 31.9865C1150.35 32.1778 1150.08 32.3293 1149.74 32.448C1149.4 32.5664 1149 32.6486 1148.58 32.7079L1148.62 33.0121C1149.06 32.9514 1149.48 32.8656 1149.84 32.738C1150.2 32.6107 1150.52 32.4382 1150.75 32.1975L1150.53 31.9865ZM1148.57 32.7082L1147.33 32.9002L1147.37 33.2038L1148.62 33.0118L1148.57 32.7082ZM1147.33 32.9002C1146.61 33.0089 1145.9 33.1868 1145.36 33.5554C1144.82 33.9315 1144.46 34.5005 1144.46 35.356H1144.77C1144.77 34.6035 1145.07 34.1285 1145.54 33.8086C1146.01 33.4812 1146.67 33.3111 1147.37 33.2038L1147.33 32.9002ZM1144.46 35.356C1144.46 35.9946 1144.69 36.5086 1145.11 36.8599C1145.52 37.2081 1146.11 37.3816 1146.82 37.3816V37.0744C1146.16 37.0744 1145.65 36.9119 1145.3 36.6241C1144.96 36.3394 1144.77 35.9174 1144.77 35.356H1144.46ZM1146.82 37.3816C1147.72 37.3816 1148.71 37.007 1149.47 36.4001C1150.24 35.7933 1150.79 34.9372 1150.79 33.964H1150.48C1150.48 34.8148 1150 35.5907 1149.28 36.1599C1148.57 36.729 1147.65 37.0744 1146.82 37.0744V37.3816ZM1157.09 27.4984C1155.03 27.4984 1153.14 28.8938 1152.69 31.2717L1153 31.3283C1153.41 29.0982 1155.17 27.8056 1157.09 27.8056V27.4984ZM1152.85 31.4536H1161.32V31.1464H1152.85V31.4536ZM1161.47 31.2787C1161.12 28.7921 1159.15 27.4984 1157.09 27.4984V27.8056C1159.02 27.8056 1160.84 29.0079 1161.17 31.3213L1161.47 31.2787ZM1167.57 27.988H1167.42V28.4332L1167.7 28.0827L1167.57 27.988ZM1165.71 27.028C1165.71 26.8359 1165.78 26.6846 1165.88 26.5816C1165.98 26.4787 1166.13 26.4136 1166.33 26.4136V26.1064C1166.06 26.1064 1165.83 26.1973 1165.66 26.3644C1165.5 26.5314 1165.4 26.7641 1165.4 27.028H1165.71ZM1166.33 26.4136H1166.81V26.1064H1166.33V26.4136ZM1166.81 26.4136C1167 26.4136 1167.15 26.4787 1167.25 26.5816C1167.36 26.6846 1167.42 26.8359 1167.42 27.028H1167.73C1167.73 26.7641 1167.64 26.5314 1167.47 26.3644C1167.3 26.1973 1167.07 26.1064 1166.81 26.1064V26.4136ZM1167.42 27.028V27.988H1167.73V27.028H1167.42ZM1167.7 28.0827C1168.79 26.6822 1170.26 26.0536 1171.87 26.0536V25.7464C1170.17 25.7464 1168.61 26.4138 1167.45 27.8933L1167.7 28.0827ZM1171.87 26.0536C1173.37 26.0536 1174.44 26.5106 1175.13 27.2889C1175.82 28.0703 1176.16 29.1986 1176.16 30.58H1176.46C1176.46 29.1534 1176.12 27.9417 1175.36 27.0851C1174.6 26.2254 1173.44 25.7464 1171.87 25.7464V26.0536ZM1176.16 30.58V37.732H1176.46V30.58H1176.16ZM1176.16 37.732C1176.16 37.9241 1176.09 38.0754 1175.99 38.1784C1175.89 38.2813 1175.73 38.3464 1175.54 38.3464V38.6536C1175.81 38.6536 1176.04 38.5627 1176.21 38.3956C1176.37 38.2286 1176.46 37.9959 1176.46 37.732H1176.16ZM1175.54 38.3464H1174.99V38.6536H1175.54V38.3464ZM1174.99 38.3464C1174.8 38.3464 1174.65 38.2813 1174.54 38.1784C1174.44 38.0754 1174.38 37.9241 1174.38 37.732H1174.07C1174.07 37.9959 1174.16 38.2286 1174.33 38.3956C1174.49 38.5627 1174.73 38.6536 1174.99 38.6536V38.3464ZM1174.38 37.732V30.796H1174.07V37.732H1174.38ZM1174.38 30.796C1174.38 29.7981 1174.11 28.9766 1173.59 28.4032C1173.06 27.8279 1172.29 27.5224 1171.32 27.5224V27.8296C1172.22 27.8296 1172.9 28.1121 1173.36 28.6108C1173.82 29.1114 1174.07 29.8499 1174.07 30.796H1174.38ZM1171.32 27.5224C1169.32 27.5224 1167.49 29.1706 1167.49 31.348H1167.8C1167.8 29.3494 1169.48 27.8296 1171.32 27.8296V27.5224ZM1167.49 31.348V37.732H1167.8V31.348H1167.49ZM1167.49 37.732C1167.49 37.9241 1167.43 38.0754 1167.32 38.1784C1167.22 38.2813 1167.07 38.3464 1166.88 38.3464V38.6536C1167.14 38.6536 1167.37 38.5627 1167.54 38.3956C1167.71 38.2286 1167.8 37.9959 1167.8 37.732H1167.49ZM1166.88 38.3464H1166.33V38.6536H1166.88V38.3464ZM1166.33 38.3464C1166.13 38.3464 1165.98 38.2813 1165.88 38.1784C1165.78 38.0754 1165.71 37.9241 1165.71 37.732H1165.4C1165.4 37.9959 1165.5 38.2286 1165.66 38.3956C1165.83 38.5627 1166.06 38.6536 1166.33 38.6536V38.3464ZM1165.71 37.732V27.028H1165.4V37.732H1165.71ZM1178.73 32.38C1178.73 28.7677 1181.42 26.0536 1185 26.0536V25.7464C1181.25 25.7464 1178.42 28.6003 1178.42 32.38H1178.73ZM1185 26.0536C1188.57 26.0536 1191.28 28.7208 1191.28 32.38H1191.59C1191.59 28.5512 1188.74 25.7464 1185 25.7464V26.0536ZM1191.28 32.38C1191.28 36.0628 1188.57 38.7064 1185 38.7064V39.0136C1188.74 39.0136 1191.59 36.2332 1191.59 32.38H1191.28ZM1185 38.7064C1181.42 38.7064 1178.73 36.0159 1178.73 32.38H1178.42C1178.42 36.1841 1181.25 39.0136 1185 39.0136V38.7064ZM1180.53 32.38C1180.53 35.2869 1182.46 37.2616 1185 37.2616V36.9544C1182.65 36.9544 1180.84 35.1371 1180.84 32.38H1180.53ZM1185 37.2616C1187.52 37.2616 1189.48 35.2875 1189.48 32.38H1189.17C1189.17 35.1365 1187.33 36.9544 1185 36.9544V37.2616ZM1189.48 32.38C1189.48 29.4982 1187.57 27.4984 1185 27.4984V27.8056C1187.38 27.8056 1189.17 29.6458 1189.17 32.38H1189.48ZM1185 27.4984C1182.46 27.4984 1180.53 29.4976 1180.53 32.38H1180.84C1180.84 29.6464 1182.65 27.8056 1185 27.8056V27.4984Z" fill="#0C50FF" mask="url(#path-7-outside-2_83_420)"/>
<defs>
<clipPath id="clip0_83_420">
<rect width="20" height="20" fill="white" transform="translate(1078.5 20)"/>
</clipPath>
</defs>
</svg>
