<svg width="2144" height="61" viewBox="0 0 2144 61" fill="none" xmlns="http://www.w3.org/2000/svg">
<rect x="48" width="2048" height="61" rx="17" fill="#F5F4E3"/>
<rect width="262" height="21" transform="translate(941 20)" fill="#F5F4E3"/>
<mask id="path-2-outside-1_83_420" maskUnits="userSpaceOnUse" x="941" y="20.5" width="125" height="20" fill="black">
<rect fill="white" x="941" y="20.5" width="125" height="20"/>
<path d="M941.988 38.694V38.59L943.392 22.054C943.418 21.612 943.782 21.3 944.224 21.3H945.862C946.2 21.3 946.512 21.508 946.642 21.82L951.478 33.91L956.288 21.82C956.418 21.508 956.73 21.3 957.068 21.3H958.732C959.148 21.3 959.512 21.612 959.564 22.054L960.968 38.59V38.694C960.968 39.188 960.63 39.5 960.136 39.5H959.382C958.914 39.5 958.576 39.188 958.55 38.72L957.562 24.264L952.648 36.38C952.518 36.692 952.206 36.9 951.868 36.9H951.088C950.75 36.9 950.438 36.692 950.308 36.38L945.446 24.264L944.354 38.72C944.328 39.188 943.99 39.5 943.522 39.5H942.82C942.3 39.5 941.988 39.188 941.988 38.694ZM975.675 39.5H975.155C974.661 39.5 974.323 39.188 974.323 38.694V37.472C973.023 39.11 971.411 39.89 969.357 39.89C965.795 39.89 962.779 36.978 962.779 32.87C962.779 28.736 965.769 25.85 969.357 25.85C971.411 25.85 973.153 26.682 974.245 28.19V27.072C974.245 26.578 974.583 26.24 975.077 26.24H975.675C976.169 26.24 976.507 26.578 976.507 27.072V38.668C976.507 39.162 976.169 39.5 975.675 39.5ZM965.067 32.87C965.067 35.912 967.147 37.992 969.747 37.992C972.347 37.992 974.375 35.86 974.375 32.87C974.375 29.854 972.347 27.748 969.747 27.748C967.147 27.748 965.067 29.828 965.067 32.87ZM991.849 39.5H991.329C990.835 39.5 990.497 39.188 990.497 38.694V37.498C989.171 39.11 987.585 39.89 985.531 39.89C981.969 39.89 978.953 36.978 978.953 32.87C978.953 28.736 981.943 25.85 985.531 25.85C987.585 25.85 989.327 26.708 990.419 28.19V22.132C990.419 21.638 990.757 21.3 991.251 21.3H991.849C992.343 21.3 992.681 21.638 992.681 22.132V38.668C992.681 39.162 992.343 39.5 991.849 39.5ZM981.241 32.87C981.241 35.912 983.321 37.992 985.921 37.992C988.521 37.992 990.549 35.886 990.549 32.87C990.549 29.854 988.521 27.748 985.921 27.748C983.321 27.748 981.241 29.802 981.241 32.87ZM1008.07 33.598H997.389C997.753 36.484 999.833 37.992 1002.09 37.992C1003.91 37.992 1005.34 37.108 1006.05 35.834C1006.2 35.548 1006.51 35.34 1006.83 35.34H1007.45C1007.94 35.34 1008.26 35.574 1008.26 35.938C1008.26 36.068 1008.2 36.224 1008.13 36.38C1006.96 38.616 1004.77 39.89 1002.07 39.89C998.221 39.89 995.127 37.03 995.127 32.87C995.127 28.788 998.169 25.85 1002.07 25.85C1005.27 25.85 1008.8 27.93 1008.8 32.35C1008.8 33.026 1008.75 33.598 1008.07 33.598ZM1002.07 27.748C999.911 27.748 997.935 29.204 997.467 31.7H1006.64C1006.28 29.1 1004.23 27.748 1002.07 27.748ZM1016.62 27.332C1016.39 26.682 1016.7 26.24 1017.4 26.24H1018.29C1018.65 26.24 1018.99 26.474 1019.09 26.838L1022.01 36.926H1022.08L1025 26.838C1025.1 26.474 1025.44 26.24 1025.8 26.24H1027.18C1027.54 26.24 1027.88 26.474 1027.99 26.838L1030.95 36.926H1031.03L1033.94 26.838C1034.04 26.474 1034.38 26.24 1034.75 26.24H1035.55C1036.25 26.24 1036.57 26.682 1036.36 27.332L1032.41 38.928C1032.3 39.266 1031.99 39.5 1031.63 39.5H1030.38C1029.99 39.5 1029.68 39.266 1029.57 38.902L1026.5 28.71H1026.43L1023.38 38.902C1023.28 39.266 1022.97 39.5 1022.58 39.5H1021.38C1021.02 39.5 1020.71 39.266 1020.6 38.928L1016.62 27.332ZM1039.87 39.5H1039.27C1038.77 39.5 1038.44 39.162 1038.44 38.668V27.072C1038.44 26.578 1038.77 26.24 1039.27 26.24H1039.87C1040.36 26.24 1040.7 26.578 1040.7 27.072V38.668C1040.7 39.162 1040.36 39.5 1039.87 39.5ZM1039.55 24.134C1038.7 24.134 1038.1 23.484 1038.1 22.678C1038.1 21.872 1038.7 21.222 1039.55 21.222C1040.44 21.222 1041.04 21.872 1041.04 22.678C1041.04 23.484 1040.44 24.134 1039.55 24.134ZM1042.96 27.228V27.072C1042.96 26.578 1043.3 26.24 1043.79 26.24H1045.25V23.406C1045.25 22.912 1045.58 22.574 1046.08 22.574H1046.68C1047.17 22.574 1047.51 22.912 1047.51 23.406V26.24H1050.11C1050.6 26.24 1050.94 26.578 1050.94 27.072V27.228C1050.94 27.722 1050.6 28.06 1050.11 28.06H1047.51V36.12C1047.51 37.316 1047.9 37.94 1049.35 37.94C1049.72 37.94 1050.21 37.836 1050.68 37.836C1051.12 37.836 1051.41 38.096 1051.41 38.59V38.876C1051.41 39.734 1049.8 39.838 1048.99 39.838C1046.42 39.838 1045.25 38.876 1045.25 36.224V28.06H1043.79C1043.3 28.06 1042.96 27.722 1042.96 27.228ZM1053.87 38.668V22.132C1053.87 21.638 1054.21 21.3 1054.71 21.3H1055.3C1055.8 21.3 1056.14 21.638 1056.14 22.132V28.112C1057.23 26.578 1058.92 25.85 1060.76 25.85C1064.04 25.85 1065.52 27.878 1065.52 30.92V38.668C1065.52 39.162 1065.18 39.5 1064.69 39.5H1064.09C1063.6 39.5 1063.26 39.162 1063.26 38.668V31.18C1063.26 29.074 1062.17 27.774 1060.11 27.774C1058.03 27.774 1056.14 29.49 1056.14 31.778V38.668C1056.14 39.162 1055.8 39.5 1055.3 39.5H1054.71C1054.21 39.5 1053.87 39.162 1053.87 38.668Z"/>
</mask>
<path d="M941.988 38.694V38.59L943.392 22.054C943.418 21.612 943.782 21.3 944.224 21.3H945.862C946.2 21.3 946.512 21.508 946.642 21.82L951.478 33.91L956.288 21.82C956.418 21.508 956.73 21.3 957.068 21.3H958.732C959.148 21.3 959.512 21.612 959.564 22.054L960.968 38.59V38.694C960.968 39.188 960.63 39.5 960.136 39.5H959.382C958.914 39.5 958.576 39.188 958.55 38.72L957.562 24.264L952.648 36.38C952.518 36.692 952.206 36.9 951.868 36.9H951.088C950.75 36.9 950.438 36.692 950.308 36.38L945.446 24.264L944.354 38.72C944.328 39.188 943.99 39.5 943.522 39.5H942.82C942.3 39.5 941.988 39.188 941.988 38.694ZM975.675 39.5H975.155C974.661 39.5 974.323 39.188 974.323 38.694V37.472C973.023 39.11 971.411 39.89 969.357 39.89C965.795 39.89 962.779 36.978 962.779 32.87C962.779 28.736 965.769 25.85 969.357 25.85C971.411 25.85 973.153 26.682 974.245 28.19V27.072C974.245 26.578 974.583 26.24 975.077 26.24H975.675C976.169 26.24 976.507 26.578 976.507 27.072V38.668C976.507 39.162 976.169 39.5 975.675 39.5ZM965.067 32.87C965.067 35.912 967.147 37.992 969.747 37.992C972.347 37.992 974.375 35.86 974.375 32.87C974.375 29.854 972.347 27.748 969.747 27.748C967.147 27.748 965.067 29.828 965.067 32.87ZM991.849 39.5H991.329C990.835 39.5 990.497 39.188 990.497 38.694V37.498C989.171 39.11 987.585 39.89 985.531 39.89C981.969 39.89 978.953 36.978 978.953 32.87C978.953 28.736 981.943 25.85 985.531 25.85C987.585 25.85 989.327 26.708 990.419 28.19V22.132C990.419 21.638 990.757 21.3 991.251 21.3H991.849C992.343 21.3 992.681 21.638 992.681 22.132V38.668C992.681 39.162 992.343 39.5 991.849 39.5ZM981.241 32.87C981.241 35.912 983.321 37.992 985.921 37.992C988.521 37.992 990.549 35.886 990.549 32.87C990.549 29.854 988.521 27.748 985.921 27.748C983.321 27.748 981.241 29.802 981.241 32.87ZM1008.07 33.598H997.389C997.753 36.484 999.833 37.992 1002.09 37.992C1003.91 37.992 1005.34 37.108 1006.05 35.834C1006.2 35.548 1006.51 35.34 1006.83 35.34H1007.45C1007.94 35.34 1008.26 35.574 1008.26 35.938C1008.26 36.068 1008.2 36.224 1008.13 36.38C1006.96 38.616 1004.77 39.89 1002.07 39.89C998.221 39.89 995.127 37.03 995.127 32.87C995.127 28.788 998.169 25.85 1002.07 25.85C1005.27 25.85 1008.8 27.93 1008.8 32.35C1008.8 33.026 1008.75 33.598 1008.07 33.598ZM1002.07 27.748C999.911 27.748 997.935 29.204 997.467 31.7H1006.64C1006.28 29.1 1004.23 27.748 1002.07 27.748ZM1016.62 27.332C1016.39 26.682 1016.7 26.24 1017.4 26.24H1018.29C1018.65 26.24 1018.99 26.474 1019.09 26.838L1022.01 36.926H1022.08L1025 26.838C1025.1 26.474 1025.44 26.24 1025.8 26.24H1027.18C1027.54 26.24 1027.88 26.474 1027.99 26.838L1030.95 36.926H1031.03L1033.94 26.838C1034.04 26.474 1034.38 26.24 1034.75 26.24H1035.55C1036.25 26.24 1036.57 26.682 1036.36 27.332L1032.41 38.928C1032.3 39.266 1031.99 39.5 1031.63 39.5H1030.38C1029.99 39.5 1029.68 39.266 1029.57 38.902L1026.5 28.71H1026.43L1023.38 38.902C1023.28 39.266 1022.97 39.5 1022.58 39.5H1021.38C1021.02 39.5 1020.71 39.266 1020.6 38.928L1016.62 27.332ZM1039.87 39.5H1039.27C1038.77 39.5 1038.44 39.162 1038.44 38.668V27.072C1038.44 26.578 1038.77 26.24 1039.27 26.24H1039.87C1040.36 26.24 1040.7 26.578 1040.7 27.072V38.668C1040.7 39.162 1040.36 39.5 1039.87 39.5ZM1039.55 24.134C1038.7 24.134 1038.1 23.484 1038.1 22.678C1038.1 21.872 1038.7 21.222 1039.55 21.222C1040.44 21.222 1041.04 21.872 1041.04 22.678C1041.04 23.484 1040.44 24.134 1039.55 24.134ZM1042.96 27.228V27.072C1042.96 26.578 1043.3 26.24 1043.79 26.24H1045.25V23.406C1045.25 22.912 1045.58 22.574 1046.08 22.574H1046.68C1047.17 22.574 1047.51 22.912 1047.51 23.406V26.24H1050.11C1050.6 26.24 1050.94 26.578 1050.94 27.072V27.228C1050.94 27.722 1050.6 28.06 1050.11 28.06H1047.51V36.12C1047.51 37.316 1047.9 37.94 1049.35 37.94C1049.72 37.94 1050.21 37.836 1050.68 37.836C1051.12 37.836 1051.41 38.096 1051.41 38.59V38.876C1051.41 39.734 1049.8 39.838 1048.99 39.838C1046.42 39.838 1045.25 38.876 1045.25 36.224V28.06H1043.79C1043.3 28.06 1042.96 27.722 1042.96 27.228ZM1053.87 38.668V22.132C1053.87 21.638 1054.21 21.3 1054.71 21.3H1055.3C1055.8 21.3 1056.14 21.638 1056.14 22.132V28.112C1057.23 26.578 1058.92 25.85 1060.76 25.85C1064.04 25.85 1065.52 27.878 1065.52 30.92V38.668C1065.52 39.162 1065.18 39.5 1064.69 39.5H1064.09C1063.6 39.5 1063.26 39.162 1063.26 38.668V31.18C1063.26 29.074 1062.17 27.774 1060.11 27.774C1058.03 27.774 1056.14 29.49 1056.14 31.778V38.668C1056.14 39.162 1055.8 39.5 1055.3 39.5H1054.71C1054.21 39.5 1053.87 39.162 1053.87 38.668Z" fill="#0C50FF"/>
<path d="M941.988 38.59L941.834 38.577V38.59H941.988ZM943.392 22.054L943.545 22.067L943.545 22.063L943.392 22.054ZM946.642 21.82L946.785 21.7629L946.784 21.7609L946.642 21.82ZM951.478 33.91L951.335 33.967L951.478 34.3246L951.621 33.9668L951.478 33.91ZM956.288 21.82L956.146 21.7609L956.145 21.7632L956.288 21.82ZM959.564 22.054L959.717 22.041L959.717 22.0361L959.564 22.054ZM960.968 38.59H961.122L961.121 38.577L960.968 38.59ZM958.55 38.72L958.703 38.7115L958.703 38.7095L958.55 38.72ZM957.562 24.264L957.715 24.2535L957.42 24.2063L957.562 24.264ZM952.648 36.38L952.79 36.4391L952.79 36.4377L952.648 36.38ZM950.308 36.38L950.165 36.4372L950.166 36.4391L950.308 36.38ZM945.446 24.264L945.589 24.2068L945.293 24.2524L945.446 24.264ZM944.354 38.72L944.201 38.7084L944.201 38.7115L944.354 38.72ZM942.142 38.694V38.59H941.834V38.694H942.142ZM942.141 38.603L943.545 22.067L943.239 22.041L941.835 38.577L942.141 38.603ZM943.545 22.063C943.566 21.71 943.855 21.4536 944.224 21.4536V21.1464C943.709 21.1464 943.27 21.514 943.239 22.045L943.545 22.063ZM944.224 21.4536H945.862V21.1464H944.224V21.4536ZM945.862 21.4536C946.138 21.4536 946.394 21.6243 946.5 21.8791L946.784 21.7609C946.63 21.3917 946.262 21.1464 945.862 21.1464V21.4536ZM946.499 21.877L951.335 33.967L951.621 33.853L946.785 21.763L946.499 21.877ZM951.621 33.9668L956.431 21.8768L956.145 21.7632L951.335 33.8532L951.621 33.9668ZM956.43 21.8791C956.536 21.6243 956.792 21.4536 957.068 21.4536V21.1464C956.668 21.1464 956.3 21.3917 956.146 21.7609L956.43 21.8791ZM957.068 21.4536H958.732V21.1464H957.068V21.4536ZM958.732 21.4536C959.07 21.4536 959.369 21.707 959.411 22.0719L959.717 22.0361C959.655 21.517 959.226 21.1464 958.732 21.1464V21.4536ZM959.411 22.067L960.815 38.603L961.121 38.577L959.717 22.041L959.411 22.067ZM960.814 38.59V38.694H961.122V38.59H960.814ZM960.814 38.694C960.814 38.9046 960.743 39.0641 960.631 39.1712C960.518 39.2791 960.351 39.3464 960.136 39.3464V39.6536C960.415 39.6536 960.664 39.5649 960.843 39.3933C961.024 39.2209 961.122 38.9774 961.122 38.694H960.814ZM960.136 39.3464H959.382V39.6536H960.136V39.3464ZM959.382 39.3464C959.183 39.3464 959.02 39.2805 958.905 39.1732C958.79 39.0661 958.714 38.9095 958.703 38.7115L958.397 38.7285C958.412 38.9985 958.518 39.2319 958.695 39.3978C958.873 39.5635 959.113 39.6536 959.382 39.6536V39.3464ZM958.703 38.7095L957.715 24.2535L957.409 24.2745L958.397 38.7305L958.703 38.7095ZM957.42 24.2063L952.506 36.3223L952.79 36.4377L957.704 24.3217L957.42 24.2063ZM952.506 36.3209C952.4 36.5757 952.144 36.7464 951.868 36.7464V37.0536C952.268 37.0536 952.636 36.8083 952.79 36.4391L952.506 36.3209ZM951.868 36.7464H951.088V37.0536H951.868V36.7464ZM951.088 36.7464C950.812 36.7464 950.556 36.5757 950.45 36.3209L950.166 36.4391C950.32 36.8083 950.688 37.0536 951.088 37.0536V36.7464ZM950.451 36.3228L945.589 24.2068L945.303 24.3212L950.165 36.4372L950.451 36.3228ZM945.293 24.2524L944.201 38.7084L944.507 38.7316L945.599 24.2756L945.293 24.2524ZM944.201 38.7115C944.19 38.9095 944.114 39.0661 943.999 39.1732C943.884 39.2805 943.721 39.3464 943.522 39.3464V39.6536C943.791 39.6536 944.031 39.5635 944.209 39.3978C944.386 39.2319 944.492 38.9985 944.507 38.7285L944.201 38.7115ZM943.522 39.3464H942.82V39.6536H943.522V39.3464ZM942.82 39.3464C942.591 39.3464 942.425 39.2782 942.316 39.1724C942.208 39.067 942.142 38.9081 942.142 38.694H941.834C941.834 38.9739 941.924 39.218 942.102 39.3921C942.279 39.5658 942.529 39.6536 942.82 39.6536V39.3464ZM974.323 37.472H974.477V37.0314L974.203 37.3765L974.323 37.472ZM974.245 28.19L974.121 28.2801L974.399 28.664V28.19H974.245ZM975.675 39.3464H975.155V39.6536H975.675V39.3464ZM975.155 39.3464C974.941 39.3464 974.773 39.2791 974.66 39.1712C974.548 39.0641 974.477 38.9046 974.477 38.694H974.17C974.17 38.9774 974.268 39.2209 974.448 39.3933C974.627 39.5649 974.876 39.6536 975.155 39.6536V39.3464ZM974.477 38.694V37.472H974.17V38.694H974.477ZM974.203 37.3765C972.932 38.9783 971.364 39.7364 969.357 39.7364V40.0436C971.459 40.0436 973.115 39.2417 974.444 37.5675L974.203 37.3765ZM969.357 39.7364C965.885 39.7364 962.933 36.8982 962.933 32.87H962.626C962.626 37.0578 965.705 40.0436 969.357 40.0436V39.7364ZM962.933 32.87C962.933 28.8158 965.859 26.0036 969.357 26.0036V25.6964C965.679 25.6964 962.626 28.6562 962.626 32.87H962.933ZM969.357 26.0036C971.368 26.0036 973.061 26.8167 974.121 28.2801L974.37 28.0999C973.245 26.5473 971.454 25.6964 969.357 25.6964V26.0036ZM974.399 28.19V27.072H974.092V28.19H974.399ZM974.399 27.072C974.399 26.8609 974.47 26.6936 974.585 26.5794C974.699 26.4652 974.866 26.3936 975.077 26.3936V26.0864C974.794 26.0864 974.546 26.1838 974.367 26.3621C974.189 26.5404 974.092 26.7891 974.092 27.072H974.399ZM975.077 26.3936H975.675V26.0864H975.077V26.3936ZM975.675 26.3936C975.886 26.3936 976.054 26.4652 976.168 26.5794C976.282 26.6936 976.354 26.8609 976.354 27.072H976.661C976.661 26.7891 976.563 26.5404 976.385 26.3621C976.207 26.1838 975.958 26.0864 975.675 26.0864V26.3936ZM976.354 27.072V38.668H976.661V27.072H976.354ZM976.354 38.668C976.354 38.8791 976.282 39.0464 976.168 39.1606C976.054 39.2748 975.886 39.3464 975.675 39.3464V39.6536C975.958 39.6536 976.207 39.5562 976.385 39.3779C976.563 39.1996 976.661 38.9509 976.661 38.668H976.354ZM964.914 32.87C964.914 35.9875 967.053 38.1456 969.747 38.1456V37.8384C967.241 37.8384 965.221 35.8365 965.221 32.87H964.914ZM969.747 38.1456C972.444 38.1456 974.529 35.9321 974.529 32.87H974.222C974.222 35.7879 972.25 37.8384 969.747 37.8384V38.1456ZM974.529 32.87C974.529 29.7813 972.444 27.5944 969.747 27.5944V27.9016C972.251 27.9016 974.222 29.9267 974.222 32.87H974.529ZM969.747 27.5944C967.053 27.5944 964.914 29.7525 964.914 32.87H965.221C965.221 29.9035 967.241 27.9016 969.747 27.9016V27.5944ZM990.497 37.498H990.651V37.0695L990.378 37.4004L990.497 37.498ZM990.419 28.19L990.295 28.2811L990.573 28.6574V28.19H990.419ZM991.849 39.3464H991.329V39.6536H991.849V39.3464ZM991.329 39.3464C991.115 39.3464 990.947 39.2791 990.834 39.1712C990.722 39.0641 990.651 38.9046 990.651 38.694H990.343C990.343 38.9774 990.441 39.2209 990.622 39.3933C990.801 39.5649 991.05 39.6536 991.329 39.6536V39.3464ZM990.651 38.694V37.498H990.343V38.694H990.651ZM990.378 37.4004C989.08 38.9787 987.537 39.7364 985.531 39.7364V40.0436C987.633 40.0436 989.262 39.2413 990.616 37.5956L990.378 37.4004ZM985.531 39.7364C982.059 39.7364 979.107 36.8982 979.107 32.87H978.799C978.799 37.0578 981.879 40.0436 985.531 40.0436V39.7364ZM979.107 32.87C979.107 28.8158 982.033 26.0036 985.531 26.0036V25.6964C981.853 25.6964 978.799 28.6562 978.799 32.87H979.107ZM985.531 26.0036C987.541 26.0036 989.235 26.8418 990.295 28.2811L990.543 28.0989C989.419 26.5742 987.63 25.6964 985.531 25.6964V26.0036ZM990.573 28.19V22.132H990.265V28.19H990.573ZM990.573 22.132C990.573 21.9209 990.644 21.7536 990.758 21.6394C990.873 21.5252 991.04 21.4536 991.251 21.4536V21.1464C990.968 21.1464 990.72 21.2438 990.541 21.4221C990.363 21.6004 990.265 21.8491 990.265 22.132H990.573ZM991.251 21.4536H991.849V21.1464H991.251V21.4536ZM991.849 21.4536C992.06 21.4536 992.228 21.5252 992.342 21.6394C992.456 21.7536 992.527 21.9209 992.527 22.132H992.835C992.835 21.8491 992.737 21.6004 992.559 21.4221C992.381 21.2438 992.132 21.1464 991.849 21.1464V21.4536ZM992.527 22.132V38.668H992.835V22.132H992.527ZM992.527 38.668C992.527 38.8791 992.456 39.0464 992.342 39.1606C992.228 39.2748 992.06 39.3464 991.849 39.3464V39.6536C992.132 39.6536 992.381 39.5562 992.559 39.3779C992.737 39.1996 992.835 38.9509 992.835 38.668H992.527ZM981.087 32.87C981.087 35.9875 983.227 38.1456 985.921 38.1456V37.8384C983.415 37.8384 981.395 35.8365 981.395 32.87H981.087ZM985.921 38.1456C988.618 38.1456 990.703 35.9587 990.703 32.87H990.395C990.395 35.8133 988.425 37.8384 985.921 37.8384V38.1456ZM990.703 32.87C990.703 29.7813 988.618 27.5944 985.921 27.5944V27.9016C988.425 27.9016 990.395 29.9267 990.395 32.87H990.703ZM985.921 27.5944C983.228 27.5944 981.087 29.7259 981.087 32.87H981.395C981.395 29.8781 983.414 27.9016 985.921 27.9016V27.5944ZM997.389 33.598V33.4444H997.215L997.237 33.6172L997.389 33.598ZM1006.05 35.834L1006.18 35.9081L1006.18 35.9076L1006.05 35.834ZM1008.13 36.38L1008.26 36.4512L1008.26 36.4487L1008.13 36.38ZM997.467 31.7L997.316 31.6717L997.282 31.8536H997.467V31.7ZM1006.64 31.7V31.8536H1006.82L1006.8 31.6787L1006.64 31.7ZM1008.07 33.4444H997.389V33.7516H1008.07V33.4444ZM997.237 33.6172C997.61 36.5819 999.757 38.1456 1002.09 38.1456V37.8384C999.908 37.8384 997.895 36.3861 997.541 33.5788L997.237 33.6172ZM1002.09 38.1456C1003.97 38.1456 1005.45 37.2351 1006.18 35.9081L1005.91 35.7599C1005.24 36.9809 1003.86 37.8384 1002.09 37.8384V38.1456ZM1006.18 35.9076C1006.32 35.6632 1006.58 35.4936 1006.83 35.4936V35.1864C1006.45 35.1864 1006.09 35.4328 1005.91 35.7604L1006.18 35.9076ZM1006.83 35.4936H1007.45V35.1864H1006.83V35.4936ZM1007.45 35.4936C1007.68 35.4936 1007.84 35.5471 1007.95 35.6257C1008.05 35.7011 1008.1 35.8051 1008.1 35.938H1008.41C1008.41 35.7069 1008.31 35.5119 1008.13 35.3793C1007.96 35.2499 1007.72 35.1864 1007.45 35.1864V35.4936ZM1008.1 35.938C1008.1 36.0326 1008.06 36.1631 1007.99 36.3113L1008.26 36.4487C1008.35 36.2849 1008.41 36.1034 1008.41 35.938H1008.1ZM1007.99 36.3088C1006.85 38.4903 1004.72 39.7364 1002.07 39.7364V40.0436C1004.83 40.0436 1007.06 38.7417 1008.26 36.4512L1007.99 36.3088ZM1002.07 39.7364C998.303 39.7364 995.281 36.9429 995.281 32.87H994.973C994.973 37.1171 998.138 40.0436 1002.07 40.0436V39.7364ZM995.281 32.87C995.281 28.8732 998.253 26.0036 1002.07 26.0036V25.6964C998.084 25.6964 994.973 28.7028 994.973 32.87H995.281ZM1002.07 26.0036C1003.64 26.0036 1005.28 26.5139 1006.54 27.5604C1007.79 28.6036 1008.65 30.1854 1008.65 32.35H1008.96C1008.96 30.0946 1008.05 28.4264 1006.73 27.3246C1005.42 26.2261 1003.7 25.6964 1002.07 25.6964V26.0036ZM1008.65 32.35C1008.65 32.6928 1008.63 32.973 1008.55 33.167C1008.51 33.259 1008.46 33.3246 1008.39 33.3688C1008.32 33.4134 1008.22 33.4444 1008.07 33.4444V33.7516C1008.27 33.7516 1008.43 33.7111 1008.56 33.6273C1008.69 33.5431 1008.78 33.4235 1008.83 33.288C1008.95 33.027 1008.96 32.6832 1008.96 32.35H1008.65ZM1002.07 27.5944C999.838 27.5944 997.798 29.1018 997.316 31.6717L997.618 31.7283C998.072 29.3062 999.984 27.9016 1002.07 27.9016V27.5944ZM997.467 31.8536H1006.64V31.5464H997.467V31.8536ZM1006.8 31.6787C1006.42 28.9921 1004.29 27.5944 1002.07 27.5944V27.9016C1004.16 27.9016 1006.14 29.2079 1006.49 31.7213L1006.8 31.6787ZM1016.62 27.332L1016.77 27.2822L1016.77 27.28L1016.62 27.332ZM1019.09 26.838L1018.95 26.8802L1018.95 26.8806L1019.09 26.838ZM1022.01 36.926L1021.86 36.9686L1021.89 37.0796H1022.01V36.926ZM1022.08 36.926V37.0796H1022.2L1022.23 36.9686L1022.08 36.926ZM1025 26.838L1025.14 26.8806L1025.14 26.8802L1025 26.838ZM1027.99 26.838L1027.84 26.8802L1027.84 26.8813L1027.99 26.838ZM1030.95 36.926L1030.8 36.9693L1030.84 37.0796H1030.95V36.926ZM1031.03 36.926V37.0796H1031.14L1031.18 36.9686L1031.03 36.926ZM1033.94 26.838L1034.09 26.8806L1034.09 26.8802L1033.94 26.838ZM1036.36 27.332L1036.5 27.3816L1036.51 27.3788L1036.36 27.332ZM1032.41 38.928L1032.26 38.8784L1032.26 38.8828L1032.41 38.928ZM1029.57 38.902L1029.72 38.8598L1029.72 38.8577L1029.57 38.902ZM1026.5 28.71L1026.65 28.6657L1026.62 28.5564H1026.5V28.71ZM1026.43 28.71V28.5564H1026.31L1026.28 28.6661L1026.43 28.71ZM1023.38 38.902L1023.24 38.8581L1023.24 38.8598L1023.38 38.902ZM1020.6 38.928L1020.75 38.8828L1020.75 38.8782L1020.6 38.928ZM1016.77 27.28C1016.66 26.9832 1016.69 26.7679 1016.79 26.6313C1016.89 26.4943 1017.08 26.3936 1017.4 26.3936V26.0864C1017.02 26.0864 1016.71 26.2067 1016.54 26.4532C1016.36 26.7001 1016.35 27.0308 1016.48 27.384L1016.77 27.28ZM1017.4 26.3936H1018.29V26.0864H1017.4V26.3936ZM1018.29 26.3936C1018.59 26.3936 1018.86 26.5864 1018.95 26.8802L1019.24 26.7958C1019.12 26.3616 1018.72 26.0864 1018.29 26.0864V26.3936ZM1018.95 26.8806L1021.86 36.9686L1022.15 36.8834L1019.24 26.7954L1018.95 26.8806ZM1022.01 37.0796H1022.08V36.7724H1022.01V37.0796ZM1022.23 36.9686L1025.14 26.8806L1024.85 26.7954L1021.94 36.8834L1022.23 36.9686ZM1025.14 26.8802C1025.23 26.5864 1025.5 26.3936 1025.8 26.3936V26.0864C1025.37 26.0864 1024.97 26.3616 1024.85 26.7958L1025.14 26.8802ZM1025.8 26.3936H1027.18V26.0864H1025.8V26.3936ZM1027.18 26.3936C1027.48 26.3936 1027.76 26.5864 1027.84 26.8802L1028.13 26.7958C1028.01 26.3616 1027.61 26.0864 1027.18 26.0864V26.3936ZM1027.84 26.8813L1030.8 36.9693L1031.1 36.8827L1028.13 26.7947L1027.84 26.8813ZM1030.95 37.0796H1031.03V36.7724H1030.95V37.0796ZM1031.18 36.9686L1034.09 26.8806L1033.79 26.7954L1030.88 36.8834L1031.18 36.9686ZM1034.09 26.8802C1034.17 26.5864 1034.45 26.3936 1034.75 26.3936V26.0864C1034.32 26.0864 1033.92 26.3616 1033.79 26.7958L1034.09 26.8802ZM1034.75 26.3936H1035.55V26.0864H1034.75V26.3936ZM1035.55 26.3936C1035.87 26.3936 1036.07 26.494 1036.17 26.6327C1036.27 26.7716 1036.31 26.9886 1036.21 27.2852L1036.51 27.3788C1036.62 27.0254 1036.6 26.6964 1036.42 26.4518C1036.24 26.207 1035.93 26.0864 1035.55 26.0864V26.3936ZM1036.21 27.2824L1032.26 38.8784L1032.55 38.9776L1036.5 27.3815L1036.21 27.2824ZM1032.26 38.8828C1032.18 39.1563 1031.92 39.3464 1031.63 39.3464V39.6536C1032.06 39.6536 1032.43 39.3757 1032.55 38.9732L1032.26 38.8828ZM1031.63 39.3464H1030.38V39.6536H1031.63V39.3464ZM1030.38 39.3464C1030.06 39.3464 1029.81 39.1563 1029.72 38.8598L1029.43 38.9442C1029.55 39.3757 1029.92 39.6536 1030.38 39.6536V39.3464ZM1029.72 38.8577L1026.65 28.6657L1026.36 28.7543L1029.43 38.9463L1029.72 38.8577ZM1026.5 28.5564H1026.43V28.8636H1026.5V28.5564ZM1026.28 28.6661L1023.24 38.8581L1023.53 38.9459L1026.57 28.7539L1026.28 28.6661ZM1023.24 38.8598C1023.15 39.1563 1022.9 39.3464 1022.58 39.3464V39.6536C1023.04 39.6536 1023.41 39.3757 1023.53 38.9442L1023.24 38.8598ZM1022.58 39.3464H1021.38V39.6536H1022.58V39.3464ZM1021.38 39.3464C1021.09 39.3464 1020.83 39.1563 1020.75 38.8828L1020.46 38.9732C1020.58 39.3757 1020.95 39.6536 1021.38 39.6536V39.3464ZM1020.75 38.8782L1016.77 27.2822L1016.48 27.3818L1020.46 38.9778L1020.75 38.8782ZM1039.87 39.3464H1039.27V39.6536H1039.87V39.3464ZM1039.27 39.3464C1039.06 39.3464 1038.89 39.2748 1038.78 39.1606C1038.66 39.0464 1038.59 38.8791 1038.59 38.668H1038.28C1038.28 38.9509 1038.38 39.1996 1038.56 39.3779C1038.74 39.5562 1038.99 39.6536 1039.27 39.6536V39.3464ZM1038.59 38.668V27.072H1038.28V38.668H1038.59ZM1038.59 27.072C1038.59 26.8609 1038.66 26.6936 1038.78 26.5794C1038.89 26.4652 1039.06 26.3936 1039.27 26.3936V26.0864C1038.99 26.0864 1038.74 26.1838 1038.56 26.3621C1038.38 26.5404 1038.28 26.7891 1038.28 27.072H1038.59ZM1039.27 26.3936H1039.87V26.0864H1039.27V26.3936ZM1039.87 26.3936C1040.08 26.3936 1040.24 26.4652 1040.36 26.5794C1040.47 26.6936 1040.54 26.8609 1040.54 27.072H1040.85C1040.85 26.7891 1040.75 26.5404 1040.58 26.3621C1040.4 26.1838 1040.15 26.0864 1039.87 26.0864V26.3936ZM1040.54 27.072V38.668H1040.85V27.072H1040.54ZM1040.54 38.668C1040.54 38.8791 1040.47 39.0464 1040.36 39.1606C1040.24 39.2748 1040.08 39.3464 1039.87 39.3464V39.6536C1040.15 39.6536 1040.4 39.5562 1040.58 39.3779C1040.75 39.1996 1040.85 38.9509 1040.85 38.668H1040.54ZM1039.55 23.9804C1038.78 23.9804 1038.25 23.4028 1038.25 22.678H1037.94C1037.94 23.5652 1038.61 24.2876 1039.55 24.2876V23.9804ZM1038.25 22.678C1038.25 21.9532 1038.78 21.3756 1039.55 21.3756V21.0684C1038.61 21.0684 1037.94 21.7908 1037.94 22.678H1038.25ZM1039.55 21.3756C1040.35 21.3756 1040.88 21.955 1040.88 22.678H1041.19C1041.19 21.789 1040.52 21.0684 1039.55 21.0684V21.3756ZM1040.88 22.678C1040.88 23.401 1040.35 23.9804 1039.55 23.9804V24.2876C1040.52 24.2876 1041.19 23.567 1041.19 22.678H1040.88ZM1045.25 26.24V26.3936H1045.4V26.24H1045.25ZM1047.51 26.24H1047.35V26.3936H1047.51V26.24ZM1047.51 28.06V27.9064H1047.35V28.06H1047.51ZM1045.25 28.06H1045.4V27.9064H1045.25V28.06ZM1043.11 27.228V27.072H1042.8V27.228H1043.11ZM1043.11 27.072C1043.11 26.8609 1043.18 26.6936 1043.3 26.5794C1043.41 26.4652 1043.58 26.3936 1043.79 26.3936V26.0864C1043.51 26.0864 1043.26 26.1838 1043.08 26.3621C1042.9 26.5404 1042.8 26.7891 1042.8 27.072H1043.11ZM1043.79 26.3936H1045.25V26.0864H1043.79V26.3936ZM1045.4 26.24V23.406H1045.09V26.24H1045.4ZM1045.4 23.406C1045.4 23.1949 1045.47 23.0276 1045.59 22.9134C1045.7 22.7992 1045.87 22.7276 1046.08 22.7276V22.4204C1045.8 22.4204 1045.55 22.5178 1045.37 22.6961C1045.19 22.8744 1045.09 23.1231 1045.09 23.406H1045.4ZM1046.08 22.7276H1046.68V22.4204H1046.08V22.7276ZM1046.68 22.7276C1046.89 22.7276 1047.06 22.7992 1047.17 22.9134C1047.28 23.0276 1047.35 23.1949 1047.35 23.406H1047.66C1047.66 23.1231 1047.56 22.8744 1047.39 22.6961C1047.21 22.5178 1046.96 22.4204 1046.68 22.4204V22.7276ZM1047.35 23.406V26.24H1047.66V23.406H1047.35ZM1047.51 26.3936H1050.11V26.0864H1047.51V26.3936ZM1050.11 26.3936C1050.32 26.3936 1050.49 26.4652 1050.6 26.5794C1050.72 26.6936 1050.79 26.8609 1050.79 27.072H1051.09C1051.09 26.7891 1051 26.5404 1050.82 26.3621C1050.64 26.1838 1050.39 26.0864 1050.11 26.0864V26.3936ZM1050.79 27.072V27.228H1051.09V27.072H1050.79ZM1050.79 27.228C1050.79 27.4391 1050.72 27.6064 1050.6 27.7206C1050.49 27.8348 1050.32 27.9064 1050.11 27.9064V28.2136C1050.39 28.2136 1050.64 28.1162 1050.82 27.9379C1051 27.7596 1051.09 27.5109 1051.09 27.228H1050.79ZM1050.11 27.9064H1047.51V28.2136H1050.11V27.9064ZM1047.35 28.06V36.12H1047.66V28.06H1047.35ZM1047.35 36.12C1047.35 36.7276 1047.45 37.2326 1047.77 37.5822C1048.09 37.9348 1048.61 38.0936 1049.35 38.0936V37.7864C1048.64 37.7864 1048.24 37.6332 1048 37.3748C1047.76 37.1134 1047.66 36.7084 1047.66 36.12H1047.35ZM1049.35 38.0936C1049.55 38.0936 1049.77 38.0662 1050 38.0406C1050.22 38.0145 1050.46 37.9896 1050.68 37.9896V37.6824C1050.44 37.6824 1050.19 37.7095 1049.96 37.7354C1049.73 37.7618 1049.53 37.7864 1049.35 37.7864V38.0936ZM1050.68 37.9896C1050.87 37.9896 1051.01 38.0453 1051.1 38.1364C1051.19 38.2273 1051.25 38.3725 1051.25 38.59H1051.56C1051.56 38.3135 1051.48 38.0817 1051.32 37.9191C1051.16 37.7567 1050.93 37.6824 1050.68 37.6824V37.9896ZM1051.25 38.59V38.876H1051.56V38.59H1051.25ZM1051.25 38.876C1051.25 39.0342 1051.18 39.1604 1051.05 39.2681C1050.91 39.3796 1050.71 39.4661 1050.46 39.5303C1049.98 39.6583 1049.39 39.6844 1048.99 39.6844V39.9916C1049.4 39.9916 1050.02 39.9657 1050.54 39.8272C1050.8 39.7581 1051.05 39.6578 1051.24 39.5084C1051.43 39.3554 1051.56 39.1468 1051.56 38.876H1051.25ZM1048.99 39.6844C1047.72 39.6844 1046.83 39.4452 1046.26 38.9131C1045.69 38.3833 1045.4 37.5315 1045.4 36.224H1045.09C1045.09 37.5685 1045.39 38.5237 1046.05 39.1379C1046.71 39.7498 1047.69 39.9916 1048.99 39.9916V39.6844ZM1045.4 36.224V28.06H1045.09V36.224H1045.4ZM1045.25 27.9064H1043.79V28.2136H1045.25V27.9064ZM1043.79 27.9064C1043.58 27.9064 1043.41 27.8348 1043.3 27.7206C1043.18 27.6064 1043.11 27.4391 1043.11 27.228H1042.8C1042.8 27.5109 1042.9 27.7596 1043.08 27.9379C1043.26 28.1162 1043.51 28.2136 1043.79 28.2136V27.9064ZM1056.14 28.112H1055.98V28.5926L1056.26 28.2011L1056.14 28.112ZM1054.03 38.668V22.132H1053.72V38.668H1054.03ZM1054.03 22.132C1054.03 21.9209 1054.1 21.7536 1054.21 21.6394C1054.33 21.5252 1054.49 21.4536 1054.71 21.4536V21.1464C1054.42 21.1464 1054.17 21.2438 1054 21.4221C1053.82 21.6004 1053.72 21.8491 1053.72 22.132H1054.03ZM1054.71 21.4536H1055.3V21.1464H1054.71V21.4536ZM1055.3 21.4536C1055.51 21.4536 1055.68 21.5252 1055.8 21.6394C1055.91 21.7536 1055.98 21.9209 1055.98 22.132H1056.29C1056.29 21.8491 1056.19 21.6004 1056.01 21.4221C1055.84 21.2438 1055.59 21.1464 1055.3 21.1464V21.4536ZM1055.98 22.132V28.112H1056.29V22.132H1055.98ZM1056.26 28.2011C1057.32 26.7137 1058.96 26.0036 1060.76 26.0036V25.6964C1058.88 25.6964 1057.14 26.4423 1056.01 28.0229L1056.26 28.2011ZM1060.76 26.0036C1062.37 26.0036 1063.51 26.4992 1064.26 27.3457C1065 28.1955 1065.37 29.4216 1065.37 30.92H1065.68C1065.68 29.3764 1065.3 28.0675 1064.49 27.1428C1063.67 26.2148 1062.43 25.6964 1060.76 25.6964V26.0036ZM1065.37 30.92V38.668H1065.68V30.92H1065.37ZM1065.37 38.668C1065.37 38.8791 1065.3 39.0464 1065.18 39.1606C1065.07 39.2748 1064.9 39.3464 1064.69 39.3464V39.6536C1064.97 39.6536 1065.22 39.5562 1065.4 39.3779C1065.58 39.1996 1065.68 38.9509 1065.68 38.668H1065.37ZM1064.69 39.3464H1064.09V39.6536H1064.69V39.3464ZM1064.09 39.3464C1063.88 39.3464 1063.71 39.2748 1063.6 39.1606C1063.48 39.0464 1063.41 38.8791 1063.41 38.668H1063.11C1063.11 38.9509 1063.2 39.1996 1063.38 39.3779C1063.56 39.5562 1063.81 39.6536 1064.09 39.6536V39.3464ZM1063.41 38.668V31.18H1063.11V38.668H1063.41ZM1063.41 31.18C1063.41 30.102 1063.13 29.2093 1062.57 28.5845C1062.01 27.9572 1061.17 27.6204 1060.11 27.6204V27.9276C1061.11 27.9276 1061.85 28.2408 1062.34 28.79C1062.84 29.3417 1063.11 30.152 1063.11 31.18H1063.41ZM1060.11 27.6204C1057.95 27.6204 1055.98 29.4013 1055.98 31.778H1056.29C1056.29 29.5787 1058.11 27.9276 1060.11 27.9276V27.6204ZM1055.98 31.778V38.668H1056.29V31.778H1055.98ZM1055.98 38.668C1055.98 38.8791 1055.91 39.0464 1055.8 39.1606C1055.68 39.2748 1055.51 39.3464 1055.3 39.3464V39.6536C1055.59 39.6536 1055.84 39.5562 1056.01 39.3779C1056.19 39.1996 1056.29 38.9509 1056.29 38.668H1055.98ZM1055.3 39.3464H1054.71V39.6536H1055.3V39.3464ZM1054.71 39.3464C1054.49 39.3464 1054.33 39.2748 1054.21 39.1606C1054.1 39.0464 1054.03 38.8791 1054.03 38.668H1053.72C1053.72 38.9509 1053.82 39.1996 1054 39.3779C1054.17 39.5562 1054.42 39.6536 1054.71 39.6536V39.3464Z" fill="#0C50FF" mask="url(#path-2-outside-1_83_420)"/>
<mask id="mask0_83_420" style="mask-type:luminance" maskUnits="userSpaceOnUse" x="1078" y="20" width="24" height="21">
<path d="M1078 20H1102V41H1078V20Z" fill="white"/>
<path fill-rule="evenodd" clip-rule="evenodd" d="M1082.51 24.5137C1081.73 25.2971 1081.3 26.3543 1081.3 27.4559C1081.3 28.5575 1081.73 29.6147 1082.51 30.3979L1082.51 30.3991L1089.79 37.6927L1089.8 37.6939C1089.83 37.7286 1089.88 37.7479 1089.93 37.7479H1089.94C1089.99 37.7479 1090.03 37.7281 1090.07 37.6927L1097.35 30.3991L1097.36 30.3979C1098.13 29.6146 1098.56 28.5574 1098.56 27.4558C1098.56 26.3542 1098.13 25.297 1097.36 24.5137C1096.57 23.7362 1095.52 23.2998 1094.42 23.3001C1093.31 23.3005 1092.26 23.7375 1091.48 24.5155L1090.36 25.6339C1090.24 25.7464 1090.09 25.8096 1089.93 25.8096C1089.77 25.8096 1089.62 25.7464 1089.51 25.6339L1088.39 24.5155C1087.61 23.7373 1086.55 23.3001 1085.45 23.2998C1084.35 23.2994 1083.29 23.736 1082.51 24.5137ZM1081.45 23.4535C1082.51 22.3945 1083.95 21.7999 1085.45 21.7999C1086.95 21.7999 1088.39 22.3945 1089.45 23.4535L1089.45 23.4541L1089.51 23.5129C1089.62 23.6254 1089.77 23.6886 1089.93 23.6886C1090.09 23.6886 1090.24 23.6254 1090.36 23.5129L1090.42 23.4541L1090.42 23.4535C1091.48 22.3943 1092.92 21.7996 1094.42 21.7996C1095.92 21.7996 1097.36 22.3943 1098.42 23.4535L1098.42 23.4571C1099.47 24.5214 1100.07 25.9584 1100.07 27.4558C1100.07 28.9533 1099.47 30.3902 1098.42 31.4545L1098.42 31.4569L1091.13 38.7553L1091.13 38.7577C1090.81 39.0727 1090.38 39.2488 1089.93 39.2473C1089.49 39.2486 1089.06 39.0725 1088.74 38.7577L1088.74 38.7553L1081.44 31.4545C1080.39 30.3902 1079.8 28.9531 1079.8 27.4555C1079.8 25.9579 1080.39 24.5208 1081.44 23.4565L1081.45 23.4535Z" fill="black"/>
</mask>
<g mask="url(#mask0_83_420)">
<path d="M1082.51 24.5139L1081.49 23.4939L1081.49 23.4981L1081.48 23.5017L1082.51 24.5139ZM1082.51 30.3993L1081.49 31.4127L1081.49 31.4169L1082.51 30.3993ZM1089.79 37.6929L1088.78 38.7105L1088.78 38.7159L1089.79 37.6929ZM1089.93 37.7475L1089.94 36.3075H1089.92L1089.93 37.7475ZM1090.07 37.6941L1091.08 38.7225L1091.08 38.7219L1090.07 37.6941ZM1090.07 37.6929L1091.08 38.7159L1091.09 38.7105L1090.07 37.6929ZM1097.35 30.3993L1098.37 31.4169L1098.38 31.4127L1097.35 30.3993H1097.35ZM1097.36 30.3981L1098.38 31.4121L1098.38 31.4109L1097.36 30.3981ZM1097.36 24.5139L1098.38 23.5017L1098.38 23.4975L1098.37 23.4939L1097.36 24.5139ZM1081.45 23.4537L1080.43 22.4337L1080.43 22.4373L1081.45 23.4537ZM1089.45 23.4543L1090.47 22.4361L1090.47 22.4343L1089.45 23.4543ZM1090.42 23.4543L1089.4 22.4349L1089.4 22.4361L1090.42 23.4543H1090.42ZM1098.42 23.4573L1099.45 22.4445L1099.44 22.4409L1099.44 22.4373L1098.42 23.4573ZM1098.42 31.4547L1099.44 32.4699L1099.45 32.4675L1098.42 31.4547ZM1098.42 31.4571L1099.44 32.4747L1099.44 32.4717L1098.42 31.4571ZM1091.13 38.7555L1092.15 39.7755L1092.15 39.7731L1091.13 38.7555ZM1091.13 38.7579L1092.14 39.7803L1092.14 39.7779L1091.13 38.7579ZM1089.93 39.2481L1089.94 37.8081H1089.93L1089.93 39.2481ZM1088.74 38.7579L1087.72 39.7779L1087.72 39.7803L1088.74 38.7579ZM1088.74 38.7555L1087.72 39.7731L1087.72 39.7755L1088.74 38.7555ZM1081.44 31.4547L1080.42 32.4675L1080.43 32.4723L1081.44 31.4547ZM1081.44 23.4567L1080.42 22.4409L1080.42 22.4445L1081.44 23.4567ZM1082.74 27.4557C1082.74 26.7333 1083.03 26.0397 1083.53 25.5267L1081.48 23.5017C1080.44 24.5546 1079.86 25.9753 1079.86 27.4557H1082.74ZM1083.53 29.3859C1083.03 28.8721 1082.74 28.1785 1082.74 27.4557H1079.86C1079.86 28.9365 1080.44 30.3579 1081.49 31.4109L1083.53 29.3859ZM1083.53 29.3859L1081.48 31.4103L1081.49 31.4127L1083.53 29.3859ZM1090.81 36.6759L1083.53 29.3817L1081.49 31.4169L1088.78 38.7105L1090.81 36.6759ZM1090.8 36.6657C1090.81 36.6673 1090.81 36.6689 1090.81 36.6705L1088.78 38.7159L1088.79 38.7219L1090.8 36.6657ZM1090.4 36.4005C1090.55 36.4617 1090.69 36.5517 1090.8 36.6651L1088.79 38.7219C1088.94 38.8695 1089.12 38.9865 1089.31 39.0669L1090.4 36.4005ZM1089.92 36.3075C1090.08 36.3067 1090.25 36.3383 1090.4 36.4005L1089.31 39.0669C1089.51 39.1479 1089.72 39.1887 1089.94 39.1875L1089.92 36.3075ZM1089.92 36.3075H1089.92L1089.94 39.1875H1089.94L1089.92 36.3075ZM1089.95 36.3075H1089.94L1089.92 39.1875H1089.93L1089.95 36.3075ZM1089.46 36.4005C1089.62 36.3383 1089.78 36.3067 1089.95 36.3075L1089.93 39.1875C1090.14 39.1887 1090.35 39.1479 1090.55 39.0669L1089.46 36.4005ZM1089.06 36.6651C1089.18 36.5517 1089.31 36.4617 1089.46 36.4011L1090.55 39.0669C1090.75 38.987 1090.93 38.8695 1091.08 38.7219L1089.06 36.6651ZM1089.06 36.6705C1089.06 36.6689 1089.06 36.6673 1089.06 36.6657L1091.08 38.7219C1091.08 38.7199 1091.08 38.7179 1091.08 38.7159L1089.06 36.6699V36.6705ZM1096.34 29.3817L1089.05 36.6753L1091.09 38.7105L1098.37 31.4169L1096.34 29.3817ZM1096.33 29.3847C1096.33 29.3859 1096.33 29.3865 1096.33 29.3865L1098.38 31.4127L1098.38 31.4115L1096.33 29.3847ZM1097.12 27.4557C1097.12 28.1787 1096.84 28.8717 1096.33 29.3859L1098.38 31.4109C1099.42 30.3579 1100.01 28.9367 1100.01 27.4557H1097.12ZM1096.33 25.5267C1096.84 26.0405 1097.12 26.7335 1097.12 27.4557H1100.01C1100.01 25.9753 1099.42 24.5546 1098.38 23.5017L1096.33 25.5273L1096.33 25.5267ZM1094.42 24.7401C1095.14 24.7401 1095.83 25.0257 1096.34 25.5345L1098.37 23.4939C1097.32 22.4476 1095.9 21.8601 1094.42 21.8601V24.7401ZM1092.49 25.5351C1093 25.0259 1093.7 24.7401 1094.42 24.7401V21.8601C1092.93 21.8601 1091.51 22.4481 1090.46 23.4957L1092.49 25.5357V25.5351ZM1085.45 24.7401C1086.17 24.7401 1086.86 25.0263 1087.37 25.5357L1089.41 23.4957C1088.36 22.4482 1086.93 21.86 1085.45 21.8601V24.7401ZM1083.52 25.5345C1084.04 25.0257 1084.73 24.7401 1085.45 24.7401V21.8601C1083.97 21.8599 1082.54 22.4474 1081.49 23.4939L1083.52 25.5339V25.5345ZM1085.45 20.3601C1083.57 20.36 1081.76 21.1059 1080.43 22.4343L1082.46 24.4737C1083.26 23.6838 1084.33 23.2402 1085.45 23.2401V20.3601ZM1090.47 22.4343C1089.13 21.1061 1087.33 20.3602 1085.45 20.3601V23.2401C1086.57 23.2401 1087.64 23.6835 1088.43 24.4737L1090.47 22.4337L1090.47 22.4343ZM1090.47 22.4343H1090.47L1088.43 24.4731L1088.43 24.4737L1090.47 22.4337L1090.47 22.4343ZM1090.53 22.4943L1090.47 22.4361L1088.43 24.4725L1088.49 24.5313L1090.53 22.4943ZM1089.4 22.4361L1089.34 22.4949L1091.38 24.5313L1091.43 24.4725L1089.4 22.4361ZM1089.4 22.4343L1089.4 22.4349L1091.43 24.4737L1089.4 22.4337L1089.4 22.4343ZM1094.42 20.3601C1092.54 20.3602 1090.73 21.1061 1089.4 22.4343L1091.43 24.4737C1092.23 23.6839 1093.3 23.2403 1094.42 23.2401V20.3601ZM1099.43 22.4343C1098.1 21.1061 1096.3 20.3602 1094.42 20.3601V23.2401C1095.54 23.24 1096.61 23.6836 1097.4 24.4737L1099.43 22.4337L1099.43 22.4343ZM1099.44 22.4373L1099.43 22.4343L1097.4 24.4737L1097.4 24.4767L1099.44 22.4373H1099.44ZM1101.51 27.4557C1101.51 25.5789 1100.77 23.7777 1099.45 22.4445L1097.4 24.4701C1098.18 25.2648 1098.63 26.3377 1098.63 27.4557H1101.51ZM1099.45 32.4675C1100.77 31.1335 1101.51 29.3325 1101.51 27.4557H1098.63C1098.63 28.5737 1098.18 29.6466 1097.4 30.4413L1099.45 32.4675ZM1099.44 32.4717L1099.44 32.4699L1097.4 30.4395L1097.4 30.4419L1099.44 32.4717ZM1092.15 39.7731L1099.44 32.4747L1097.4 30.4395L1090.11 37.7379L1092.15 39.7731ZM1092.14 39.7779L1092.15 39.7755L1090.11 37.7355L1090.11 37.7379L1092.14 39.7779ZM1091.12 40.4559C1091.5 40.3 1091.85 40.0704 1092.14 39.7803L1090.11 37.7355C1090.09 37.7587 1090.06 37.7764 1090.03 37.7889L1091.12 40.4559ZM1089.93 40.6875C1090.34 40.6888 1090.74 40.6105 1091.12 40.4559L1090.03 37.7889C1090 37.8012 1089.97 37.8082 1089.94 37.8081L1089.93 40.6875ZM1088.74 40.4553C1089.12 40.6101 1089.53 40.6893 1089.94 40.6875L1089.93 37.8081C1089.9 37.8083 1089.86 37.801 1089.83 37.7889L1088.74 40.4553ZM1087.72 39.7803C1088.02 40.0702 1088.36 40.2996 1088.74 40.4553L1089.83 37.7889C1089.8 37.7766 1089.78 37.7585 1089.75 37.7355L1087.72 39.7803ZM1087.72 39.7755L1087.72 39.7779L1089.75 37.7379L1089.75 37.7355L1087.72 39.7755ZM1078.36 27.4557C1078.36 29.3325 1079.1 31.1337 1080.42 32.4675L1082.47 30.4413C1081.68 29.6466 1081.24 28.5737 1081.24 27.4557H1078.36ZM1080.42 22.4445C1079.1 23.7784 1078.36 25.5791 1078.36 27.4557H1081.24C1081.24 26.3379 1081.68 25.2651 1082.47 24.4701L1080.42 22.4445ZM1080.43 22.4373L1080.42 22.4409L1082.46 24.4737L1082.47 24.4701L1080.43 22.4373ZM1091.38 26.6523L1092.49 25.5339L1090.46 23.4975L1089.34 24.6159L1091.38 26.6523ZM1087.37 25.5339L1088.49 26.6523L1090.53 24.6159L1089.41 23.4975L1087.37 25.5339ZM1080.43 32.4723L1087.72 39.7731L1089.75 37.7379L1082.46 30.4371L1080.43 32.4723ZM1088.49 24.5313C1088.68 24.7208 1088.9 24.8711 1089.15 24.9737C1089.4 25.0762 1089.66 25.129 1089.93 25.129C1090.2 25.129 1090.47 25.0762 1090.71 24.9737C1090.96 24.8711 1091.19 24.7208 1091.38 24.5313L1089.34 22.4949C1089.42 22.4169 1089.51 22.355 1089.61 22.3128C1089.71 22.2706 1089.82 22.2488 1089.93 22.2488C1090.04 22.2488 1090.15 22.2706 1090.25 22.3128C1090.36 22.355 1090.45 22.4163 1090.53 22.4943L1088.49 24.5313H1088.49ZM1089.34 24.6159C1089.42 24.5379 1089.51 24.476 1089.61 24.4338C1089.71 24.3916 1089.82 24.3698 1089.93 24.3698C1090.04 24.3698 1090.15 24.3916 1090.25 24.4338C1090.36 24.476 1090.45 24.5379 1090.53 24.6159L1088.49 26.6523C1088.68 26.8418 1088.9 26.9927 1089.15 27.0953C1089.4 27.1978 1089.66 27.2506 1089.93 27.2506C1090.2 27.2506 1090.47 27.1978 1090.71 27.0953C1090.96 26.9927 1091.19 26.8418 1091.38 26.6523L1089.34 24.6153L1089.34 24.6159Z" fill="#0C50FF"/>
</g>
<mask id="path-7-outside-2_83_420" maskUnits="userSpaceOnUse" x="1113" y="20.5" width="90" height="25" fill="black">
<rect fill="white" x="1113" y="20.5" width="90" height="25"/>
<path d="M1114.94 39.5H1114.44C1113.95 39.5 1113.61 39.162 1113.61 38.668V22.132C1113.61 21.638 1113.95 21.3 1114.44 21.3H1115.04C1115.54 21.3 1115.87 21.638 1115.87 22.132V28.19C1117.02 26.682 1118.71 25.85 1120.76 25.85C1124.35 25.85 1127.34 28.736 1127.34 32.87C1127.34 36.978 1124.32 39.89 1120.76 39.89C1118.71 39.89 1117.02 39.084 1115.77 37.472V38.668C1115.77 39.162 1115.43 39.5 1114.94 39.5ZM1115.74 32.87C1115.74 35.86 1117.77 37.992 1120.37 37.992C1122.97 37.992 1125.05 35.912 1125.05 32.87C1125.05 29.802 1122.97 27.748 1120.37 27.748C1117.77 27.748 1115.74 29.854 1115.74 32.87ZM1128.64 26.916C1128.64 26.5 1128.95 26.24 1129.53 26.24H1130.23C1130.57 26.24 1130.88 26.448 1131.01 26.786L1134.86 36.952H1134.93L1138.73 26.786C1138.86 26.448 1139.17 26.24 1139.51 26.24H1140.21C1140.76 26.24 1141.07 26.5 1141.07 26.916C1141.07 27.072 1141.04 27.228 1140.97 27.384L1136.18 39.266C1134.57 43.244 1133.71 44.83 1131.24 44.83C1130.8 44.83 1130.25 44.778 1129.76 44.7C1129.37 44.648 1129.14 44.31 1129.14 43.946V43.582C1129.14 43.088 1129.37 42.906 1129.81 42.906C1130.2 42.906 1130.57 42.958 1130.85 42.958C1132.39 42.958 1133.22 41.112 1133.74 39.396L1128.75 27.384C1128.67 27.228 1128.64 27.072 1128.64 26.916ZM1153.72 32.064L1155.41 31.83C1156.84 31.648 1157.68 31.154 1157.68 30.166C1157.68 28.45 1156.38 27.696 1154.74 27.696C1153.36 27.696 1152.29 28.32 1151.83 29.282C1151.64 29.646 1151.33 29.932 1150.94 29.932H1150.24C1149.77 29.932 1149.43 29.672 1149.43 29.282C1149.43 29.204 1149.46 29.126 1149.49 29.022C1150.21 26.838 1152.29 25.876 1154.71 25.876C1157.05 25.876 1158.56 26.838 1159.26 28.398C1160.41 26.76 1162.46 25.85 1164.64 25.85C1167.84 25.85 1171.38 27.93 1171.38 32.35C1171.38 33.026 1171.33 33.598 1170.65 33.598H1159.96C1160.33 36.484 1162.41 37.992 1164.67 37.992C1166.49 37.992 1167.89 37.082 1168.62 35.834C1168.78 35.548 1169.09 35.34 1169.4 35.34H1170.03C1170.52 35.34 1170.83 35.574 1170.83 35.938C1170.83 36.068 1170.78 36.224 1170.7 36.38C1169.53 38.616 1167.35 39.89 1164.64 39.89C1162.33 39.89 1160.07 38.824 1158.87 36.822C1157.49 38.85 1155.47 39.89 1152.94 39.89C1150.71 39.89 1148.81 38.59 1148.81 36.172C1148.81 33.052 1151.36 32.402 1153.72 32.064ZM1157.65 34.586V32.558C1157.21 33.026 1156.38 33.26 1155.44 33.39L1154.09 33.598C1152.55 33.832 1151.12 34.352 1151.12 36.094C1151.12 37.394 1152.03 38.122 1153.52 38.122C1155.39 38.122 1157.65 36.562 1157.65 34.586ZM1164.64 27.748C1162.49 27.748 1160.51 29.204 1160.04 31.7H1169.22C1168.86 29.1 1166.8 27.748 1164.64 27.748ZM1173.81 27.072C1173.81 26.578 1174.15 26.24 1174.65 26.24H1175.17C1175.66 26.24 1176 26.578 1176 27.072V28.112C1177.22 26.552 1178.86 25.85 1180.65 25.85C1183.98 25.85 1185.46 27.878 1185.46 30.92V38.668C1185.46 39.162 1185.12 39.5 1184.63 39.5H1184.03C1183.54 39.5 1183.2 39.162 1183.2 38.668V31.154C1183.2 29.048 1182.08 27.774 1180.05 27.774C1177.97 27.774 1176.08 29.49 1176.08 31.752V38.668C1176.08 39.162 1175.74 39.5 1175.24 39.5H1174.65C1174.15 39.5 1173.81 39.162 1173.81 38.668V27.072ZM1187.91 32.87C1187.91 28.866 1190.9 25.85 1194.88 25.85C1198.83 25.85 1201.85 28.814 1201.85 32.87C1201.85 36.952 1198.83 39.89 1194.88 39.89C1190.9 39.89 1187.91 36.9 1187.91 32.87ZM1190.2 32.87C1190.2 35.938 1192.23 37.992 1194.88 37.992C1197.51 37.992 1199.56 35.938 1199.56 32.87C1199.56 29.828 1197.56 27.748 1194.88 27.748C1192.23 27.748 1190.2 29.828 1190.2 32.87Z"/>
</mask>
<path d="M1114.94 39.5H1114.44C1113.95 39.5 1113.61 39.162 1113.61 38.668V22.132C1113.61 21.638 1113.95 21.3 1114.44 21.3H1115.04C1115.54 21.3 1115.87 21.638 1115.87 22.132V28.19C1117.02 26.682 1118.71 25.85 1120.76 25.85C1124.35 25.85 1127.34 28.736 1127.34 32.87C1127.34 36.978 1124.32 39.89 1120.76 39.89C1118.71 39.89 1117.02 39.084 1115.77 37.472V38.668C1115.77 39.162 1115.43 39.5 1114.94 39.5ZM1115.74 32.87C1115.74 35.86 1117.77 37.992 1120.37 37.992C1122.97 37.992 1125.05 35.912 1125.05 32.87C1125.05 29.802 1122.97 27.748 1120.37 27.748C1117.77 27.748 1115.74 29.854 1115.74 32.87ZM1128.64 26.916C1128.64 26.5 1128.95 26.24 1129.53 26.24H1130.23C1130.57 26.24 1130.88 26.448 1131.01 26.786L1134.86 36.952H1134.93L1138.73 26.786C1138.86 26.448 1139.17 26.24 1139.51 26.24H1140.21C1140.76 26.24 1141.07 26.5 1141.07 26.916C1141.07 27.072 1141.04 27.228 1140.97 27.384L1136.18 39.266C1134.57 43.244 1133.71 44.83 1131.24 44.83C1130.8 44.83 1130.25 44.778 1129.76 44.7C1129.37 44.648 1129.14 44.31 1129.14 43.946V43.582C1129.14 43.088 1129.37 42.906 1129.81 42.906C1130.2 42.906 1130.57 42.958 1130.85 42.958C1132.39 42.958 1133.22 41.112 1133.74 39.396L1128.75 27.384C1128.67 27.228 1128.64 27.072 1128.64 26.916ZM1153.72 32.064L1155.41 31.83C1156.84 31.648 1157.68 31.154 1157.68 30.166C1157.68 28.45 1156.38 27.696 1154.74 27.696C1153.36 27.696 1152.29 28.32 1151.83 29.282C1151.64 29.646 1151.33 29.932 1150.94 29.932H1150.24C1149.77 29.932 1149.43 29.672 1149.43 29.282C1149.43 29.204 1149.46 29.126 1149.49 29.022C1150.21 26.838 1152.29 25.876 1154.71 25.876C1157.05 25.876 1158.56 26.838 1159.26 28.398C1160.41 26.76 1162.46 25.85 1164.64 25.85C1167.84 25.85 1171.38 27.93 1171.38 32.35C1171.38 33.026 1171.33 33.598 1170.65 33.598H1159.96C1160.33 36.484 1162.41 37.992 1164.67 37.992C1166.49 37.992 1167.89 37.082 1168.62 35.834C1168.78 35.548 1169.09 35.34 1169.4 35.34H1170.03C1170.52 35.34 1170.83 35.574 1170.83 35.938C1170.83 36.068 1170.78 36.224 1170.7 36.38C1169.53 38.616 1167.35 39.89 1164.64 39.89C1162.33 39.89 1160.07 38.824 1158.87 36.822C1157.49 38.85 1155.47 39.89 1152.94 39.89C1150.71 39.89 1148.81 38.59 1148.81 36.172C1148.81 33.052 1151.36 32.402 1153.72 32.064ZM1157.65 34.586V32.558C1157.21 33.026 1156.38 33.26 1155.44 33.39L1154.09 33.598C1152.55 33.832 1151.12 34.352 1151.12 36.094C1151.12 37.394 1152.03 38.122 1153.52 38.122C1155.39 38.122 1157.65 36.562 1157.65 34.586ZM1164.64 27.748C1162.49 27.748 1160.51 29.204 1160.04 31.7H1169.22C1168.86 29.1 1166.8 27.748 1164.64 27.748ZM1173.81 27.072C1173.81 26.578 1174.15 26.24 1174.65 26.24H1175.17C1175.66 26.24 1176 26.578 1176 27.072V28.112C1177.22 26.552 1178.86 25.85 1180.65 25.85C1183.98 25.85 1185.46 27.878 1185.46 30.92V38.668C1185.46 39.162 1185.12 39.5 1184.63 39.5H1184.03C1183.54 39.5 1183.2 39.162 1183.2 38.668V31.154C1183.2 29.048 1182.08 27.774 1180.05 27.774C1177.97 27.774 1176.08 29.49 1176.08 31.752V38.668C1176.08 39.162 1175.74 39.5 1175.24 39.5H1174.65C1174.15 39.5 1173.81 39.162 1173.81 38.668V27.072ZM1187.91 32.87C1187.91 28.866 1190.9 25.85 1194.88 25.85C1198.83 25.85 1201.85 28.814 1201.85 32.87C1201.85 36.952 1198.83 39.89 1194.88 39.89C1190.9 39.89 1187.91 36.9 1187.91 32.87ZM1190.2 32.87C1190.2 35.938 1192.23 37.992 1194.88 37.992C1197.51 37.992 1199.56 35.938 1199.56 32.87C1199.56 29.828 1197.56 27.748 1194.88 27.748C1192.23 27.748 1190.2 29.828 1190.2 32.87Z" fill="#0C50FF"/>
<path d="M1115.87 28.19H1115.72V28.6466L1116 28.2828L1115.87 28.19ZM1115.77 37.472L1115.89 37.378L1115.62 37.0227V37.472H1115.77ZM1114.94 39.3464H1114.44V39.6536H1114.94V39.3464ZM1114.44 39.3464C1114.23 39.3464 1114.07 39.2748 1113.95 39.1606C1113.84 39.0464 1113.77 38.8791 1113.77 38.668H1113.46C1113.46 38.9509 1113.56 39.1996 1113.73 39.3779C1113.91 39.5562 1114.16 39.6536 1114.44 39.6536V39.3464ZM1113.77 38.668V22.132H1113.46V38.668H1113.77ZM1113.77 22.132C1113.77 21.9209 1113.84 21.7536 1113.95 21.6394C1114.07 21.5252 1114.23 21.4536 1114.44 21.4536V21.1464C1114.16 21.1464 1113.91 21.2438 1113.73 21.4221C1113.56 21.6004 1113.46 21.8491 1113.46 22.132H1113.77ZM1114.44 21.4536H1115.04V21.1464H1114.44V21.4536ZM1115.04 21.4536C1115.25 21.4536 1115.42 21.5252 1115.53 21.6394C1115.65 21.7536 1115.72 21.9209 1115.72 22.132H1116.03C1116.03 21.8491 1115.93 21.6004 1115.75 21.4221C1115.57 21.2438 1115.32 21.1464 1115.04 21.1464V21.4536ZM1115.72 22.132V28.19H1116.03V22.132H1115.72ZM1116 28.2828C1117.11 26.8152 1118.75 26.0036 1120.76 26.0036V25.6964C1118.66 25.6964 1116.93 26.5488 1115.75 28.0972L1116 28.2828ZM1120.76 26.0036C1124.26 26.0036 1127.19 28.8158 1127.19 32.87H1127.49C1127.49 28.6562 1124.44 25.6964 1120.76 25.6964V26.0036ZM1127.19 32.87C1127.19 36.8982 1124.23 39.7364 1120.76 39.7364V40.0436C1124.41 40.0436 1127.49 37.0578 1127.49 32.87H1127.19ZM1120.76 39.7364C1118.75 39.7364 1117.11 38.9512 1115.89 37.378L1115.65 37.566C1116.93 39.2168 1118.66 40.0436 1120.76 40.0436V39.7364ZM1115.62 37.472V38.668H1115.92V37.472H1115.62ZM1115.62 38.668C1115.62 38.8791 1115.54 39.0464 1115.43 39.1606C1115.32 39.2748 1115.15 39.3464 1114.94 39.3464V39.6536C1115.22 39.6536 1115.47 39.5562 1115.65 39.3779C1115.83 39.1996 1115.92 38.9509 1115.92 38.668H1115.62ZM1115.59 32.87C1115.59 35.9321 1117.67 38.1456 1120.37 38.1456V37.8384C1117.87 37.8384 1115.9 35.7879 1115.9 32.87H1115.59ZM1120.37 38.1456C1123.07 38.1456 1125.21 35.9875 1125.21 32.87H1124.9C1124.9 35.8365 1122.88 37.8384 1120.37 37.8384V38.1456ZM1125.21 32.87C1125.21 29.7259 1123.07 27.5944 1120.37 27.5944V27.9016C1122.88 27.9016 1124.9 29.8781 1124.9 32.87H1125.21ZM1120.37 27.5944C1117.68 27.5944 1115.59 29.7813 1115.59 32.87H1115.9C1115.9 29.9267 1117.87 27.9016 1120.37 27.9016V27.5944ZM1131.01 26.786L1131.15 26.7316L1131.15 26.7309L1131.01 26.786ZM1134.86 36.952L1134.71 37.0064L1134.75 37.1056H1134.86V36.952ZM1134.93 36.952V37.1056H1135.04L1135.08 37.0057L1134.93 36.952ZM1138.73 26.786L1138.59 26.7309L1138.59 26.7323L1138.73 26.786ZM1140.97 27.384L1140.83 27.3151L1140.82 27.3266L1140.97 27.384ZM1136.18 39.266L1136.32 39.3237L1136.32 39.3234L1136.18 39.266ZM1129.76 44.7L1129.78 44.5482L1129.78 44.5477L1129.76 44.7ZM1133.74 39.396L1133.88 39.4405L1133.9 39.3879L1133.88 39.3371L1133.74 39.396ZM1128.75 27.384L1128.89 27.3249L1128.88 27.3153L1128.75 27.384ZM1128.8 26.916C1128.8 26.7502 1128.86 26.6279 1128.96 26.543C1129.08 26.4542 1129.26 26.3936 1129.53 26.3936V26.0864C1129.22 26.0864 1128.96 26.1558 1128.77 26.301C1128.58 26.4501 1128.49 26.6658 1128.49 26.916H1128.8ZM1129.53 26.3936H1130.23V26.0864H1129.53V26.3936ZM1130.23 26.3936C1130.5 26.3936 1130.76 26.5619 1130.86 26.8411L1131.15 26.7309C1131 26.3341 1130.63 26.0864 1130.23 26.0864V26.3936ZM1130.86 26.8404L1134.71 37.0064L1135 36.8976L1131.15 26.7316L1130.86 26.8404ZM1134.86 37.1056H1134.93V36.7984H1134.86V37.1056ZM1135.08 37.0057L1138.87 26.8397L1138.59 26.7323L1134.79 36.8983L1135.08 37.0057ZM1138.87 26.8411C1138.98 26.5619 1139.24 26.3936 1139.51 26.3936V26.0864C1139.11 26.0864 1138.74 26.3341 1138.59 26.7309L1138.87 26.8411ZM1139.51 26.3936H1140.21V26.0864H1139.51V26.3936ZM1140.21 26.3936C1140.46 26.3936 1140.64 26.4535 1140.75 26.5419C1140.86 26.627 1140.92 26.75 1140.92 26.916H1141.22C1141.22 26.666 1141.13 26.451 1140.94 26.3021C1140.76 26.1565 1140.51 26.0864 1140.21 26.0864V26.3936ZM1140.92 26.916C1140.92 27.054 1140.89 27.1853 1140.83 27.3153L1141.1 27.4527C1141.19 27.2707 1141.22 27.09 1141.22 26.916H1140.92ZM1140.82 27.3266L1136.04 39.2086L1136.32 39.3234L1141.11 27.4414L1140.82 27.3266ZM1136.04 39.2083C1135.23 41.2024 1134.62 42.5704 1133.91 43.443C1133.56 43.8757 1133.19 44.1817 1132.76 44.3808C1132.34 44.58 1131.84 44.6764 1131.24 44.6764V44.9836C1131.88 44.9836 1132.42 44.8817 1132.89 44.6593C1133.37 44.4367 1133.78 44.0976 1134.15 43.6365C1134.89 42.7216 1135.52 41.3076 1136.32 39.3237L1136.04 39.2083ZM1131.24 44.6764C1130.81 44.6764 1130.27 44.6254 1129.78 44.5483L1129.74 44.8517C1130.24 44.9306 1130.79 44.9836 1131.24 44.9836V44.6764ZM1129.78 44.5477C1129.48 44.5078 1129.29 44.2479 1129.29 43.946H1128.98C1128.98 44.3721 1129.26 44.7882 1129.74 44.8523L1129.78 44.5477ZM1129.29 43.946V43.582H1128.98V43.946H1129.29ZM1129.29 43.582C1129.29 43.3563 1129.34 43.2369 1129.41 43.1705C1129.49 43.1023 1129.61 43.0596 1129.81 43.0596V42.7524C1129.57 42.7524 1129.36 42.8007 1129.2 42.947C1129.05 43.0951 1128.98 43.3137 1128.98 43.582H1129.29ZM1129.81 43.0596C1130 43.0596 1130.18 43.0722 1130.36 43.0852C1130.53 43.098 1130.7 43.1116 1130.85 43.1116V42.8044C1130.72 42.8044 1130.56 42.792 1130.38 42.7788C1130.21 42.7658 1130.01 42.7524 1129.81 42.7524V43.0596ZM1130.85 43.1116C1131.69 43.1116 1132.32 42.6042 1132.8 41.9075C1133.28 41.2115 1133.62 40.3026 1133.88 39.4405L1133.59 39.3515C1133.33 40.2054 1133 41.0775 1132.55 41.7335C1132.1 42.3888 1131.55 42.8044 1130.85 42.8044V43.1116ZM1133.88 39.3371L1128.89 27.3251L1128.6 27.4429L1133.6 39.4549L1133.88 39.3371ZM1128.88 27.3153C1128.82 27.1853 1128.8 27.054 1128.8 26.916H1128.49C1128.49 27.09 1128.52 27.2707 1128.61 27.4527L1128.88 27.3153ZM1153.72 32.064L1153.7 31.9118L1153.7 31.9119L1153.72 32.064ZM1155.41 31.83L1155.39 31.6776L1155.39 31.6778L1155.41 31.83ZM1151.83 29.282L1151.96 29.3507L1151.96 29.3492L1151.83 29.282ZM1149.49 29.022L1149.34 28.9733L1149.34 28.9847L1149.49 29.022ZM1159.26 28.398L1159.12 28.461L1159.23 28.7078L1159.39 28.486L1159.26 28.398ZM1159.96 33.598V33.4444H1159.79L1159.81 33.6172L1159.96 33.598ZM1168.62 35.834L1168.75 35.9114L1168.76 35.9076L1168.62 35.834ZM1170.7 36.38L1170.84 36.4512L1170.84 36.4487L1170.7 36.38ZM1158.87 36.822L1159 36.7432L1158.88 36.5364L1158.74 36.7357L1158.87 36.822ZM1157.65 32.558H1157.8V32.1717L1157.54 32.4525L1157.65 32.558ZM1155.44 33.39L1155.42 33.2378L1155.42 33.2382L1155.44 33.39ZM1154.09 33.598L1154.11 33.7498L1154.11 33.7498L1154.09 33.598ZM1160.04 31.7L1159.89 31.6717L1159.86 31.8536H1160.04V31.7ZM1169.22 31.7V31.8536H1169.4L1169.37 31.6787L1169.22 31.7ZM1153.74 32.2162L1155.43 31.9822L1155.39 31.6778L1153.7 31.9118L1153.74 32.2162ZM1155.43 31.9824C1156.16 31.8902 1156.75 31.7169 1157.17 31.4262C1157.59 31.129 1157.83 30.7123 1157.83 30.166H1157.52C1157.52 30.6077 1157.34 30.932 1156.99 31.1743C1156.64 31.4231 1156.1 31.5878 1155.39 31.6776L1155.43 31.9824ZM1157.83 30.166C1157.83 29.2644 1157.48 28.5998 1156.91 28.1652C1156.35 27.7353 1155.58 27.5424 1154.74 27.5424V27.8496C1155.54 27.8496 1156.23 28.0337 1156.73 28.4097C1157.22 28.7812 1157.52 29.3516 1157.52 30.166H1157.83ZM1154.74 27.5424C1153.31 27.5424 1152.19 28.1891 1151.69 29.2148L1151.96 29.3492C1152.4 28.4509 1153.41 27.8496 1154.74 27.8496V27.5424ZM1151.69 29.2133C1151.52 29.5511 1151.25 29.7784 1150.94 29.7784V30.0856C1151.41 30.0856 1151.77 29.7409 1151.96 29.3507L1151.69 29.2133ZM1150.94 29.7784H1150.24V30.0856H1150.94V29.7784ZM1150.24 29.7784C1150.03 29.7784 1149.87 29.7209 1149.76 29.633C1149.65 29.5473 1149.59 29.4284 1149.59 29.282H1149.28C1149.28 29.5256 1149.39 29.7317 1149.57 29.8735C1149.74 30.0131 1149.98 30.0856 1150.24 30.0856V29.7784ZM1149.59 29.282C1149.59 29.2289 1149.6 29.1808 1149.63 29.0593L1149.34 28.9847C1149.31 29.0712 1149.28 29.1791 1149.28 29.282H1149.59ZM1149.63 29.0706C1150.33 26.974 1152.33 26.0296 1154.71 26.0296V25.7224C1152.26 25.7224 1150.1 26.702 1149.34 28.9734L1149.63 29.0706ZM1154.71 26.0296C1157 26.0296 1158.45 26.9673 1159.12 28.461L1159.4 28.335C1158.67 26.7087 1157.1 25.7224 1154.71 25.7224V26.0296ZM1159.39 28.486C1160.5 26.8973 1162.5 26.0036 1164.64 26.0036V25.6964C1162.42 25.6964 1160.31 26.6227 1159.14 28.31L1159.39 28.486ZM1164.64 26.0036C1166.21 26.0036 1167.86 26.5139 1169.11 27.5604C1170.36 28.6036 1171.22 30.1854 1171.22 32.35H1171.53C1171.53 30.0946 1170.63 28.4264 1169.31 27.3246C1167.99 26.2261 1166.27 25.6964 1164.64 25.6964V26.0036ZM1171.22 32.35C1171.22 32.6928 1171.21 32.973 1171.13 33.167C1171.09 33.259 1171.03 33.3246 1170.97 33.3688C1170.9 33.4134 1170.8 33.4444 1170.65 33.4444V33.7516C1170.84 33.7516 1171 33.7111 1171.13 33.6273C1171.26 33.5431 1171.35 33.4235 1171.41 33.288C1171.52 33.027 1171.53 32.6832 1171.53 32.35H1171.22ZM1170.65 33.4444H1159.96V33.7516H1170.65V33.4444ZM1159.81 33.6172C1160.18 36.5819 1162.33 38.1456 1164.67 38.1456V37.8384C1162.48 37.8384 1160.47 36.3861 1160.12 33.5788L1159.81 33.6172ZM1164.67 38.1456C1166.54 38.1456 1168 37.2068 1168.75 35.9114L1168.49 35.7566C1167.79 36.9572 1166.43 37.8384 1164.67 37.8384V38.1456ZM1168.76 35.9076C1168.89 35.6632 1169.15 35.4936 1169.4 35.4936V35.1864C1169.02 35.1864 1168.67 35.4328 1168.49 35.7604L1168.76 35.9076ZM1169.4 35.4936H1170.03V35.1864H1169.4V35.4936ZM1170.03 35.4936C1170.25 35.4936 1170.42 35.5471 1170.52 35.6257C1170.62 35.7011 1170.68 35.8051 1170.68 35.938H1170.98C1170.98 35.7069 1170.88 35.5119 1170.71 35.3793C1170.53 35.2499 1170.29 35.1864 1170.03 35.1864V35.4936ZM1170.68 35.938C1170.68 36.0326 1170.64 36.1631 1170.56 36.3113L1170.84 36.4487C1170.92 36.2849 1170.98 36.1034 1170.98 35.938H1170.68ZM1170.57 36.3088C1169.42 38.4903 1167.29 39.7364 1164.64 39.7364V40.0436C1167.4 40.0436 1169.64 38.7417 1170.84 36.4512L1170.57 36.3088ZM1164.64 39.7364C1162.37 39.7364 1160.17 38.6908 1159 36.7432L1158.74 36.9008C1159.97 38.9572 1162.29 40.0436 1164.64 40.0436V39.7364ZM1158.74 36.7357C1157.4 38.7196 1155.42 39.7364 1152.94 39.7364V40.0436C1155.51 40.0436 1157.59 38.9804 1159 36.9083L1158.74 36.7357ZM1152.94 39.7364C1151.85 39.7364 1150.86 39.4195 1150.14 38.8197C1149.42 38.2225 1148.96 37.3369 1148.96 36.172H1148.66C1148.66 37.4251 1149.15 38.3985 1149.94 39.0558C1150.73 39.7105 1151.8 40.0436 1152.94 40.0436V39.7364ZM1148.96 36.172C1148.96 34.6641 1149.57 33.7706 1150.46 33.2043C1151.36 32.6291 1152.56 32.385 1153.75 32.2161L1153.7 31.9119C1152.52 32.081 1151.26 32.3309 1150.3 32.9452C1149.32 33.5684 1148.66 34.5599 1148.66 36.172H1148.96ZM1157.8 34.586V32.558H1157.5V34.586H1157.8ZM1157.54 32.4525C1157.34 32.6618 1157.05 32.8268 1156.68 32.9558C1156.31 33.0844 1155.88 33.1736 1155.42 33.2379L1155.46 33.5421C1155.93 33.4764 1156.39 33.3836 1156.78 33.2457C1157.17 33.1082 1157.52 32.9222 1157.76 32.6635L1157.54 32.4525ZM1155.42 33.2382L1154.06 33.4462L1154.11 33.7498L1155.46 33.5418L1155.42 33.2382ZM1154.06 33.4462C1153.29 33.5639 1152.52 33.7563 1151.94 34.1539C1151.35 34.559 1150.97 35.1715 1150.97 36.094H1151.28C1151.28 35.2745 1151.61 34.756 1152.12 34.4071C1152.64 34.0507 1153.35 33.8661 1154.11 33.7498L1154.06 33.4462ZM1150.97 36.094C1150.97 36.7826 1151.21 37.3356 1151.67 37.7134C1152.11 38.0881 1152.75 38.2756 1153.52 38.2756V37.9684C1152.8 37.9684 1152.24 37.7919 1151.86 37.4776C1151.49 37.1664 1151.28 36.7054 1151.28 36.094H1150.97ZM1153.52 38.2756C1154.49 38.2756 1155.56 37.871 1156.38 37.2151C1157.2 36.5593 1157.8 35.6352 1157.8 34.586H1157.5C1157.5 35.5128 1156.96 36.3567 1156.19 36.9749C1155.41 37.593 1154.41 37.9684 1153.52 37.9684V38.2756ZM1164.64 27.5944C1162.41 27.5944 1160.37 29.1018 1159.89 31.6717L1160.19 31.7283C1160.65 29.3062 1162.56 27.9016 1164.64 27.9016V27.5944ZM1160.04 31.8536H1169.22V31.5464H1160.04V31.8536ZM1169.37 31.6787C1169 28.9921 1166.87 27.5944 1164.64 27.5944V27.9016C1166.74 27.9016 1168.72 29.2079 1169.07 31.7213L1169.37 31.6787ZM1176 28.112H1175.84V28.5572L1176.12 28.2067L1176 28.112ZM1173.97 27.072C1173.97 26.8609 1174.04 26.6936 1174.15 26.5794C1174.27 26.4652 1174.43 26.3936 1174.65 26.3936V26.0864C1174.36 26.0864 1174.11 26.1838 1173.94 26.3621C1173.76 26.5404 1173.66 26.7891 1173.66 27.072H1173.97ZM1174.65 26.3936H1175.17V26.0864H1174.65V26.3936ZM1175.17 26.3936C1175.38 26.3936 1175.54 26.4652 1175.66 26.5794C1175.77 26.6936 1175.84 26.8609 1175.84 27.072H1176.15C1176.15 26.7891 1176.05 26.5404 1175.88 26.3621C1175.7 26.1838 1175.45 26.0864 1175.17 26.0864V26.3936ZM1175.84 27.072V28.112H1176.15V27.072H1175.84ZM1176.12 28.2067C1177.31 26.6862 1178.9 26.0036 1180.65 26.0036V25.6964C1178.81 25.6964 1177.13 26.4178 1175.88 28.0173L1176.12 28.2067ZM1180.65 26.0036C1182.28 26.0036 1183.44 26.4996 1184.19 27.3461C1184.94 28.1958 1185.31 29.4216 1185.31 30.92H1185.61C1185.61 29.3764 1185.24 28.0672 1184.42 27.1424C1183.6 26.2144 1182.35 25.6964 1180.65 25.6964V26.0036ZM1185.31 30.92V38.668H1185.61V30.92H1185.31ZM1185.31 38.668C1185.31 38.8791 1185.24 39.0464 1185.12 39.1606C1185.01 39.2748 1184.84 39.3464 1184.63 39.3464V39.6536C1184.91 39.6536 1185.16 39.5562 1185.34 39.3779C1185.52 39.1996 1185.61 38.9509 1185.61 38.668H1185.31ZM1184.63 39.3464H1184.03V39.6536H1184.63V39.3464ZM1184.03 39.3464C1183.82 39.3464 1183.65 39.2748 1183.54 39.1606C1183.42 39.0464 1183.35 38.8791 1183.35 38.668H1183.05C1183.05 38.9509 1183.14 39.1996 1183.32 39.3779C1183.5 39.5562 1183.75 39.6536 1184.03 39.6536V39.3464ZM1183.35 38.668V31.154H1183.05V38.668H1183.35ZM1183.35 31.154C1183.35 30.0751 1183.07 29.1886 1182.5 28.5705C1181.93 27.9504 1181.1 27.6204 1180.05 27.6204V27.9276C1181.03 27.9276 1181.78 28.2346 1182.27 28.778C1182.77 29.3234 1183.05 30.1269 1183.05 31.154H1183.35ZM1180.05 27.6204C1177.89 27.6204 1175.92 29.4006 1175.92 31.752H1176.23C1176.23 29.5794 1178.05 27.9276 1180.05 27.9276V27.6204ZM1175.92 31.752V38.668H1176.23V31.752H1175.92ZM1175.92 38.668C1175.92 38.8791 1175.85 39.0464 1175.74 39.1606C1175.62 39.2748 1175.45 39.3464 1175.24 39.3464V39.6536C1175.53 39.6536 1175.77 39.5562 1175.95 39.3779C1176.13 39.1996 1176.23 38.9509 1176.23 38.668H1175.92ZM1175.24 39.3464H1174.65V39.6536H1175.24V39.3464ZM1174.65 39.3464C1174.43 39.3464 1174.27 39.2748 1174.15 39.1606C1174.04 39.0464 1173.97 38.8791 1173.97 38.668H1173.66C1173.66 38.9509 1173.76 39.1996 1173.94 39.3779C1174.11 39.5562 1174.36 39.6536 1174.65 39.6536V39.3464ZM1173.97 38.668V27.072H1173.66V38.668H1173.97ZM1188.07 32.87C1188.07 28.9497 1190.99 26.0036 1194.88 26.0036V25.6964C1190.82 25.6964 1187.76 28.7823 1187.76 32.87H1188.07ZM1194.88 26.0036C1198.75 26.0036 1201.69 28.8988 1201.69 32.87H1202C1202 28.7292 1198.92 25.6964 1194.88 25.6964V26.0036ZM1201.69 32.87C1201.69 36.8668 1198.75 39.7364 1194.88 39.7364V40.0436C1198.92 40.0436 1202 37.0372 1202 32.87H1201.69ZM1194.88 39.7364C1190.99 39.7364 1188.07 36.8159 1188.07 32.87H1187.76C1187.76 36.9841 1190.82 40.0436 1194.88 40.0436V39.7364ZM1190.05 32.87C1190.05 36.0129 1192.13 38.1456 1194.88 38.1456V37.8384C1192.32 37.8384 1190.35 35.8631 1190.35 32.87H1190.05ZM1194.88 38.1456C1197.6 38.1456 1199.71 36.0135 1199.71 32.87H1199.41C1199.41 35.8625 1197.41 37.8384 1194.88 37.8384V38.1456ZM1199.71 32.87C1199.71 29.7542 1197.65 27.5944 1194.88 27.5944V27.9016C1197.46 27.9016 1199.41 29.9018 1199.41 32.87H1199.71ZM1194.88 27.5944C1192.13 27.5944 1190.05 29.7536 1190.05 32.87H1190.35C1190.35 29.9024 1192.32 27.9016 1194.88 27.9016V27.5944Z" fill="#0C50FF" mask="url(#path-7-outside-2_83_420)"/>
</svg>
