<svg width="2144" height="75" viewBox="0 0 2144 75" fill="none" xmlns="http://www.w3.org/2000/svg">
<rect x="48" width="2048" height="75" rx="17" fill="#F5F4E3"/>
<rect width="278" height="35" transform="translate(933 20)" fill="#F5F4E3"/>
<mask id="path-2-outside-1_83_420" maskUnits="userSpaceOnUse" x="933" y="27.5" width="125" height="20" fill="black">
<rect fill="white" x="933" y="27.5" width="125" height="20"/>
<path d="M933.988 45.694V45.59L935.392 29.054C935.418 28.612 935.782 28.3 936.224 28.3H937.862C938.2 28.3 938.512 28.508 938.642 28.82L943.478 40.91L948.288 28.82C948.418 28.508 948.73 28.3 949.068 28.3H950.732C951.148 28.3 951.512 28.612 951.564 29.054L952.968 45.59V45.694C952.968 46.188 952.63 46.5 952.136 46.5H951.382C950.914 46.5 950.576 46.188 950.55 45.72L949.562 31.264L944.648 43.38C944.518 43.692 944.206 43.9 943.868 43.9H943.088C942.75 43.9 942.438 43.692 942.308 43.38L937.446 31.264L936.354 45.72C936.328 46.188 935.99 46.5 935.522 46.5H934.82C934.3 46.5 933.988 46.188 933.988 45.694ZM967.675 46.5H967.155C966.661 46.5 966.323 46.188 966.323 45.694V44.472C965.023 46.11 963.411 46.89 961.357 46.89C957.795 46.89 954.779 43.978 954.779 39.87C954.779 35.736 957.769 32.85 961.357 32.85C963.411 32.85 965.153 33.682 966.245 35.19V34.072C966.245 33.578 966.583 33.24 967.077 33.24H967.675C968.169 33.24 968.507 33.578 968.507 34.072V45.668C968.507 46.162 968.169 46.5 967.675 46.5ZM957.067 39.87C957.067 42.912 959.147 44.992 961.747 44.992C964.347 44.992 966.375 42.86 966.375 39.87C966.375 36.854 964.347 34.748 961.747 34.748C959.147 34.748 957.067 36.828 957.067 39.87ZM983.849 46.5H983.329C982.835 46.5 982.497 46.188 982.497 45.694V44.498C981.171 46.11 979.585 46.89 977.531 46.89C973.969 46.89 970.953 43.978 970.953 39.87C970.953 35.736 973.943 32.85 977.531 32.85C979.585 32.85 981.327 33.708 982.419 35.19V29.132C982.419 28.638 982.757 28.3 983.251 28.3H983.849C984.343 28.3 984.681 28.638 984.681 29.132V45.668C984.681 46.162 984.343 46.5 983.849 46.5ZM973.241 39.87C973.241 42.912 975.321 44.992 977.921 44.992C980.521 44.992 982.549 42.886 982.549 39.87C982.549 36.854 980.521 34.748 977.921 34.748C975.321 34.748 973.241 36.802 973.241 39.87ZM1000.07 40.598H989.389C989.753 43.484 991.833 44.992 994.095 44.992C995.915 44.992 997.345 44.108 998.047 42.834C998.203 42.548 998.515 42.34 998.827 42.34H999.451C999.945 42.34 1000.26 42.574 1000.26 42.938C1000.26 43.068 1000.2 43.224 1000.13 43.38C998.957 45.616 996.773 46.89 994.069 46.89C990.221 46.89 987.127 44.03 987.127 39.87C987.127 35.788 990.169 32.85 994.069 32.85C997.267 32.85 1000.8 34.93 1000.8 39.35C1000.8 40.026 1000.75 40.598 1000.07 40.598ZM994.069 34.748C991.911 34.748 989.935 36.204 989.467 38.7H998.645C998.281 36.1 996.227 34.748 994.069 34.748ZM1008.62 34.332C1008.39 33.682 1008.7 33.24 1009.4 33.24H1010.29C1010.65 33.24 1010.99 33.474 1011.09 33.838L1014.01 43.926H1014.08L1017 33.838C1017.1 33.474 1017.44 33.24 1017.8 33.24H1019.18C1019.54 33.24 1019.88 33.474 1019.99 33.838L1022.95 43.926H1023.03L1025.94 33.838C1026.04 33.474 1026.38 33.24 1026.75 33.24H1027.55C1028.25 33.24 1028.57 33.682 1028.36 34.332L1024.41 45.928C1024.3 46.266 1023.99 46.5 1023.63 46.5H1022.38C1021.99 46.5 1021.68 46.266 1021.57 45.902L1018.5 35.71H1018.43L1015.38 45.902C1015.28 46.266 1014.97 46.5 1014.58 46.5H1013.38C1013.02 46.5 1012.71 46.266 1012.6 45.928L1008.62 34.332ZM1031.87 46.5H1031.27C1030.77 46.5 1030.44 46.162 1030.44 45.668V34.072C1030.44 33.578 1030.77 33.24 1031.27 33.24H1031.87C1032.36 33.24 1032.7 33.578 1032.7 34.072V45.668C1032.7 46.162 1032.36 46.5 1031.87 46.5ZM1031.55 31.134C1030.7 31.134 1030.1 30.484 1030.1 29.678C1030.1 28.872 1030.7 28.222 1031.55 28.222C1032.44 28.222 1033.04 28.872 1033.04 29.678C1033.04 30.484 1032.44 31.134 1031.55 31.134ZM1034.96 34.228V34.072C1034.96 33.578 1035.3 33.24 1035.79 33.24H1037.25V30.406C1037.25 29.912 1037.58 29.574 1038.08 29.574H1038.68C1039.17 29.574 1039.51 29.912 1039.51 30.406V33.24H1042.11C1042.6 33.24 1042.94 33.578 1042.94 34.072V34.228C1042.94 34.722 1042.6 35.06 1042.11 35.06H1039.51V43.12C1039.51 44.316 1039.9 44.94 1041.35 44.94C1041.72 44.94 1042.21 44.836 1042.68 44.836C1043.12 44.836 1043.41 45.096 1043.41 45.59V45.876C1043.41 46.734 1041.8 46.838 1040.99 46.838C1038.42 46.838 1037.25 45.876 1037.25 43.224V35.06H1035.79C1035.3 35.06 1034.96 34.722 1034.96 34.228ZM1045.87 45.668V29.132C1045.87 28.638 1046.21 28.3 1046.71 28.3H1047.3C1047.8 28.3 1048.14 28.638 1048.14 29.132V35.112C1049.23 33.578 1050.92 32.85 1052.76 32.85C1056.04 32.85 1057.52 34.878 1057.52 37.92V45.668C1057.52 46.162 1057.18 46.5 1056.69 46.5H1056.09C1055.6 46.5 1055.26 46.162 1055.26 45.668V38.18C1055.26 36.074 1054.17 34.774 1052.11 34.774C1050.03 34.774 1048.14 36.49 1048.14 38.778V45.668C1048.14 46.162 1047.8 46.5 1047.3 46.5H1046.71C1046.21 46.5 1045.87 46.162 1045.87 45.668Z"/>
</mask>
<path d="M933.988 45.694V45.59L935.392 29.054C935.418 28.612 935.782 28.3 936.224 28.3H937.862C938.2 28.3 938.512 28.508 938.642 28.82L943.478 40.91L948.288 28.82C948.418 28.508 948.73 28.3 949.068 28.3H950.732C951.148 28.3 951.512 28.612 951.564 29.054L952.968 45.59V45.694C952.968 46.188 952.63 46.5 952.136 46.5H951.382C950.914 46.5 950.576 46.188 950.55 45.72L949.562 31.264L944.648 43.38C944.518 43.692 944.206 43.9 943.868 43.9H943.088C942.75 43.9 942.438 43.692 942.308 43.38L937.446 31.264L936.354 45.72C936.328 46.188 935.99 46.5 935.522 46.5H934.82C934.3 46.5 933.988 46.188 933.988 45.694ZM967.675 46.5H967.155C966.661 46.5 966.323 46.188 966.323 45.694V44.472C965.023 46.11 963.411 46.89 961.357 46.89C957.795 46.89 954.779 43.978 954.779 39.87C954.779 35.736 957.769 32.85 961.357 32.85C963.411 32.85 965.153 33.682 966.245 35.19V34.072C966.245 33.578 966.583 33.24 967.077 33.24H967.675C968.169 33.24 968.507 33.578 968.507 34.072V45.668C968.507 46.162 968.169 46.5 967.675 46.5ZM957.067 39.87C957.067 42.912 959.147 44.992 961.747 44.992C964.347 44.992 966.375 42.86 966.375 39.87C966.375 36.854 964.347 34.748 961.747 34.748C959.147 34.748 957.067 36.828 957.067 39.87ZM983.849 46.5H983.329C982.835 46.5 982.497 46.188 982.497 45.694V44.498C981.171 46.11 979.585 46.89 977.531 46.89C973.969 46.89 970.953 43.978 970.953 39.87C970.953 35.736 973.943 32.85 977.531 32.85C979.585 32.85 981.327 33.708 982.419 35.19V29.132C982.419 28.638 982.757 28.3 983.251 28.3H983.849C984.343 28.3 984.681 28.638 984.681 29.132V45.668C984.681 46.162 984.343 46.5 983.849 46.5ZM973.241 39.87C973.241 42.912 975.321 44.992 977.921 44.992C980.521 44.992 982.549 42.886 982.549 39.87C982.549 36.854 980.521 34.748 977.921 34.748C975.321 34.748 973.241 36.802 973.241 39.87ZM1000.07 40.598H989.389C989.753 43.484 991.833 44.992 994.095 44.992C995.915 44.992 997.345 44.108 998.047 42.834C998.203 42.548 998.515 42.34 998.827 42.34H999.451C999.945 42.34 1000.26 42.574 1000.26 42.938C1000.26 43.068 1000.2 43.224 1000.13 43.38C998.957 45.616 996.773 46.89 994.069 46.89C990.221 46.89 987.127 44.03 987.127 39.87C987.127 35.788 990.169 32.85 994.069 32.85C997.267 32.85 1000.8 34.93 1000.8 39.35C1000.8 40.026 1000.75 40.598 1000.07 40.598ZM994.069 34.748C991.911 34.748 989.935 36.204 989.467 38.7H998.645C998.281 36.1 996.227 34.748 994.069 34.748ZM1008.62 34.332C1008.39 33.682 1008.7 33.24 1009.4 33.24H1010.29C1010.65 33.24 1010.99 33.474 1011.09 33.838L1014.01 43.926H1014.08L1017 33.838C1017.1 33.474 1017.44 33.24 1017.8 33.24H1019.18C1019.54 33.24 1019.88 33.474 1019.99 33.838L1022.95 43.926H1023.03L1025.94 33.838C1026.04 33.474 1026.38 33.24 1026.75 33.24H1027.55C1028.25 33.24 1028.57 33.682 1028.36 34.332L1024.41 45.928C1024.3 46.266 1023.99 46.5 1023.63 46.5H1022.38C1021.99 46.5 1021.68 46.266 1021.57 45.902L1018.5 35.71H1018.43L1015.38 45.902C1015.28 46.266 1014.97 46.5 1014.58 46.5H1013.38C1013.02 46.5 1012.71 46.266 1012.6 45.928L1008.62 34.332ZM1031.87 46.5H1031.27C1030.77 46.5 1030.44 46.162 1030.44 45.668V34.072C1030.44 33.578 1030.77 33.24 1031.27 33.24H1031.87C1032.36 33.24 1032.7 33.578 1032.7 34.072V45.668C1032.7 46.162 1032.36 46.5 1031.87 46.5ZM1031.55 31.134C1030.7 31.134 1030.1 30.484 1030.1 29.678C1030.1 28.872 1030.7 28.222 1031.55 28.222C1032.44 28.222 1033.04 28.872 1033.04 29.678C1033.04 30.484 1032.44 31.134 1031.55 31.134ZM1034.96 34.228V34.072C1034.96 33.578 1035.3 33.24 1035.79 33.24H1037.25V30.406C1037.25 29.912 1037.58 29.574 1038.08 29.574H1038.68C1039.17 29.574 1039.51 29.912 1039.51 30.406V33.24H1042.11C1042.6 33.24 1042.94 33.578 1042.94 34.072V34.228C1042.94 34.722 1042.6 35.06 1042.11 35.06H1039.51V43.12C1039.51 44.316 1039.9 44.94 1041.35 44.94C1041.72 44.94 1042.21 44.836 1042.68 44.836C1043.12 44.836 1043.41 45.096 1043.41 45.59V45.876C1043.41 46.734 1041.8 46.838 1040.99 46.838C1038.42 46.838 1037.25 45.876 1037.25 43.224V35.06H1035.79C1035.3 35.06 1034.96 34.722 1034.96 34.228ZM1045.87 45.668V29.132C1045.87 28.638 1046.21 28.3 1046.71 28.3H1047.3C1047.8 28.3 1048.14 28.638 1048.14 29.132V35.112C1049.23 33.578 1050.92 32.85 1052.76 32.85C1056.04 32.85 1057.52 34.878 1057.52 37.92V45.668C1057.52 46.162 1057.18 46.5 1056.69 46.5H1056.09C1055.6 46.5 1055.26 46.162 1055.26 45.668V38.18C1055.26 36.074 1054.17 34.774 1052.11 34.774C1050.03 34.774 1048.14 36.49 1048.14 38.778V45.668C1048.14 46.162 1047.8 46.5 1047.3 46.5H1046.71C1046.21 46.5 1045.87 46.162 1045.87 45.668Z" fill="#0C50FF"/>
<path d="M933.988 45.59L933.834 45.577V45.59H933.988ZM935.392 29.054L935.545 29.067L935.545 29.063L935.392 29.054ZM938.642 28.82L938.785 28.7629L938.784 28.7609L938.642 28.82ZM943.478 40.91L943.335 40.967L943.478 41.3246L943.621 40.9668L943.478 40.91ZM948.288 28.82L948.146 28.7609L948.145 28.7632L948.288 28.82ZM951.564 29.054L951.717 29.041L951.717 29.0361L951.564 29.054ZM952.968 45.59H953.122L953.121 45.577L952.968 45.59ZM950.55 45.72L950.703 45.7115L950.703 45.7095L950.55 45.72ZM949.562 31.264L949.715 31.2535L949.42 31.2063L949.562 31.264ZM944.648 43.38L944.79 43.4391L944.79 43.4377L944.648 43.38ZM942.308 43.38L942.165 43.4372L942.166 43.4391L942.308 43.38ZM937.446 31.264L937.589 31.2068L937.293 31.2524L937.446 31.264ZM936.354 45.72L936.201 45.7084L936.201 45.7115L936.354 45.72ZM934.142 45.694V45.59H933.834V45.694H934.142ZM934.141 45.603L935.545 29.067L935.239 29.041L933.835 45.577L934.141 45.603ZM935.545 29.063C935.566 28.71 935.855 28.4536 936.224 28.4536V28.1464C935.709 28.1464 935.27 28.514 935.239 29.045L935.545 29.063ZM936.224 28.4536H937.862V28.1464H936.224V28.4536ZM937.862 28.4536C938.138 28.4536 938.394 28.6243 938.5 28.8791L938.784 28.7609C938.63 28.3917 938.262 28.1464 937.862 28.1464V28.4536ZM938.499 28.877L943.335 40.967L943.621 40.853L938.785 28.763L938.499 28.877ZM943.621 40.9668L948.431 28.8768L948.145 28.7632L943.335 40.8532L943.621 40.9668ZM948.43 28.8791C948.536 28.6243 948.792 28.4536 949.068 28.4536V28.1464C948.668 28.1464 948.3 28.3917 948.146 28.7609L948.43 28.8791ZM949.068 28.4536H950.732V28.1464H949.068V28.4536ZM950.732 28.4536C951.07 28.4536 951.369 28.707 951.411 29.0719L951.717 29.0361C951.655 28.517 951.226 28.1464 950.732 28.1464V28.4536ZM951.411 29.067L952.815 45.603L953.121 45.577L951.717 29.041L951.411 29.067ZM952.814 45.59V45.694H953.122V45.59H952.814ZM952.814 45.694C952.814 45.9046 952.743 46.0641 952.631 46.1712C952.518 46.2791 952.351 46.3464 952.136 46.3464V46.6536C952.415 46.6536 952.664 46.5649 952.843 46.3933C953.024 46.2209 953.122 45.9774 953.122 45.694H952.814ZM952.136 46.3464H951.382V46.6536H952.136V46.3464ZM951.382 46.3464C951.183 46.3464 951.02 46.2805 950.905 46.1732C950.79 46.0661 950.714 45.9095 950.703 45.7115L950.397 45.7285C950.412 45.9985 950.518 46.2319 950.695 46.3978C950.873 46.5635 951.113 46.6536 951.382 46.6536V46.3464ZM950.703 45.7095L949.715 31.2535L949.409 31.2745L950.397 45.7305L950.703 45.7095ZM949.42 31.2063L944.506 43.3223L944.79 43.4377L949.704 31.3217L949.42 31.2063ZM944.506 43.3209C944.4 43.5757 944.144 43.7464 943.868 43.7464V44.0536C944.268 44.0536 944.636 43.8083 944.79 43.4391L944.506 43.3209ZM943.868 43.7464H943.088V44.0536H943.868V43.7464ZM943.088 43.7464C942.812 43.7464 942.556 43.5757 942.45 43.3209L942.166 43.4391C942.32 43.8083 942.688 44.0536 943.088 44.0536V43.7464ZM942.451 43.3228L937.589 31.2068L937.303 31.3212L942.165 43.4372L942.451 43.3228ZM937.293 31.2524L936.201 45.7084L936.507 45.7316L937.599 31.2756L937.293 31.2524ZM936.201 45.7115C936.19 45.9095 936.114 46.0661 935.999 46.1732C935.884 46.2805 935.721 46.3464 935.522 46.3464V46.6536C935.791 46.6536 936.031 46.5635 936.209 46.3978C936.386 46.2319 936.492 45.9985 936.507 45.7285L936.201 45.7115ZM935.522 46.3464H934.82V46.6536H935.522V46.3464ZM934.82 46.3464C934.591 46.3464 934.425 46.2782 934.316 46.1724C934.208 46.067 934.142 45.9081 934.142 45.694H933.834C933.834 45.9739 933.924 46.218 934.102 46.3921C934.279 46.5658 934.529 46.6536 934.82 46.6536V46.3464ZM966.323 44.472H966.477V44.0314L966.203 44.3765L966.323 44.472ZM966.245 35.19L966.121 35.2801L966.399 35.664V35.19H966.245ZM967.675 46.3464H967.155V46.6536H967.675V46.3464ZM967.155 46.3464C966.941 46.3464 966.773 46.2791 966.66 46.1712C966.548 46.0641 966.477 45.9046 966.477 45.694H966.17C966.17 45.9774 966.268 46.2209 966.448 46.3933C966.627 46.5649 966.876 46.6536 967.155 46.6536V46.3464ZM966.477 45.694V44.472H966.17V45.694H966.477ZM966.203 44.3765C964.932 45.9783 963.364 46.7364 961.357 46.7364V47.0436C963.459 47.0436 965.115 46.2417 966.444 44.5675L966.203 44.3765ZM961.357 46.7364C957.885 46.7364 954.933 43.8982 954.933 39.87H954.626C954.626 44.0578 957.705 47.0436 961.357 47.0436V46.7364ZM954.933 39.87C954.933 35.8158 957.859 33.0036 961.357 33.0036V32.6964C957.679 32.6964 954.626 35.6562 954.626 39.87H954.933ZM961.357 33.0036C963.368 33.0036 965.061 33.8167 966.121 35.2801L966.37 35.0999C965.245 33.5473 963.454 32.6964 961.357 32.6964V33.0036ZM966.399 35.19V34.072H966.092V35.19H966.399ZM966.399 34.072C966.399 33.8609 966.47 33.6936 966.585 33.5794C966.699 33.4652 966.866 33.3936 967.077 33.3936V33.0864C966.794 33.0864 966.546 33.1838 966.367 33.3621C966.189 33.5404 966.092 33.7891 966.092 34.072H966.399ZM967.077 33.3936H967.675V33.0864H967.077V33.3936ZM967.675 33.3936C967.886 33.3936 968.054 33.4652 968.168 33.5794C968.282 33.6936 968.354 33.8609 968.354 34.072H968.661C968.661 33.7891 968.563 33.5404 968.385 33.3621C968.207 33.1838 967.958 33.0864 967.675 33.0864V33.3936ZM968.354 34.072V45.668H968.661V34.072H968.354ZM968.354 45.668C968.354 45.8791 968.282 46.0464 968.168 46.1606C968.054 46.2748 967.886 46.3464 967.675 46.3464V46.6536C967.958 46.6536 968.207 46.5562 968.385 46.3779C968.563 46.1996 968.661 45.9509 968.661 45.668H968.354ZM956.914 39.87C956.914 42.9875 959.053 45.1456 961.747 45.1456V44.8384C959.241 44.8384 957.221 42.8365 957.221 39.87H956.914ZM961.747 45.1456C964.444 45.1456 966.529 42.9321 966.529 39.87H966.222C966.222 42.7879 964.25 44.8384 961.747 44.8384V45.1456ZM966.529 39.87C966.529 36.7813 964.444 34.5944 961.747 34.5944V34.9016C964.251 34.9016 966.222 36.9267 966.222 39.87H966.529ZM961.747 34.5944C959.053 34.5944 956.914 36.7525 956.914 39.87H957.221C957.221 36.9035 959.241 34.9016 961.747 34.9016V34.5944ZM982.497 44.498H982.651V44.0695L982.378 44.4004L982.497 44.498ZM982.419 35.19L982.295 35.2811L982.573 35.6574V35.19H982.419ZM983.849 46.3464H983.329V46.6536H983.849V46.3464ZM983.329 46.3464C983.115 46.3464 982.947 46.2791 982.834 46.1712C982.722 46.0641 982.651 45.9046 982.651 45.694H982.343C982.343 45.9774 982.441 46.2209 982.622 46.3933C982.801 46.5649 983.05 46.6536 983.329 46.6536V46.3464ZM982.651 45.694V44.498H982.343V45.694H982.651ZM982.378 44.4004C981.08 45.9787 979.537 46.7364 977.531 46.7364V47.0436C979.633 47.0436 981.262 46.2413 982.616 44.5956L982.378 44.4004ZM977.531 46.7364C974.059 46.7364 971.107 43.8982 971.107 39.87H970.799C970.799 44.0578 973.879 47.0436 977.531 47.0436V46.7364ZM971.107 39.87C971.107 35.8158 974.033 33.0036 977.531 33.0036V32.6964C973.853 32.6964 970.799 35.6562 970.799 39.87H971.107ZM977.531 33.0036C979.541 33.0036 981.235 33.8418 982.295 35.2811L982.543 35.0989C981.419 33.5742 979.63 32.6964 977.531 32.6964V33.0036ZM982.573 35.19V29.132H982.265V35.19H982.573ZM982.573 29.132C982.573 28.9209 982.644 28.7536 982.758 28.6394C982.873 28.5252 983.04 28.4536 983.251 28.4536V28.1464C982.968 28.1464 982.72 28.2438 982.541 28.4221C982.363 28.6004 982.265 28.8491 982.265 29.132H982.573ZM983.251 28.4536H983.849V28.1464H983.251V28.4536ZM983.849 28.4536C984.06 28.4536 984.228 28.5252 984.342 28.6394C984.456 28.7536 984.527 28.9209 984.527 29.132H984.835C984.835 28.8491 984.737 28.6004 984.559 28.4221C984.381 28.2438 984.132 28.1464 983.849 28.1464V28.4536ZM984.527 29.132V45.668H984.835V29.132H984.527ZM984.527 45.668C984.527 45.8791 984.456 46.0464 984.342 46.1606C984.228 46.2748 984.06 46.3464 983.849 46.3464V46.6536C984.132 46.6536 984.381 46.5562 984.559 46.3779C984.737 46.1996 984.835 45.9509 984.835 45.668H984.527ZM973.087 39.87C973.087 42.9875 975.227 45.1456 977.921 45.1456V44.8384C975.415 44.8384 973.395 42.8365 973.395 39.87H973.087ZM977.921 45.1456C980.618 45.1456 982.703 42.9587 982.703 39.87H982.395C982.395 42.8133 980.425 44.8384 977.921 44.8384V45.1456ZM982.703 39.87C982.703 36.7813 980.618 34.5944 977.921 34.5944V34.9016C980.425 34.9016 982.395 36.9267 982.395 39.87H982.703ZM977.921 34.5944C975.228 34.5944 973.087 36.7259 973.087 39.87H973.395C973.395 36.8781 975.414 34.9016 977.921 34.9016V34.5944ZM989.389 40.598V40.4444H989.215L989.237 40.6172L989.389 40.598ZM998.047 42.834L998.181 42.9081L998.182 42.9076L998.047 42.834ZM1000.13 43.38L1000.26 43.4512L1000.26 43.4487L1000.13 43.38ZM989.467 38.7L989.316 38.6717L989.282 38.8536H989.467V38.7ZM998.645 38.7V38.8536H998.822L998.797 38.6787L998.645 38.7ZM1000.07 40.4444H989.389V40.7516H1000.07V40.4444ZM989.237 40.6172C989.61 43.5819 991.757 45.1456 994.095 45.1456V44.8384C991.908 44.8384 989.895 43.3861 989.541 40.5788L989.237 40.6172ZM994.095 45.1456C995.966 45.1456 997.45 44.2351 998.181 42.9081L997.912 42.7599C997.24 43.9809 995.864 44.8384 994.095 44.8384V45.1456ZM998.182 42.9076C998.315 42.6632 998.579 42.4936 998.827 42.4936V42.1864C998.45 42.1864 998.091 42.4328 997.912 42.7604L998.182 42.9076ZM998.827 42.4936H999.451V42.1864H998.827V42.4936ZM999.451 42.4936C999.676 42.4936 999.842 42.5471 999.947 42.6257C1000.05 42.7011 1000.1 42.8051 1000.1 42.938H1000.41C1000.41 42.7069 1000.31 42.5119 1000.13 42.3793C999.957 42.2499 999.72 42.1864 999.451 42.1864V42.4936ZM1000.1 42.938C1000.1 43.0326 1000.06 43.1631 999.99 43.3113L1000.26 43.4487C1000.35 43.2849 1000.41 43.1034 1000.41 42.938H1000.1ZM999.991 43.3088C998.849 45.4903 996.72 46.7364 994.069 46.7364V47.0436C996.826 47.0436 999.065 45.7417 1000.26 43.4512L999.991 43.3088ZM994.069 46.7364C990.303 46.7364 987.281 43.9429 987.281 39.87H986.973C986.973 44.1171 990.138 47.0436 994.069 47.0436V46.7364ZM987.281 39.87C987.281 35.8732 990.253 33.0036 994.069 33.0036V32.6964C990.084 32.6964 986.973 35.7028 986.973 39.87H987.281ZM994.069 33.0036C995.637 33.0036 997.284 33.5139 998.537 34.5604C999.785 35.6036 1000.65 37.1854 1000.65 39.35H1000.96C1000.96 37.0946 1000.05 35.4264 998.734 34.3246C997.419 33.2261 995.699 32.6964 994.069 32.6964V33.0036ZM1000.65 39.35C1000.65 39.6928 1000.63 39.973 1000.55 40.167C1000.51 40.259 1000.46 40.3246 1000.39 40.3688C1000.32 40.4134 1000.22 40.4444 1000.07 40.4444V40.7516C1000.27 40.7516 1000.43 40.7111 1000.56 40.6273C1000.69 40.5431 1000.78 40.4235 1000.83 40.288C1000.95 40.027 1000.96 39.6832 1000.96 39.35H1000.65ZM994.069 34.5944C991.838 34.5944 989.798 36.1018 989.316 38.6717L989.618 38.7283C990.072 36.3062 991.984 34.9016 994.069 34.9016V34.5944ZM989.467 38.8536H998.645V38.5464H989.467V38.8536ZM998.797 38.6787C998.421 35.9921 996.292 34.5944 994.069 34.5944V34.9016C996.162 34.9016 998.141 36.2079 998.493 38.7213L998.797 38.6787ZM1008.62 34.332L1008.77 34.2822L1008.77 34.28L1008.62 34.332ZM1011.09 33.838L1010.95 33.8802L1010.95 33.8806L1011.09 33.838ZM1014.01 43.926L1013.86 43.9686L1013.89 44.0796H1014.01V43.926ZM1014.08 43.926V44.0796H1014.2L1014.23 43.9686L1014.08 43.926ZM1017 33.838L1017.14 33.8806L1017.14 33.8802L1017 33.838ZM1019.99 33.838L1019.84 33.8802L1019.84 33.8813L1019.99 33.838ZM1022.95 43.926L1022.8 43.9693L1022.84 44.0796H1022.95V43.926ZM1023.03 43.926V44.0796H1023.14L1023.18 43.9686L1023.03 43.926ZM1025.94 33.838L1026.09 33.8806L1026.09 33.8802L1025.94 33.838ZM1028.36 34.332L1028.5 34.3816L1028.51 34.3788L1028.36 34.332ZM1024.41 45.928L1024.26 45.8784L1024.26 45.8828L1024.41 45.928ZM1021.57 45.902L1021.72 45.8598L1021.72 45.8577L1021.57 45.902ZM1018.5 35.71L1018.65 35.6657L1018.62 35.5564H1018.5V35.71ZM1018.43 35.71V35.5564H1018.31L1018.28 35.6661L1018.43 35.71ZM1015.38 45.902L1015.24 45.8581L1015.24 45.8598L1015.38 45.902ZM1012.6 45.928L1012.75 45.8828L1012.75 45.8782L1012.6 45.928ZM1008.77 34.28C1008.66 33.9832 1008.69 33.7679 1008.79 33.6313C1008.89 33.4943 1009.08 33.3936 1009.4 33.3936V33.0864C1009.02 33.0864 1008.71 33.2067 1008.54 33.4532C1008.36 33.7001 1008.35 34.0308 1008.48 34.384L1008.77 34.28ZM1009.4 33.3936H1010.29V33.0864H1009.4V33.3936ZM1010.29 33.3936C1010.59 33.3936 1010.86 33.5864 1010.95 33.8802L1011.24 33.7958C1011.12 33.3616 1010.72 33.0864 1010.29 33.0864V33.3936ZM1010.95 33.8806L1013.86 43.9686L1014.15 43.8834L1011.24 33.7954L1010.95 33.8806ZM1014.01 44.0796H1014.08V43.7724H1014.01V44.0796ZM1014.23 43.9686L1017.14 33.8806L1016.85 33.7954L1013.94 43.8834L1014.23 43.9686ZM1017.14 33.8802C1017.23 33.5864 1017.5 33.3936 1017.8 33.3936V33.0864C1017.37 33.0864 1016.97 33.3616 1016.85 33.7958L1017.14 33.8802ZM1017.8 33.3936H1019.18V33.0864H1017.8V33.3936ZM1019.18 33.3936C1019.48 33.3936 1019.76 33.5864 1019.84 33.8802L1020.13 33.7958C1020.01 33.3616 1019.61 33.0864 1019.18 33.0864V33.3936ZM1019.84 33.8813L1022.8 43.9693L1023.1 43.8827L1020.13 33.7947L1019.84 33.8813ZM1022.95 44.0796H1023.03V43.7724H1022.95V44.0796ZM1023.18 43.9686L1026.09 33.8806L1025.79 33.7954L1022.88 43.8834L1023.18 43.9686ZM1026.09 33.8802C1026.17 33.5864 1026.45 33.3936 1026.75 33.3936V33.0864C1026.32 33.0864 1025.92 33.3616 1025.79 33.7958L1026.09 33.8802ZM1026.75 33.3936H1027.55V33.0864H1026.75V33.3936ZM1027.55 33.3936C1027.87 33.3936 1028.07 33.494 1028.17 33.6327C1028.27 33.7716 1028.31 33.9886 1028.21 34.2852L1028.51 34.3788C1028.62 34.0254 1028.6 33.6964 1028.42 33.4518C1028.24 33.207 1027.93 33.0864 1027.55 33.0864V33.3936ZM1028.21 34.2824L1024.26 45.8784L1024.55 45.9776L1028.5 34.3815L1028.21 34.2824ZM1024.26 45.8828C1024.18 46.1563 1023.92 46.3464 1023.63 46.3464V46.6536C1024.06 46.6536 1024.43 46.3757 1024.55 45.9732L1024.26 45.8828ZM1023.63 46.3464H1022.38V46.6536H1023.63V46.3464ZM1022.38 46.3464C1022.06 46.3464 1021.81 46.1563 1021.72 45.8598L1021.43 45.9442C1021.55 46.3757 1021.92 46.6536 1022.38 46.6536V46.3464ZM1021.72 45.8577L1018.65 35.6657L1018.36 35.7543L1021.43 45.9463L1021.72 45.8577ZM1018.5 35.5564H1018.43V35.8636H1018.5V35.5564ZM1018.28 35.6661L1015.24 45.8581L1015.53 45.9459L1018.57 35.7539L1018.28 35.6661ZM1015.24 45.8598C1015.15 46.1563 1014.9 46.3464 1014.58 46.3464V46.6536C1015.04 46.6536 1015.41 46.3757 1015.53 45.9442L1015.24 45.8598ZM1014.58 46.3464H1013.38V46.6536H1014.58V46.3464ZM1013.38 46.3464C1013.09 46.3464 1012.83 46.1563 1012.75 45.8828L1012.46 45.9732C1012.58 46.3757 1012.95 46.6536 1013.38 46.6536V46.3464ZM1012.75 45.8782L1008.77 34.2822L1008.48 34.3818L1012.46 45.9778L1012.75 45.8782ZM1031.87 46.3464H1031.27V46.6536H1031.87V46.3464ZM1031.27 46.3464C1031.06 46.3464 1030.89 46.2748 1030.78 46.1606C1030.66 46.0464 1030.59 45.8791 1030.59 45.668H1030.28C1030.28 45.9509 1030.38 46.1996 1030.56 46.3779C1030.74 46.5562 1030.99 46.6536 1031.27 46.6536V46.3464ZM1030.59 45.668V34.072H1030.28V45.668H1030.59ZM1030.59 34.072C1030.59 33.8609 1030.66 33.6936 1030.78 33.5794C1030.89 33.4652 1031.06 33.3936 1031.27 33.3936V33.0864C1030.99 33.0864 1030.74 33.1838 1030.56 33.3621C1030.38 33.5404 1030.28 33.7891 1030.28 34.072H1030.59ZM1031.27 33.3936H1031.87V33.0864H1031.27V33.3936ZM1031.87 33.3936C1032.08 33.3936 1032.24 33.4652 1032.36 33.5794C1032.47 33.6936 1032.54 33.8609 1032.54 34.072H1032.85C1032.85 33.7891 1032.75 33.5404 1032.58 33.3621C1032.4 33.1838 1032.15 33.0864 1031.87 33.0864V33.3936ZM1032.54 34.072V45.668H1032.85V34.072H1032.54ZM1032.54 45.668C1032.54 45.8791 1032.47 46.0464 1032.36 46.1606C1032.24 46.2748 1032.08 46.3464 1031.87 46.3464V46.6536C1032.15 46.6536 1032.4 46.5562 1032.58 46.3779C1032.75 46.1996 1032.85 45.9509 1032.85 45.668H1032.54ZM1031.55 30.9804C1030.78 30.9804 1030.25 30.4028 1030.25 29.678H1029.94C1029.94 30.5652 1030.61 31.2876 1031.55 31.2876V30.9804ZM1030.25 29.678C1030.25 28.9532 1030.78 28.3756 1031.55 28.3756V28.0684C1030.61 28.0684 1029.94 28.7908 1029.94 29.678H1030.25ZM1031.55 28.3756C1032.35 28.3756 1032.88 28.955 1032.88 29.678H1033.19C1033.19 28.789 1032.52 28.0684 1031.55 28.0684V28.3756ZM1032.88 29.678C1032.88 30.401 1032.35 30.9804 1031.55 30.9804V31.2876C1032.52 31.2876 1033.19 30.567 1033.19 29.678H1032.88ZM1037.25 33.24V33.3936H1037.4V33.24H1037.25ZM1039.51 33.24H1039.35V33.3936H1039.51V33.24ZM1039.51 35.06V34.9064H1039.35V35.06H1039.51ZM1037.25 35.06H1037.4V34.9064H1037.25V35.06ZM1035.11 34.228V34.072H1034.8V34.228H1035.11ZM1035.11 34.072C1035.11 33.8609 1035.18 33.6936 1035.3 33.5794C1035.41 33.4652 1035.58 33.3936 1035.79 33.3936V33.0864C1035.51 33.0864 1035.26 33.1838 1035.08 33.3621C1034.9 33.5404 1034.8 33.7891 1034.8 34.072H1035.11ZM1035.79 33.3936H1037.25V33.0864H1035.79V33.3936ZM1037.4 33.24V30.406H1037.09V33.24H1037.4ZM1037.4 30.406C1037.4 30.1949 1037.47 30.0276 1037.59 29.9134C1037.7 29.7992 1037.87 29.7276 1038.08 29.7276V29.4204C1037.8 29.4204 1037.55 29.5178 1037.37 29.6961C1037.19 29.8744 1037.09 30.1231 1037.09 30.406H1037.4ZM1038.08 29.7276H1038.68V29.4204H1038.08V29.7276ZM1038.68 29.7276C1038.89 29.7276 1039.06 29.7992 1039.17 29.9134C1039.28 30.0276 1039.35 30.1949 1039.35 30.406H1039.66C1039.66 30.1231 1039.56 29.8744 1039.39 29.6961C1039.21 29.5178 1038.96 29.4204 1038.68 29.4204V29.7276ZM1039.35 30.406V33.24H1039.66V30.406H1039.35ZM1039.51 33.3936H1042.11V33.0864H1039.51V33.3936ZM1042.11 33.3936C1042.32 33.3936 1042.49 33.4652 1042.6 33.5794C1042.72 33.6936 1042.79 33.8609 1042.79 34.072H1043.09C1043.09 33.7891 1043 33.5404 1042.82 33.3621C1042.64 33.1838 1042.39 33.0864 1042.11 33.0864V33.3936ZM1042.79 34.072V34.228H1043.09V34.072H1042.79ZM1042.79 34.228C1042.79 34.4391 1042.72 34.6064 1042.6 34.7206C1042.49 34.8348 1042.32 34.9064 1042.11 34.9064V35.2136C1042.39 35.2136 1042.64 35.1162 1042.82 34.9379C1043 34.7596 1043.09 34.5109 1043.09 34.228H1042.79ZM1042.11 34.9064H1039.51V35.2136H1042.11V34.9064ZM1039.35 35.06V43.12H1039.66V35.06H1039.35ZM1039.35 43.12C1039.35 43.7276 1039.45 44.2326 1039.77 44.5822C1040.09 44.9348 1040.61 45.0936 1041.35 45.0936V44.7864C1040.64 44.7864 1040.24 44.6332 1040 44.3748C1039.76 44.1134 1039.66 43.7084 1039.66 43.12H1039.35ZM1041.35 45.0936C1041.55 45.0936 1041.77 45.0662 1042 45.0406C1042.22 45.0145 1042.46 44.9896 1042.68 44.9896V44.6824C1042.44 44.6824 1042.19 44.7095 1041.96 44.7354C1041.73 44.7618 1041.53 44.7864 1041.35 44.7864V45.0936ZM1042.68 44.9896C1042.87 44.9896 1043.01 45.0453 1043.1 45.1364C1043.19 45.2273 1043.25 45.3725 1043.25 45.59H1043.56C1043.56 45.3135 1043.48 45.0817 1043.32 44.9191C1043.16 44.7567 1042.93 44.6824 1042.68 44.6824V44.9896ZM1043.25 45.59V45.876H1043.56V45.59H1043.25ZM1043.25 45.876C1043.25 46.0342 1043.18 46.1604 1043.05 46.2681C1042.91 46.3796 1042.71 46.4661 1042.46 46.5303C1041.98 46.6583 1041.39 46.6844 1040.99 46.6844V46.9916C1041.4 46.9916 1042.02 46.9657 1042.54 46.8272C1042.8 46.7581 1043.05 46.6578 1043.24 46.5084C1043.43 46.3554 1043.56 46.1468 1043.56 45.876H1043.25ZM1040.99 46.6844C1039.72 46.6844 1038.83 46.4452 1038.26 45.9131C1037.69 45.3833 1037.4 44.5315 1037.4 43.224H1037.09C1037.09 44.5685 1037.39 45.5237 1038.05 46.1379C1038.71 46.7498 1039.69 46.9916 1040.99 46.9916V46.6844ZM1037.4 43.224V35.06H1037.09V43.224H1037.4ZM1037.25 34.9064H1035.79V35.2136H1037.25V34.9064ZM1035.79 34.9064C1035.58 34.9064 1035.41 34.8348 1035.3 34.7206C1035.18 34.6064 1035.11 34.4391 1035.11 34.228H1034.8C1034.8 34.5109 1034.9 34.7596 1035.08 34.9379C1035.26 35.1162 1035.51 35.2136 1035.79 35.2136V34.9064ZM1048.14 35.112H1047.98V35.5926L1048.26 35.2011L1048.14 35.112ZM1046.03 45.668V29.132H1045.72V45.668H1046.03ZM1046.03 29.132C1046.03 28.9209 1046.1 28.7536 1046.21 28.6394C1046.33 28.5252 1046.49 28.4536 1046.71 28.4536V28.1464C1046.42 28.1464 1046.17 28.2438 1046 28.4221C1045.82 28.6004 1045.72 28.8491 1045.72 29.132H1046.03ZM1046.71 28.4536H1047.3V28.1464H1046.71V28.4536ZM1047.3 28.4536C1047.51 28.4536 1047.68 28.5252 1047.8 28.6394C1047.91 28.7536 1047.98 28.9209 1047.98 29.132H1048.29C1048.29 28.8491 1048.19 28.6004 1048.01 28.4221C1047.84 28.2438 1047.59 28.1464 1047.3 28.1464V28.4536ZM1047.98 29.132V35.112H1048.29V29.132H1047.98ZM1048.26 35.2011C1049.32 33.7137 1050.96 33.0036 1052.76 33.0036V32.6964C1050.88 32.6964 1049.14 33.4423 1048.01 35.0229L1048.26 35.2011ZM1052.76 33.0036C1054.37 33.0036 1055.51 33.4992 1056.26 34.3457C1057 35.1955 1057.37 36.4216 1057.37 37.92H1057.68C1057.68 36.3764 1057.3 35.0675 1056.49 34.1428C1055.67 33.2148 1054.43 32.6964 1052.76 32.6964V33.0036ZM1057.37 37.92V45.668H1057.68V37.92H1057.37ZM1057.37 45.668C1057.37 45.8791 1057.3 46.0464 1057.18 46.1606C1057.07 46.2748 1056.9 46.3464 1056.69 46.3464V46.6536C1056.97 46.6536 1057.22 46.5562 1057.4 46.3779C1057.58 46.1996 1057.68 45.9509 1057.68 45.668H1057.37ZM1056.69 46.3464H1056.09V46.6536H1056.69V46.3464ZM1056.09 46.3464C1055.88 46.3464 1055.71 46.2748 1055.6 46.1606C1055.48 46.0464 1055.41 45.8791 1055.41 45.668H1055.11C1055.11 45.9509 1055.2 46.1996 1055.38 46.3779C1055.56 46.5562 1055.81 46.6536 1056.09 46.6536V46.3464ZM1055.41 45.668V38.18H1055.11V45.668H1055.41ZM1055.41 38.18C1055.41 37.102 1055.13 36.2093 1054.57 35.5845C1054.01 34.9572 1053.17 34.6204 1052.11 34.6204V34.9276C1053.11 34.9276 1053.85 35.2408 1054.34 35.79C1054.84 36.3417 1055.11 37.152 1055.11 38.18H1055.41ZM1052.11 34.6204C1049.95 34.6204 1047.98 36.4013 1047.98 38.778H1048.29C1048.29 36.5787 1050.11 34.9276 1052.11 34.9276V34.6204ZM1047.98 38.778V45.668H1048.29V38.778H1047.98ZM1047.98 45.668C1047.98 45.8791 1047.91 46.0464 1047.8 46.1606C1047.68 46.2748 1047.51 46.3464 1047.3 46.3464V46.6536C1047.59 46.6536 1047.84 46.5562 1048.01 46.3779C1048.19 46.1996 1048.29 45.9509 1048.29 45.668H1047.98ZM1047.3 46.3464H1046.71V46.6536H1047.3V46.3464ZM1046.71 46.3464C1046.49 46.3464 1046.33 46.2748 1046.21 46.1606C1046.1 46.0464 1046.03 45.8791 1046.03 45.668H1045.72C1045.72 45.9509 1045.82 46.1996 1046 46.3779C1046.17 46.5562 1046.42 46.6536 1046.71 46.6536V46.3464Z" fill="#0C50FF" mask="url(#path-2-outside-1_83_420)"/>
<mask id="mask0_83_420" style="mask-type:luminance" maskUnits="userSpaceOnUse" x="1070" y="20" width="40" height="35">
<path d="M1070 20H1110V55H1070V20Z" fill="white"/>
<path fill-rule="evenodd" clip-rule="evenodd" d="M1077.51 27.5229C1076.22 28.8285 1075.5 30.5906 1075.5 32.4266C1075.5 34.2626 1076.22 36.0244 1077.51 37.3299L1077.52 37.3319L1089.66 49.4879L1089.66 49.4899C1089.72 49.5476 1089.8 49.5799 1089.88 49.5799H1089.89C1089.98 49.5798 1090.06 49.5468 1090.12 49.4879L1102.26 37.3319L1102.26 37.3299C1103.55 36.0243 1104.27 34.2624 1104.27 32.4264C1104.27 30.5904 1103.55 28.8284 1102.26 27.5229C1100.96 26.227 1099.2 25.4997 1097.36 25.5002C1095.52 25.5008 1093.76 26.2292 1092.46 27.5259L1090.59 29.3899C1090.41 29.5773 1090.15 29.6826 1089.89 29.6826C1089.62 29.6826 1089.37 29.5773 1089.18 29.3899L1087.32 27.5259C1086.02 26.2288 1084.25 25.5002 1082.42 25.4996C1080.58 25.4991 1078.82 26.2266 1077.51 27.5229ZM1075.75 25.7559C1077.52 23.9909 1079.91 22.9998 1082.41 22.9998C1084.91 22.9998 1087.31 23.9909 1089.08 25.7559L1089.08 25.7569L1089.18 25.8549C1089.37 26.0423 1089.62 26.1476 1089.89 26.1476C1090.15 26.1476 1090.41 26.0423 1090.59 25.8549L1090.69 25.7569L1090.69 25.7559C1092.46 23.9906 1094.86 22.9993 1097.36 22.9993C1099.86 22.9993 1102.26 23.9906 1104.03 25.7559L1104.04 25.7619C1105.79 27.5357 1106.78 29.9306 1106.78 32.4264C1106.78 34.9221 1105.79 37.317 1104.04 39.0909L1104.03 39.0949L1091.88 51.2589L1091.88 51.2629C1091.35 51.7878 1090.63 52.0813 1089.89 52.0789C1089.14 52.081 1088.43 51.7875 1087.9 51.2629L1087.89 51.2589L1075.74 39.0909C1073.98 37.317 1073 34.9218 1073 32.4259C1073 29.9299 1073.98 27.5347 1075.74 25.7609L1075.75 25.7559Z" fill="black"/>
</mask>
<g mask="url(#mask0_83_420)">
<path d="M1077.51 27.5233L1075.82 25.8233L1075.81 25.8303L1075.81 25.8363L1077.51 27.5233ZM1077.52 37.3323L1075.81 39.0213L1075.82 39.0283L1077.52 37.3323ZM1089.66 49.4883L1087.96 51.1843L1087.97 51.1933L1089.66 49.4883ZM1089.89 49.5793L1089.9 47.1793H1089.87L1089.89 49.5793ZM1090.12 49.4903L1091.8 51.2043L1091.8 51.2033L1090.12 49.4903ZM1090.12 49.4883L1091.81 51.1933L1091.82 51.1843L1090.12 49.4883ZM1102.26 37.3323L1103.96 39.0283L1103.96 39.0213L1102.26 37.3323H1102.26ZM1102.26 37.3303L1103.97 39.0203L1103.97 39.0183L1102.26 37.3303ZM1102.26 27.5233L1103.97 25.8363L1103.96 25.8293L1103.95 25.8233L1102.26 27.5233ZM1075.75 25.7563L1074.05 24.0563L1074.05 24.0623L1075.75 25.7563ZM1089.08 25.7573L1090.78 24.0603L1090.78 24.0573L1089.08 25.7573ZM1090.69 25.7573L1089 24.0583L1089 24.0603L1090.69 25.7573H1090.69ZM1104.04 25.7623L1105.74 24.0743L1105.74 24.0683L1105.73 24.0623L1104.04 25.7623ZM1104.04 39.0913L1105.74 40.7833L1105.74 40.7793L1104.04 39.0913ZM1104.03 39.0953L1105.73 40.7913L1105.73 40.7863L1104.03 39.0953ZM1091.88 51.2593L1093.58 52.9593L1093.58 52.9553L1091.88 51.2593ZM1091.88 51.2633L1093.57 52.9673L1093.57 52.9633L1091.88 51.2633ZM1089.89 52.0803L1089.9 49.6803H1089.88L1089.89 52.0803ZM1087.9 51.2633L1086.2 52.9633L1086.21 52.9673L1087.9 51.2633ZM1087.89 51.2593L1086.2 52.9553L1086.2 52.9593L1087.89 51.2593ZM1075.74 39.0913L1074.03 40.7793L1074.04 40.7873L1075.74 39.0913ZM1075.74 25.7613L1074.04 24.0683L1074.03 24.0743L1075.74 25.7613ZM1077.9 32.4263C1077.9 31.2223 1078.38 30.0663 1079.22 29.2113L1075.81 25.8363C1074.07 27.5912 1073.1 29.959 1073.1 32.4263H1077.9ZM1079.22 35.6433C1078.38 34.7869 1077.9 33.6309 1077.9 32.4263H1073.1C1073.1 34.8943 1074.07 37.2633 1075.81 39.0183L1079.22 35.6433ZM1079.22 35.6433L1075.81 39.0173L1075.81 39.0213L1079.22 35.6433ZM1091.36 47.7933L1079.22 35.6363L1075.82 39.0283L1087.96 51.1843L1091.36 47.7933ZM1091.34 47.7763C1091.34 47.779 1091.34 47.7817 1091.35 47.7843L1087.97 51.1933L1087.98 51.2033L1091.34 47.7763ZM1090.67 47.3343C1090.92 47.4363 1091.15 47.5863 1091.34 47.7753L1087.98 51.2033C1088.23 51.4493 1088.53 51.6443 1088.85 51.7783L1090.67 47.3343ZM1089.87 47.1793C1090.14 47.178 1090.41 47.2307 1090.67 47.3343L1088.85 51.7783C1089.18 51.9133 1089.54 51.9813 1089.89 51.9793L1089.87 47.1793ZM1089.87 47.1793H1089.87L1089.89 51.9793H1089.9L1089.87 47.1793ZM1089.91 47.1793H1089.9L1089.87 51.9793H1089.88L1089.91 47.1793ZM1089.11 47.3343C1089.36 47.2307 1089.63 47.178 1089.91 47.1793L1089.88 51.9793C1090.24 51.9813 1090.59 51.9133 1090.92 51.7783L1089.11 47.3343ZM1088.44 47.7753C1088.63 47.5863 1088.86 47.4363 1089.11 47.3353L1090.92 51.7783C1091.25 51.6452 1091.54 51.4493 1091.8 51.2033L1088.44 47.7753ZM1088.43 47.7843C1088.43 47.7817 1088.43 47.779 1088.44 47.7763L1091.8 51.2033C1091.8 51.2 1091.8 51.1967 1091.81 51.1933L1088.43 47.7833V47.7843ZM1100.56 35.6363L1088.42 47.7923L1091.82 51.1843L1103.96 39.0283L1100.56 35.6363ZM1100.55 35.6413C1100.55 35.6433 1100.55 35.6443 1100.55 35.6443L1103.96 39.0213L1103.97 39.0193L1100.55 35.6413ZM1101.87 32.4263C1101.87 33.6313 1101.4 34.7863 1100.55 35.6433L1103.97 39.0183C1105.7 37.2634 1106.68 34.8946 1106.68 32.4263H1101.87ZM1100.55 29.2113C1101.4 30.0676 1101.87 31.2227 1101.87 32.4263H1106.68C1106.68 29.959 1105.7 27.5912 1103.97 25.8363L1100.56 29.2123L1100.55 29.2113ZM1097.36 27.9003C1098.56 27.9003 1099.72 28.3763 1100.57 29.2243L1103.95 25.8233C1102.2 24.0794 1099.83 23.1003 1097.36 23.1003V27.9003ZM1094.15 29.2253C1095.01 28.3767 1096.16 27.9003 1097.36 27.9003V23.1003C1094.89 23.1003 1092.52 24.0803 1090.77 25.8263L1094.15 29.2263V29.2253ZM1082.41 27.9003C1083.62 27.9003 1084.77 28.3773 1085.62 29.2263L1089.01 25.8263C1087.26 24.0805 1084.89 23.1002 1082.41 23.1003V27.9003ZM1079.21 29.2243C1080.06 28.3764 1081.21 27.9003 1082.41 27.9003V23.1003C1079.94 23.1 1077.57 24.0792 1075.82 25.8233L1079.21 29.2233V29.2243ZM1082.41 20.6003C1079.28 20.6002 1076.27 21.8434 1074.05 24.0573L1077.44 27.4563C1078.76 26.1398 1080.55 25.4004 1082.41 25.4003V20.6003ZM1090.78 24.0573C1088.56 21.8437 1085.55 20.6005 1082.41 20.6003V25.4003C1084.28 25.4003 1086.07 26.1393 1087.39 27.4563L1090.78 24.0563L1090.78 24.0573ZM1090.78 24.0573H1090.78L1087.39 27.4553L1087.39 27.4563L1090.78 24.0563L1090.78 24.0573ZM1090.88 24.1573L1090.78 24.0603L1087.39 27.4543L1087.48 27.5523L1090.88 24.1573ZM1089 24.0603L1088.9 24.1583L1092.29 27.5523L1092.39 27.4543L1089 24.0603ZM1089 24.0573L1089 24.0583L1092.39 27.4563L1089 24.0563L1089 24.0573ZM1097.36 20.6003C1094.23 20.6005 1091.22 21.8437 1089 24.0573L1092.39 27.4563C1093.71 26.14 1095.5 25.4007 1097.36 25.4003V20.6003ZM1105.72 24.0573C1103.5 21.8437 1100.5 20.6005 1097.36 20.6003V25.4003C1099.23 25.4001 1101.02 26.1395 1102.34 27.4563L1105.72 24.0563L1105.72 24.0573ZM1105.73 24.0623L1105.72 24.0573L1102.34 27.4563L1102.34 27.4613L1105.73 24.0623H1105.73ZM1109.18 32.4263C1109.18 29.2983 1107.94 26.2963 1105.74 24.0743L1102.33 27.4503C1103.64 28.7748 1104.38 30.5629 1104.38 32.4263H1109.18ZM1105.74 40.7793C1107.94 38.556 1109.18 35.5543 1109.18 32.4263H1104.38C1104.38 34.2897 1103.64 36.0779 1102.33 37.4023L1105.74 40.7793ZM1105.73 40.7863L1105.74 40.7833L1102.33 37.3993L1102.33 37.4033L1105.73 40.7863ZM1093.58 52.9553L1105.73 40.7913L1102.33 37.3993L1090.18 49.5633L1093.58 52.9553ZM1093.57 52.9633L1093.58 52.9593L1090.19 49.5593L1090.18 49.5633L1093.57 52.9633ZM1091.87 54.0933C1092.5 53.8336 1093.08 53.4509 1093.57 52.9673L1090.19 49.5593C1090.15 49.598 1090.1 49.6276 1090.05 49.6483L1091.87 54.0933ZM1089.88 54.4793C1090.56 54.4815 1091.24 54.3511 1091.87 54.0933L1090.05 49.6483C1090 49.6689 1089.95 49.6804 1089.9 49.6803L1089.88 54.4793ZM1087.91 54.0923C1088.54 54.3503 1089.21 54.4823 1089.9 54.4793L1089.88 49.6803C1089.83 49.6807 1089.77 49.6685 1089.72 49.6483L1087.91 54.0923ZM1086.21 52.9673C1086.69 53.4505 1087.27 53.8328 1087.91 54.0923L1089.72 49.6483C1089.67 49.6279 1089.63 49.5976 1089.59 49.5593L1086.21 52.9673ZM1086.2 52.9593L1086.2 52.9633L1089.59 49.5633L1089.59 49.5593L1086.2 52.9593ZM1070.6 32.4263C1070.6 35.5543 1071.83 38.5563 1074.03 40.7793L1077.45 37.4023C1076.14 36.0779 1075.4 34.2897 1075.4 32.4263H1070.6ZM1074.03 24.0743C1071.83 26.2974 1070.6 29.2987 1070.6 32.4263H1075.4C1075.4 30.5633 1076.14 28.7753 1077.45 27.4503L1074.03 24.0743ZM1074.05 24.0623L1074.04 24.0683L1077.44 27.4563L1077.45 27.4503L1074.05 24.0623ZM1092.29 31.0873L1094.16 29.2233L1090.76 25.8293L1088.9 27.6933L1092.29 31.0873ZM1085.62 29.2233L1087.48 31.0873L1090.88 27.6933L1089.01 25.8293L1085.62 29.2233ZM1074.04 40.7873L1086.2 52.9553L1089.59 49.5633L1077.44 37.3953L1074.04 40.7873ZM1087.48 27.5523C1087.8 27.8682 1088.17 28.1187 1088.59 28.2896C1089 28.4605 1089.44 28.5485 1089.89 28.5485C1090.33 28.5485 1090.78 28.4605 1091.19 28.2896C1091.6 28.1187 1091.98 27.8682 1092.29 27.5523L1088.9 24.1583C1089.03 24.0283 1089.18 23.9252 1089.35 23.8548C1089.52 23.7845 1089.7 23.7482 1089.89 23.7482C1090.07 23.7482 1090.25 23.7845 1090.42 23.8548C1090.59 23.9252 1090.75 24.0273 1090.88 24.1573L1087.48 27.5523H1087.48ZM1088.9 27.6933C1089.03 27.5633 1089.18 27.4602 1089.35 27.3898C1089.52 27.3195 1089.7 27.2832 1089.89 27.2832C1090.07 27.2832 1090.25 27.3195 1090.42 27.3898C1090.59 27.4602 1090.75 27.5633 1090.88 27.6933L1087.48 31.0873C1087.8 31.4032 1088.17 31.6547 1088.59 31.8256C1089 31.9965 1089.44 32.0845 1089.89 32.0845C1090.33 32.0845 1090.78 31.9965 1091.19 31.8256C1091.6 31.6547 1091.98 31.4032 1092.29 31.0873L1088.9 27.6923L1088.9 27.6933Z" fill="#0C50FF"/>
</g>
<mask id="path-7-outside-2_83_420" maskUnits="userSpaceOnUse" x="1121" y="27.5" width="90" height="25" fill="black">
<rect fill="white" x="1121" y="27.5" width="90" height="25"/>
<path d="M1122.94 46.5H1122.44C1121.95 46.5 1121.61 46.162 1121.61 45.668V29.132C1121.61 28.638 1121.95 28.3 1122.44 28.3H1123.04C1123.54 28.3 1123.87 28.638 1123.87 29.132V35.19C1125.02 33.682 1126.71 32.85 1128.76 32.85C1132.35 32.85 1135.34 35.736 1135.34 39.87C1135.34 43.978 1132.32 46.89 1128.76 46.89C1126.71 46.89 1125.02 46.084 1123.77 44.472V45.668C1123.77 46.162 1123.43 46.5 1122.94 46.5ZM1123.74 39.87C1123.74 42.86 1125.77 44.992 1128.37 44.992C1130.97 44.992 1133.05 42.912 1133.05 39.87C1133.05 36.802 1130.97 34.748 1128.37 34.748C1125.77 34.748 1123.74 36.854 1123.74 39.87ZM1136.64 33.916C1136.64 33.5 1136.95 33.24 1137.53 33.24H1138.23C1138.57 33.24 1138.88 33.448 1139.01 33.786L1142.86 43.952H1142.93L1146.73 33.786C1146.86 33.448 1147.17 33.24 1147.51 33.24H1148.21C1148.76 33.24 1149.07 33.5 1149.07 33.916C1149.07 34.072 1149.04 34.228 1148.97 34.384L1144.18 46.266C1142.57 50.244 1141.71 51.83 1139.24 51.83C1138.8 51.83 1138.25 51.778 1137.76 51.7C1137.37 51.648 1137.14 51.31 1137.14 50.946V50.582C1137.14 50.088 1137.37 49.906 1137.81 49.906C1138.2 49.906 1138.57 49.958 1138.85 49.958C1140.39 49.958 1141.22 48.112 1141.74 46.396L1136.75 34.384C1136.67 34.228 1136.64 34.072 1136.64 33.916ZM1161.72 39.064L1163.41 38.83C1164.84 38.648 1165.68 38.154 1165.68 37.166C1165.68 35.45 1164.38 34.696 1162.74 34.696C1161.36 34.696 1160.29 35.32 1159.83 36.282C1159.64 36.646 1159.33 36.932 1158.94 36.932H1158.24C1157.77 36.932 1157.43 36.672 1157.43 36.282C1157.43 36.204 1157.46 36.126 1157.49 36.022C1158.21 33.838 1160.29 32.876 1162.71 32.876C1165.05 32.876 1166.56 33.838 1167.26 35.398C1168.41 33.76 1170.46 32.85 1172.64 32.85C1175.84 32.85 1179.38 34.93 1179.38 39.35C1179.38 40.026 1179.33 40.598 1178.65 40.598H1167.96C1168.33 43.484 1170.41 44.992 1172.67 44.992C1174.49 44.992 1175.89 44.082 1176.62 42.834C1176.78 42.548 1177.09 42.34 1177.4 42.34H1178.03C1178.52 42.34 1178.83 42.574 1178.83 42.938C1178.83 43.068 1178.78 43.224 1178.7 43.38C1177.53 45.616 1175.35 46.89 1172.64 46.89C1170.33 46.89 1168.07 45.824 1166.87 43.822C1165.49 45.85 1163.47 46.89 1160.94 46.89C1158.71 46.89 1156.81 45.59 1156.81 43.172C1156.81 40.052 1159.36 39.402 1161.72 39.064ZM1165.65 41.586V39.558C1165.21 40.026 1164.38 40.26 1163.44 40.39L1162.09 40.598C1160.55 40.832 1159.12 41.352 1159.12 43.094C1159.12 44.394 1160.03 45.122 1161.52 45.122C1163.39 45.122 1165.65 43.562 1165.65 41.586ZM1172.64 34.748C1170.49 34.748 1168.51 36.204 1168.04 38.7H1177.22C1176.86 36.1 1174.8 34.748 1172.64 34.748ZM1181.81 34.072C1181.81 33.578 1182.15 33.24 1182.65 33.24H1183.17C1183.66 33.24 1184 33.578 1184 34.072V35.112C1185.22 33.552 1186.86 32.85 1188.65 32.85C1191.98 32.85 1193.46 34.878 1193.46 37.92V45.668C1193.46 46.162 1193.12 46.5 1192.63 46.5H1192.03C1191.54 46.5 1191.2 46.162 1191.2 45.668V38.154C1191.2 36.048 1190.08 34.774 1188.05 34.774C1185.97 34.774 1184.08 36.49 1184.08 38.752V45.668C1184.08 46.162 1183.74 46.5 1183.24 46.5H1182.65C1182.15 46.5 1181.81 46.162 1181.81 45.668V34.072ZM1195.91 39.87C1195.91 35.866 1198.9 32.85 1202.88 32.85C1206.83 32.85 1209.85 35.814 1209.85 39.87C1209.85 43.952 1206.83 46.89 1202.88 46.89C1198.9 46.89 1195.91 43.9 1195.91 39.87ZM1198.2 39.87C1198.2 42.938 1200.23 44.992 1202.88 44.992C1205.51 44.992 1207.56 42.938 1207.56 39.87C1207.56 36.828 1205.56 34.748 1202.88 34.748C1200.23 34.748 1198.2 36.828 1198.2 39.87Z"/>
</mask>
<path d="M1122.94 46.5H1122.44C1121.95 46.5 1121.61 46.162 1121.61 45.668V29.132C1121.61 28.638 1121.95 28.3 1122.44 28.3H1123.04C1123.54 28.3 1123.87 28.638 1123.87 29.132V35.19C1125.02 33.682 1126.71 32.85 1128.76 32.85C1132.35 32.85 1135.34 35.736 1135.34 39.87C1135.34 43.978 1132.32 46.89 1128.76 46.89C1126.71 46.89 1125.02 46.084 1123.77 44.472V45.668C1123.77 46.162 1123.43 46.5 1122.94 46.5ZM1123.74 39.87C1123.74 42.86 1125.77 44.992 1128.37 44.992C1130.97 44.992 1133.05 42.912 1133.05 39.87C1133.05 36.802 1130.97 34.748 1128.37 34.748C1125.77 34.748 1123.74 36.854 1123.74 39.87ZM1136.64 33.916C1136.64 33.5 1136.95 33.24 1137.53 33.24H1138.23C1138.57 33.24 1138.88 33.448 1139.01 33.786L1142.86 43.952H1142.93L1146.73 33.786C1146.86 33.448 1147.17 33.24 1147.51 33.24H1148.21C1148.76 33.24 1149.07 33.5 1149.07 33.916C1149.07 34.072 1149.04 34.228 1148.97 34.384L1144.18 46.266C1142.57 50.244 1141.71 51.83 1139.24 51.83C1138.8 51.83 1138.25 51.778 1137.76 51.7C1137.37 51.648 1137.14 51.31 1137.14 50.946V50.582C1137.14 50.088 1137.37 49.906 1137.81 49.906C1138.2 49.906 1138.57 49.958 1138.85 49.958C1140.39 49.958 1141.22 48.112 1141.74 46.396L1136.75 34.384C1136.67 34.228 1136.64 34.072 1136.64 33.916ZM1161.72 39.064L1163.41 38.83C1164.84 38.648 1165.68 38.154 1165.68 37.166C1165.68 35.45 1164.38 34.696 1162.74 34.696C1161.36 34.696 1160.29 35.32 1159.83 36.282C1159.64 36.646 1159.33 36.932 1158.94 36.932H1158.24C1157.77 36.932 1157.43 36.672 1157.43 36.282C1157.43 36.204 1157.46 36.126 1157.49 36.022C1158.21 33.838 1160.29 32.876 1162.71 32.876C1165.05 32.876 1166.56 33.838 1167.26 35.398C1168.41 33.76 1170.46 32.85 1172.64 32.85C1175.84 32.85 1179.38 34.93 1179.38 39.35C1179.38 40.026 1179.33 40.598 1178.65 40.598H1167.96C1168.33 43.484 1170.41 44.992 1172.67 44.992C1174.49 44.992 1175.89 44.082 1176.62 42.834C1176.78 42.548 1177.09 42.34 1177.4 42.34H1178.03C1178.52 42.34 1178.83 42.574 1178.83 42.938C1178.83 43.068 1178.78 43.224 1178.7 43.38C1177.53 45.616 1175.35 46.89 1172.64 46.89C1170.33 46.89 1168.07 45.824 1166.87 43.822C1165.49 45.85 1163.47 46.89 1160.94 46.89C1158.71 46.89 1156.81 45.59 1156.81 43.172C1156.81 40.052 1159.36 39.402 1161.72 39.064ZM1165.65 41.586V39.558C1165.21 40.026 1164.38 40.26 1163.44 40.39L1162.09 40.598C1160.55 40.832 1159.12 41.352 1159.12 43.094C1159.12 44.394 1160.03 45.122 1161.52 45.122C1163.39 45.122 1165.65 43.562 1165.65 41.586ZM1172.64 34.748C1170.49 34.748 1168.51 36.204 1168.04 38.7H1177.22C1176.86 36.1 1174.8 34.748 1172.64 34.748ZM1181.81 34.072C1181.81 33.578 1182.15 33.24 1182.65 33.24H1183.17C1183.66 33.24 1184 33.578 1184 34.072V35.112C1185.22 33.552 1186.86 32.85 1188.65 32.85C1191.98 32.85 1193.46 34.878 1193.46 37.92V45.668C1193.46 46.162 1193.12 46.5 1192.63 46.5H1192.03C1191.54 46.5 1191.2 46.162 1191.2 45.668V38.154C1191.2 36.048 1190.08 34.774 1188.05 34.774C1185.97 34.774 1184.08 36.49 1184.08 38.752V45.668C1184.08 46.162 1183.74 46.5 1183.24 46.5H1182.65C1182.15 46.5 1181.81 46.162 1181.81 45.668V34.072ZM1195.91 39.87C1195.91 35.866 1198.9 32.85 1202.88 32.85C1206.83 32.85 1209.85 35.814 1209.85 39.87C1209.85 43.952 1206.83 46.89 1202.88 46.89C1198.9 46.89 1195.91 43.9 1195.91 39.87ZM1198.2 39.87C1198.2 42.938 1200.23 44.992 1202.88 44.992C1205.51 44.992 1207.56 42.938 1207.56 39.87C1207.56 36.828 1205.56 34.748 1202.88 34.748C1200.23 34.748 1198.2 36.828 1198.2 39.87Z" fill="#0C50FF"/>
<path d="M1123.87 35.19H1123.72V35.6466L1124 35.2828L1123.87 35.19ZM1123.77 44.472L1123.89 44.378L1123.62 44.0227V44.472H1123.77ZM1122.94 46.3464H1122.44V46.6536H1122.94V46.3464ZM1122.44 46.3464C1122.23 46.3464 1122.07 46.2748 1121.95 46.1606C1121.84 46.0464 1121.77 45.8791 1121.77 45.668H1121.46C1121.46 45.9509 1121.56 46.1996 1121.73 46.3779C1121.91 46.5562 1122.16 46.6536 1122.44 46.6536V46.3464ZM1121.77 45.668V29.132H1121.46V45.668H1121.77ZM1121.77 29.132C1121.77 28.9209 1121.84 28.7536 1121.95 28.6394C1122.07 28.5252 1122.23 28.4536 1122.44 28.4536V28.1464C1122.16 28.1464 1121.91 28.2438 1121.73 28.4221C1121.56 28.6004 1121.46 28.8491 1121.46 29.132H1121.77ZM1122.44 28.4536H1123.04V28.1464H1122.44V28.4536ZM1123.04 28.4536C1123.25 28.4536 1123.42 28.5252 1123.53 28.6394C1123.65 28.7536 1123.72 28.9209 1123.72 29.132H1124.03C1124.03 28.8491 1123.93 28.6004 1123.75 28.4221C1123.57 28.2438 1123.32 28.1464 1123.04 28.1464V28.4536ZM1123.72 29.132V35.19H1124.03V29.132H1123.72ZM1124 35.2828C1125.11 33.8152 1126.75 33.0036 1128.76 33.0036V32.6964C1126.66 32.6964 1124.93 33.5488 1123.75 35.0972L1124 35.2828ZM1128.76 33.0036C1132.26 33.0036 1135.19 35.8158 1135.19 39.87H1135.49C1135.49 35.6562 1132.44 32.6964 1128.76 32.6964V33.0036ZM1135.19 39.87C1135.19 43.8982 1132.23 46.7364 1128.76 46.7364V47.0436C1132.41 47.0436 1135.49 44.0578 1135.49 39.87H1135.19ZM1128.76 46.7364C1126.75 46.7364 1125.11 45.9512 1123.89 44.378L1123.65 44.566C1124.93 46.2168 1126.66 47.0436 1128.76 47.0436V46.7364ZM1123.62 44.472V45.668H1123.92V44.472H1123.62ZM1123.62 45.668C1123.62 45.8791 1123.54 46.0464 1123.43 46.1606C1123.32 46.2748 1123.15 46.3464 1122.94 46.3464V46.6536C1123.22 46.6536 1123.47 46.5562 1123.65 46.3779C1123.83 46.1996 1123.92 45.9509 1123.92 45.668H1123.62ZM1123.59 39.87C1123.59 42.9321 1125.67 45.1456 1128.37 45.1456V44.8384C1125.87 44.8384 1123.9 42.7879 1123.9 39.87H1123.59ZM1128.37 45.1456C1131.07 45.1456 1133.21 42.9875 1133.21 39.87H1132.9C1132.9 42.8365 1130.88 44.8384 1128.37 44.8384V45.1456ZM1133.21 39.87C1133.21 36.7259 1131.07 34.5944 1128.37 34.5944V34.9016C1130.88 34.9016 1132.9 36.8781 1132.9 39.87H1133.21ZM1128.37 34.5944C1125.68 34.5944 1123.59 36.7813 1123.59 39.87H1123.9C1123.9 36.9267 1125.87 34.9016 1128.37 34.9016V34.5944ZM1139.01 33.786L1139.15 33.7316L1139.15 33.7309L1139.01 33.786ZM1142.86 43.952L1142.71 44.0064L1142.75 44.1056H1142.86V43.952ZM1142.93 43.952V44.1056H1143.04L1143.08 44.0057L1142.93 43.952ZM1146.73 33.786L1146.59 33.7309L1146.59 33.7323L1146.73 33.786ZM1148.97 34.384L1148.83 34.3151L1148.82 34.3266L1148.97 34.384ZM1144.18 46.266L1144.32 46.3237L1144.32 46.3234L1144.18 46.266ZM1137.76 51.7L1137.78 51.5482L1137.78 51.5477L1137.76 51.7ZM1141.74 46.396L1141.88 46.4405L1141.9 46.3879L1141.88 46.3371L1141.74 46.396ZM1136.75 34.384L1136.89 34.3249L1136.88 34.3153L1136.75 34.384ZM1136.8 33.916C1136.8 33.7502 1136.86 33.6279 1136.96 33.543C1137.08 33.4542 1137.26 33.3936 1137.53 33.3936V33.0864C1137.22 33.0864 1136.96 33.1558 1136.77 33.301C1136.58 33.4501 1136.49 33.6658 1136.49 33.916H1136.8ZM1137.53 33.3936H1138.23V33.0864H1137.53V33.3936ZM1138.23 33.3936C1138.5 33.3936 1138.76 33.5619 1138.86 33.8411L1139.15 33.7309C1139 33.3341 1138.63 33.0864 1138.23 33.0864V33.3936ZM1138.86 33.8404L1142.71 44.0064L1143 43.8976L1139.15 33.7316L1138.86 33.8404ZM1142.86 44.1056H1142.93V43.7984H1142.86V44.1056ZM1143.08 44.0057L1146.87 33.8397L1146.59 33.7323L1142.79 43.8983L1143.08 44.0057ZM1146.87 33.8411C1146.98 33.5619 1147.24 33.3936 1147.51 33.3936V33.0864C1147.11 33.0864 1146.74 33.3341 1146.59 33.7309L1146.87 33.8411ZM1147.51 33.3936H1148.21V33.0864H1147.51V33.3936ZM1148.21 33.3936C1148.46 33.3936 1148.64 33.4535 1148.75 33.5419C1148.86 33.627 1148.92 33.75 1148.92 33.916H1149.22C1149.22 33.666 1149.13 33.451 1148.94 33.3021C1148.76 33.1565 1148.51 33.0864 1148.21 33.0864V33.3936ZM1148.92 33.916C1148.92 34.054 1148.89 34.1853 1148.83 34.3153L1149.1 34.4527C1149.19 34.2707 1149.22 34.09 1149.22 33.916H1148.92ZM1148.82 34.3266L1144.04 46.2086L1144.32 46.3234L1149.11 34.4414L1148.82 34.3266ZM1144.04 46.2083C1143.23 48.2024 1142.62 49.5704 1141.91 50.443C1141.56 50.8757 1141.19 51.1817 1140.76 51.3808C1140.34 51.58 1139.84 51.6764 1139.24 51.6764V51.9836C1139.88 51.9836 1140.42 51.8817 1140.89 51.6593C1141.37 51.4367 1141.78 51.0976 1142.15 50.6365C1142.89 49.7216 1143.52 48.3076 1144.32 46.3237L1144.04 46.2083ZM1139.24 51.6764C1138.81 51.6764 1138.27 51.6254 1137.78 51.5483L1137.74 51.8517C1138.24 51.9306 1138.79 51.9836 1139.24 51.9836V51.6764ZM1137.78 51.5477C1137.48 51.5078 1137.29 51.2479 1137.29 50.946H1136.98C1136.98 51.3721 1137.26 51.7882 1137.74 51.8523L1137.78 51.5477ZM1137.29 50.946V50.582H1136.98V50.946H1137.29ZM1137.29 50.582C1137.29 50.3563 1137.34 50.2369 1137.41 50.1705C1137.49 50.1023 1137.61 50.0596 1137.81 50.0596V49.7524C1137.57 49.7524 1137.36 49.8007 1137.2 49.947C1137.05 50.0951 1136.98 50.3137 1136.98 50.582H1137.29ZM1137.81 50.0596C1138 50.0596 1138.18 50.0722 1138.36 50.0852C1138.53 50.098 1138.7 50.1116 1138.85 50.1116V49.8044C1138.72 49.8044 1138.56 49.792 1138.38 49.7788C1138.21 49.7658 1138.01 49.7524 1137.81 49.7524V50.0596ZM1138.85 50.1116C1139.69 50.1116 1140.32 49.6042 1140.8 48.9075C1141.28 48.2115 1141.62 47.3026 1141.88 46.4405L1141.59 46.3515C1141.33 47.2054 1141 48.0775 1140.55 48.7335C1140.1 49.3888 1139.55 49.8044 1138.85 49.8044V50.1116ZM1141.88 46.3371L1136.89 34.3251L1136.6 34.4429L1141.6 46.4549L1141.88 46.3371ZM1136.88 34.3153C1136.82 34.1853 1136.8 34.054 1136.8 33.916H1136.49C1136.49 34.09 1136.52 34.2707 1136.61 34.4527L1136.88 34.3153ZM1161.72 39.064L1161.7 38.9118L1161.7 38.9119L1161.72 39.064ZM1163.41 38.83L1163.39 38.6776L1163.39 38.6778L1163.41 38.83ZM1159.83 36.282L1159.96 36.3507L1159.96 36.3492L1159.83 36.282ZM1157.49 36.022L1157.34 35.9733L1157.34 35.9847L1157.49 36.022ZM1167.26 35.398L1167.12 35.461L1167.23 35.7078L1167.39 35.486L1167.26 35.398ZM1167.96 40.598V40.4444H1167.79L1167.81 40.6172L1167.96 40.598ZM1176.62 42.834L1176.75 42.9114L1176.76 42.9076L1176.62 42.834ZM1178.7 43.38L1178.84 43.4512L1178.84 43.4487L1178.7 43.38ZM1166.87 43.822L1167 43.7432L1166.88 43.5364L1166.74 43.7357L1166.87 43.822ZM1165.65 39.558H1165.8V39.1717L1165.54 39.4525L1165.65 39.558ZM1163.44 40.39L1163.42 40.2378L1163.42 40.2382L1163.44 40.39ZM1162.09 40.598L1162.11 40.7498L1162.11 40.7498L1162.09 40.598ZM1168.04 38.7L1167.89 38.6717L1167.86 38.8536H1168.04V38.7ZM1177.22 38.7V38.8536H1177.4L1177.37 38.6787L1177.22 38.7ZM1161.74 39.2162L1163.43 38.9822L1163.39 38.6778L1161.7 38.9118L1161.74 39.2162ZM1163.43 38.9824C1164.16 38.8902 1164.75 38.7169 1165.17 38.4262C1165.59 38.129 1165.83 37.7123 1165.83 37.166H1165.52C1165.52 37.6077 1165.34 37.932 1164.99 38.1743C1164.64 38.4231 1164.1 38.5878 1163.39 38.6776L1163.43 38.9824ZM1165.83 37.166C1165.83 36.2644 1165.48 35.5998 1164.91 35.1652C1164.35 34.7353 1163.58 34.5424 1162.74 34.5424V34.8496C1163.54 34.8496 1164.23 35.0337 1164.73 35.4097C1165.22 35.7812 1165.52 36.3516 1165.52 37.166H1165.83ZM1162.74 34.5424C1161.31 34.5424 1160.19 35.1891 1159.69 36.2148L1159.96 36.3492C1160.4 35.4509 1161.41 34.8496 1162.74 34.8496V34.5424ZM1159.69 36.2133C1159.52 36.5511 1159.25 36.7784 1158.94 36.7784V37.0856C1159.41 37.0856 1159.77 36.7409 1159.96 36.3507L1159.69 36.2133ZM1158.94 36.7784H1158.24V37.0856H1158.94V36.7784ZM1158.24 36.7784C1158.03 36.7784 1157.87 36.7209 1157.76 36.633C1157.65 36.5473 1157.59 36.4284 1157.59 36.282H1157.28C1157.28 36.5256 1157.39 36.7317 1157.57 36.8735C1157.74 37.0131 1157.98 37.0856 1158.24 37.0856V36.7784ZM1157.59 36.282C1157.59 36.2289 1157.6 36.1808 1157.63 36.0593L1157.34 35.9847C1157.31 36.0712 1157.28 36.1791 1157.28 36.282H1157.59ZM1157.63 36.0706C1158.33 33.974 1160.33 33.0296 1162.71 33.0296V32.7224C1160.26 32.7224 1158.1 33.702 1157.34 35.9734L1157.63 36.0706ZM1162.71 33.0296C1165 33.0296 1166.45 33.9673 1167.12 35.461L1167.4 35.335C1166.67 33.7087 1165.1 32.7224 1162.71 32.7224V33.0296ZM1167.39 35.486C1168.5 33.8973 1170.5 33.0036 1172.64 33.0036V32.6964C1170.42 32.6964 1168.31 33.6227 1167.14 35.31L1167.39 35.486ZM1172.64 33.0036C1174.21 33.0036 1175.86 33.5139 1177.11 34.5604C1178.36 35.6036 1179.22 37.1854 1179.22 39.35H1179.53C1179.53 37.0946 1178.63 35.4264 1177.31 34.3246C1175.99 33.2261 1174.27 32.6964 1172.64 32.6964V33.0036ZM1179.22 39.35C1179.22 39.6928 1179.21 39.973 1179.13 40.167C1179.09 40.259 1179.03 40.3246 1178.97 40.3688C1178.9 40.4134 1178.8 40.4444 1178.65 40.4444V40.7516C1178.84 40.7516 1179 40.7111 1179.13 40.6273C1179.26 40.5431 1179.35 40.4235 1179.41 40.288C1179.52 40.027 1179.53 39.6832 1179.53 39.35H1179.22ZM1178.65 40.4444H1167.96V40.7516H1178.65V40.4444ZM1167.81 40.6172C1168.18 43.5819 1170.33 45.1456 1172.67 45.1456V44.8384C1170.48 44.8384 1168.47 43.3861 1168.12 40.5788L1167.81 40.6172ZM1172.67 45.1456C1174.54 45.1456 1176 44.2068 1176.75 42.9114L1176.49 42.7566C1175.79 43.9572 1174.43 44.8384 1172.67 44.8384V45.1456ZM1176.76 42.9076C1176.89 42.6632 1177.15 42.4936 1177.4 42.4936V42.1864C1177.02 42.1864 1176.67 42.4328 1176.49 42.7604L1176.76 42.9076ZM1177.4 42.4936H1178.03V42.1864H1177.4V42.4936ZM1178.03 42.4936C1178.25 42.4936 1178.42 42.5471 1178.52 42.6257C1178.62 42.7011 1178.68 42.8051 1178.68 42.938H1178.98C1178.98 42.7069 1178.88 42.5119 1178.71 42.3793C1178.53 42.2499 1178.29 42.1864 1178.03 42.1864V42.4936ZM1178.68 42.938C1178.68 43.0326 1178.64 43.1631 1178.56 43.3113L1178.84 43.4487C1178.92 43.2849 1178.98 43.1034 1178.98 42.938H1178.68ZM1178.57 43.3088C1177.42 45.4903 1175.29 46.7364 1172.64 46.7364V47.0436C1175.4 47.0436 1177.64 45.7417 1178.84 43.4512L1178.57 43.3088ZM1172.64 46.7364C1170.37 46.7364 1168.17 45.6908 1167 43.7432L1166.74 43.9008C1167.97 45.9572 1170.29 47.0436 1172.64 47.0436V46.7364ZM1166.74 43.7357C1165.4 45.7196 1163.42 46.7364 1160.94 46.7364V47.0436C1163.51 47.0436 1165.59 45.9804 1167 43.9083L1166.74 43.7357ZM1160.94 46.7364C1159.85 46.7364 1158.86 46.4195 1158.14 45.8197C1157.42 45.2225 1156.96 44.3369 1156.96 43.172H1156.66C1156.66 44.4251 1157.15 45.3985 1157.94 46.0558C1158.73 46.7105 1159.8 47.0436 1160.94 47.0436V46.7364ZM1156.96 43.172C1156.96 41.6641 1157.57 40.7706 1158.46 40.2043C1159.36 39.6291 1160.56 39.385 1161.75 39.2161L1161.7 38.9119C1160.52 39.081 1159.26 39.3309 1158.3 39.9452C1157.32 40.5684 1156.66 41.5599 1156.66 43.172H1156.96ZM1165.8 41.586V39.558H1165.5V41.586H1165.8ZM1165.54 39.4525C1165.34 39.6618 1165.05 39.8268 1164.68 39.9558C1164.31 40.0844 1163.88 40.1736 1163.42 40.2379L1163.46 40.5421C1163.93 40.4764 1164.39 40.3836 1164.78 40.2457C1165.17 40.1082 1165.52 39.9222 1165.76 39.6635L1165.54 39.4525ZM1163.42 40.2382L1162.06 40.4462L1162.11 40.7498L1163.46 40.5418L1163.42 40.2382ZM1162.06 40.4462C1161.29 40.5639 1160.52 40.7563 1159.94 41.1539C1159.35 41.559 1158.97 42.1715 1158.97 43.094H1159.28C1159.28 42.2745 1159.61 41.756 1160.12 41.4071C1160.64 41.0507 1161.35 40.8661 1162.11 40.7498L1162.06 40.4462ZM1158.97 43.094C1158.97 43.7826 1159.21 44.3356 1159.67 44.7134C1160.11 45.0881 1160.75 45.2756 1161.52 45.2756V44.9684C1160.8 44.9684 1160.24 44.7919 1159.86 44.4776C1159.49 44.1664 1159.28 43.7054 1159.28 43.094H1158.97ZM1161.52 45.2756C1162.49 45.2756 1163.56 44.871 1164.38 44.2151C1165.2 43.5593 1165.8 42.6352 1165.8 41.586H1165.5C1165.5 42.5128 1164.96 43.3567 1164.19 43.9749C1163.41 44.593 1162.41 44.9684 1161.52 44.9684V45.2756ZM1172.64 34.5944C1170.41 34.5944 1168.37 36.1018 1167.89 38.6717L1168.19 38.7283C1168.65 36.3062 1170.56 34.9016 1172.64 34.9016V34.5944ZM1168.04 38.8536H1177.22V38.5464H1168.04V38.8536ZM1177.37 38.6787C1177 35.9921 1174.87 34.5944 1172.64 34.5944V34.9016C1174.74 34.9016 1176.72 36.2079 1177.07 38.7213L1177.37 38.6787ZM1184 35.112H1183.84V35.5572L1184.12 35.2067L1184 35.112ZM1181.97 34.072C1181.97 33.8609 1182.04 33.6936 1182.15 33.5794C1182.27 33.4652 1182.43 33.3936 1182.65 33.3936V33.0864C1182.36 33.0864 1182.11 33.1838 1181.94 33.3621C1181.76 33.5404 1181.66 33.7891 1181.66 34.072H1181.97ZM1182.65 33.3936H1183.17V33.0864H1182.65V33.3936ZM1183.17 33.3936C1183.38 33.3936 1183.54 33.4652 1183.66 33.5794C1183.77 33.6936 1183.84 33.8609 1183.84 34.072H1184.15C1184.15 33.7891 1184.05 33.5404 1183.88 33.3621C1183.7 33.1838 1183.45 33.0864 1183.17 33.0864V33.3936ZM1183.84 34.072V35.112H1184.15V34.072H1183.84ZM1184.12 35.2067C1185.31 33.6862 1186.9 33.0036 1188.65 33.0036V32.6964C1186.81 32.6964 1185.13 33.4178 1183.88 35.0173L1184.12 35.2067ZM1188.65 33.0036C1190.28 33.0036 1191.44 33.4996 1192.19 34.3461C1192.94 35.1958 1193.31 36.4216 1193.31 37.92H1193.61C1193.61 36.3764 1193.24 35.0672 1192.42 34.1424C1191.6 33.2144 1190.35 32.6964 1188.65 32.6964V33.0036ZM1193.31 37.92V45.668H1193.61V37.92H1193.31ZM1193.31 45.668C1193.31 45.8791 1193.24 46.0464 1193.12 46.1606C1193.01 46.2748 1192.84 46.3464 1192.63 46.3464V46.6536C1192.91 46.6536 1193.16 46.5562 1193.34 46.3779C1193.52 46.1996 1193.61 45.9509 1193.61 45.668H1193.31ZM1192.63 46.3464H1192.03V46.6536H1192.63V46.3464ZM1192.03 46.3464C1191.82 46.3464 1191.65 46.2748 1191.54 46.1606C1191.42 46.0464 1191.35 45.8791 1191.35 45.668H1191.05C1191.05 45.9509 1191.14 46.1996 1191.32 46.3779C1191.5 46.5562 1191.75 46.6536 1192.03 46.6536V46.3464ZM1191.35 45.668V38.154H1191.05V45.668H1191.35ZM1191.35 38.154C1191.35 37.0751 1191.07 36.1886 1190.5 35.5705C1189.93 34.9504 1189.1 34.6204 1188.05 34.6204V34.9276C1189.03 34.9276 1189.78 35.2346 1190.27 35.778C1190.77 36.3234 1191.05 37.1269 1191.05 38.154H1191.35ZM1188.05 34.6204C1185.89 34.6204 1183.92 36.4006 1183.92 38.752H1184.23C1184.23 36.5794 1186.05 34.9276 1188.05 34.9276V34.6204ZM1183.92 38.752V45.668H1184.23V38.752H1183.92ZM1183.92 45.668C1183.92 45.8791 1183.85 46.0464 1183.74 46.1606C1183.62 46.2748 1183.45 46.3464 1183.24 46.3464V46.6536C1183.53 46.6536 1183.77 46.5562 1183.95 46.3779C1184.13 46.1996 1184.23 45.9509 1184.23 45.668H1183.92ZM1183.24 46.3464H1182.65V46.6536H1183.24V46.3464ZM1182.65 46.3464C1182.43 46.3464 1182.27 46.2748 1182.15 46.1606C1182.04 46.0464 1181.97 45.8791 1181.97 45.668H1181.66C1181.66 45.9509 1181.76 46.1996 1181.94 46.3779C1182.11 46.5562 1182.36 46.6536 1182.65 46.6536V46.3464ZM1181.97 45.668V34.072H1181.66V45.668H1181.97ZM1196.07 39.87C1196.07 35.9497 1198.99 33.0036 1202.88 33.0036V32.6964C1198.82 32.6964 1195.76 35.7823 1195.76 39.87H1196.07ZM1202.88 33.0036C1206.75 33.0036 1209.69 35.8988 1209.69 39.87H1210C1210 35.7292 1206.92 32.6964 1202.88 32.6964V33.0036ZM1209.69 39.87C1209.69 43.8668 1206.75 46.7364 1202.88 46.7364V47.0436C1206.92 47.0436 1210 44.0372 1210 39.87H1209.69ZM1202.88 46.7364C1198.99 46.7364 1196.07 43.8159 1196.07 39.87H1195.76C1195.76 43.9841 1198.82 47.0436 1202.88 47.0436V46.7364ZM1198.05 39.87C1198.05 43.0129 1200.13 45.1456 1202.88 45.1456V44.8384C1200.32 44.8384 1198.35 42.8631 1198.35 39.87H1198.05ZM1202.88 45.1456C1205.6 45.1456 1207.71 43.0135 1207.71 39.87H1207.41C1207.41 42.8625 1205.41 44.8384 1202.88 44.8384V45.1456ZM1207.71 39.87C1207.71 36.7542 1205.65 34.5944 1202.88 34.5944V34.9016C1205.46 34.9016 1207.41 36.9018 1207.41 39.87H1207.71ZM1202.88 34.5944C1200.13 34.5944 1198.05 36.7536 1198.05 39.87H1198.35C1198.35 36.9024 1200.32 34.9016 1202.88 34.9016V34.5944Z" fill="#0C50FF" mask="url(#path-7-outside-2_83_420)"/>
</svg>
