<svg width="20" height="20" viewBox="0 0 20 20" fill="none" xmlns="http://www.w3.org/2000/svg">
<mask id="mask0_77_419" style="mask-type:luminance" maskUnits="userSpaceOnUse" x="0" y="2" width="20" height="18">
<path d="M0 2.35999H20V19.86H0V2.35999Z" fill="white"/>
<path fill-rule="evenodd" clip-rule="evenodd" d="M3.757 6.12154C3.11161 6.77438 2.74969 7.65539 2.74978 8.57339C2.74988 9.49139 3.11197 10.3723 3.7575 11.025L3.7585 11.026L9.8285 17.104L9.8295 17.105C9.85903 17.1339 9.8987 17.1501 9.94 17.15H9.9475C9.98913 17.15 10.0291 17.1335 10.0585 17.104L16.1285 11.026L16.13 11.025C16.7755 10.3723 17.1375 9.49129 17.1375 8.57329C17.1375 7.65528 16.7755 6.77431 16.13 6.12154C15.4792 5.47359 14.5981 5.10994 13.6797 5.11022C12.7613 5.1105 11.8804 5.47469 11.23 6.12304L10.297 7.05504C10.2032 7.14877 10.0761 7.20143 9.9435 7.20143C9.81092 7.20143 9.68376 7.14877 9.59 7.05504L8.6585 6.12304C8.00795 5.47451 7.1269 5.11021 6.20831 5.10993C5.28972 5.10965 4.40795 5.47341 3.757 6.12154ZM2.8735 5.23804C3.75856 4.35555 4.95741 3.85999 6.20725 3.85999C7.45709 3.85999 8.65595 4.35555 9.541 5.23804L9.542 5.23854L9.5905 5.28754C9.68426 5.38127 9.81142 5.43393 9.944 5.43393C10.0766 5.43393 10.2037 5.38127 10.2975 5.28754L10.3465 5.23854L10.347 5.23804C11.2321 4.3554 12.431 3.85974 13.681 3.85974C14.931 3.85974 16.1299 4.3554 17.015 5.23804L17.018 5.24104C17.8958 6.12795 18.3882 7.32542 18.3882 8.57329C18.3882 9.82116 17.8958 11.0186 17.018 11.9055L17.016 11.9075L10.9415 17.9895L10.9395 17.9915C10.675 18.254 10.3171 18.4008 9.9445 18.3995C9.5719 18.4006 9.21409 18.2539 8.9495 17.9915L8.947 17.9895L2.8705 11.9055C1.99253 11.0186 1.50004 9.82103 1.50004 8.57304C1.50004 7.32505 1.99253 6.12747 2.8705 5.24054L2.8735 5.23804Z" fill="black"/>
</mask>
<g mask="url(#mask0_77_419)">
<path d="M3.757 6.12153L2.91 5.27153L2.907 5.27503L2.9035 5.27803L3.757 6.12153ZM3.7585 11.026L2.906 11.8705L2.9095 11.874L3.7585 11.026ZM9.8285 17.104L8.9795 17.952L8.984 17.9565L9.8285 17.104ZM9.9435 17.1495L9.9505 15.9495H9.937L9.9435 17.1495ZM10.0575 17.105L10.8975 17.962L10.898 17.9615L10.0575 17.105ZM10.0585 17.104L10.9035 17.9565L10.9075 17.952L10.0585 17.104ZM16.1285 11.026L16.978 11.874L16.9815 11.8705L16.129 11.026H16.1285ZM16.13 11.025L16.9825 11.87L16.983 11.869L16.13 11.025ZM16.13 6.12153L16.9835 5.27803L16.9805 5.27453L16.977 5.27153L16.13 6.12153ZM2.8735 5.23803L2.026 4.38803L2.0235 4.39103L2.8735 5.23803ZM9.542 5.23853L10.3905 4.39003L10.389 4.38853L9.542 5.23853ZM10.347 5.23853L9.4985 4.38903L9.4975 4.39003L10.346 5.23853H10.347ZM17.018 5.24103L17.871 4.39703L17.868 4.39403L17.865 4.39103L17.018 5.24103ZM17.018 11.9055L17.869 12.7515L17.871 12.7495L17.018 11.9055ZM17.016 11.9075L17.865 12.7555L17.867 12.753L17.016 11.9075ZM10.941 17.9895L11.788 18.8395L11.79 18.8375L10.941 17.9895ZM10.939 17.9915L11.784 18.8435L11.786 18.8415L10.939 17.9915ZM9.9435 18.4L9.9475 17.2H9.94L9.9435 18.4ZM8.9485 17.9915L8.1015 18.8415L8.1035 18.8435L8.9485 17.9915ZM8.9465 17.9895L8.0975 18.8375L8.0995 18.8395L8.9465 17.9895ZM2.87 11.9055L2.017 12.7495L2.021 12.7535L2.87 11.9055ZM2.87 5.24053L2.02 4.39403L2.017 4.39703L2.87 5.24053ZM3.95 8.57303C3.95 7.97103 4.1875 7.39303 4.6105 6.96553L2.9035 5.27803C2.03628 6.15544 1.54995 7.33938 1.55 8.57303H3.95ZM4.611 10.1815C4.18746 9.75332 3.94994 9.17532 3.95 8.57303H1.55C1.55 9.80703 2.0365 10.9915 2.9045 11.869L4.611 10.1815ZM4.611 10.1815L2.904 11.8685L2.906 11.8705L4.611 10.1815ZM10.678 16.2565L4.608 10.178L2.9095 11.874L8.9795 17.952L10.678 16.2565ZM10.67 16.248C10.6712 16.2494 10.6723 16.2507 10.6735 16.252L8.984 17.9565L8.9895 17.9615L10.67 16.248ZM10.3335 16.027C10.4585 16.078 10.573 16.153 10.6695 16.2475L8.9895 17.9615C9.115 18.0845 9.2635 18.182 9.426 18.249L10.3335 16.027ZM9.9335 15.9495C10.0706 15.9489 10.2065 15.9752 10.3335 16.027L9.426 18.249C9.591 18.3165 9.7685 18.3505 9.947 18.3495L9.9335 15.9495ZM9.937 15.9495H9.9335L9.947 18.3495H9.9505L9.937 15.9495ZM9.9545 15.9495H9.9505L9.937 18.3495H9.9405L9.9545 15.9495ZM9.554 16.027C9.68131 15.9752 9.81705 15.9489 9.9545 15.9495L9.9405 18.3495C10.119 18.3505 10.2955 18.3165 10.4615 18.249L9.554 16.027ZM9.2185 16.2475C9.3145 16.153 9.4285 16.078 9.5535 16.0275L10.4615 18.249C10.6242 18.1825 10.7724 18.0845 10.898 17.9615L9.2185 16.2475ZM9.2135 16.252C9.21485 16.2507 9.21618 16.2494 9.2175 16.248L10.898 17.9615C10.8998 17.9599 10.9017 17.9582 10.9035 17.9565L9.2135 16.2515V16.252ZM15.28 10.178L9.21 16.256L10.9075 17.952L16.978 11.874L15.28 10.178ZM15.277 10.1805C15.277 10.1815 15.276 10.182 15.276 10.182L16.9815 11.8705L16.9825 11.8695L15.277 10.1805ZM15.937 8.57303C15.937 9.17553 15.7 9.75303 15.277 10.1815L16.983 11.869C17.8508 10.9915 18.3375 9.80718 18.3375 8.57303H15.937ZM15.277 6.96553C15.6999 7.39366 15.9371 7.97124 15.937 8.57303H18.3375C18.3376 7.33938 17.8507 6.15544 16.9835 5.27803L15.2775 6.96603L15.277 6.96553ZM13.6805 6.31003C14.2815 6.31003 14.858 6.54803 15.2835 6.97203L16.977 5.27153C16.1015 4.39959 14.9162 3.91003 13.6805 3.91003V6.31003ZM12.077 6.97253C12.5028 6.54823 13.0794 6.31 13.6805 6.31003V3.91003C12.444 3.91003 11.258 4.40003 10.3825 5.27303L12.077 6.97303V6.97253ZM6.207 6.31003C6.808 6.31003 7.385 6.54853 7.811 6.97303L9.5055 5.27303C8.6297 4.40009 7.44355 3.90995 6.207 3.91003V6.31003ZM4.604 6.97203C5.02975 6.54804 5.60614 6.31 6.207 6.31003V3.91003C4.97132 3.90987 3.78543 4.39945 2.91 5.27153L4.604 6.97153V6.97203ZM6.207 2.66003C4.63931 2.65997 3.13557 3.28157 2.0255 4.38853L3.7205 6.08803C4.38059 5.42976 5.27477 5.06007 6.207 5.06003V2.66003ZM10.388 4.38853C9.27805 3.28169 7.77451 2.6601 6.207 2.66003V5.06003C7.139 5.06003 8.034 5.42953 8.694 6.08803L10.3885 4.38803L10.388 4.38853ZM10.389 4.38853H10.388L8.6935 6.08753L8.694 6.08803L10.3885 4.38803L10.389 4.38853ZM10.4385 4.43853L10.3905 4.39003L8.693 6.08703L8.7415 6.13603L10.4385 4.43853ZM9.4975 4.39003L9.4485 4.43903L11.146 6.13603L11.1945 6.08703L9.4975 4.39003ZM9.4995 4.38853L9.4985 4.38903L11.1935 6.08803L9.499 4.38803L9.4995 4.38853ZM13.6805 2.66003C12.113 2.6601 10.6095 3.28169 9.4995 4.38853L11.1945 6.08803C11.8545 5.42988 12.7484 5.06021 13.6805 5.06003V2.66003ZM17.8615 4.38853C16.7515 3.28169 15.248 2.6601 13.6805 2.66003V5.06003C14.6128 5.05991 15.5075 5.42962 16.1675 6.08803L17.862 4.38803L17.8615 4.38853ZM17.8645 4.39103L17.8615 4.38853L16.1675 6.08803L16.17 6.09053L17.865 4.39103H17.8645ZM19.5875 8.57303C19.5875 7.00903 18.971 5.50803 17.871 4.39703L16.1645 6.08503C16.8199 6.74726 17.1875 7.64133 17.1875 8.57303H19.5875ZM17.871 12.7495C18.9711 11.6379 19.5876 10.137 19.5875 8.57303H17.1875C17.1875 9.50474 16.8199 10.3988 16.1645 11.061L17.871 12.7495ZM17.867 12.753L17.869 12.7515L16.1665 11.0595L16.164 11.0615L17.867 12.753ZM11.79 18.8375L17.8645 12.7555L16.1665 11.0595L10.0915 17.1415L11.79 18.8375ZM11.786 18.8415L11.788 18.8395L10.094 17.1395L10.0915 17.1415L11.786 18.8415ZM10.934 19.4065C11.2516 19.2766 11.5405 19.0853 11.784 18.8435L10.094 17.1395C10.0747 17.1589 10.0518 17.1736 10.0265 17.184L10.934 19.4065ZM9.94 19.5995C10.2808 19.6006 10.6185 19.5354 10.934 19.4065L10.0265 17.184C10.0014 17.1943 9.97459 17.2001 9.9475 17.2L9.94 19.5995ZM8.9535 19.406C9.269 19.535 9.607 19.601 9.9475 19.5995L9.94 17.2C9.91294 17.2002 9.88611 17.1941 9.861 17.184L8.9535 19.406ZM8.1035 18.8435C8.34708 19.0851 8.63593 19.2763 8.9535 19.406L9.861 17.184C9.83579 17.1738 9.81285 17.1587 9.7935 17.1395L8.1035 18.8435ZM8.0995 18.8395L8.1015 18.8415L9.7955 17.1415L9.7935 17.1395L8.0995 18.8395ZM0.2995 8.57303C0.2995 10.137 0.917 11.638 2.017 12.7495L3.723 11.061C3.06762 10.3988 2.7 9.50474 2.7 8.57303H0.2995ZM2.017 4.39703C0.917024 5.50858 0.299518 7.00923 0.2995 8.57303H2.7C2.7 7.64153 3.0675 6.74753 3.723 6.08503L2.017 4.39703ZM2.0235 4.39103L2.02 4.39403L3.7205 6.08803L3.723 6.08503L2.0235 4.39103ZM11.146 7.90353L12.078 6.97153L10.381 5.27453L9.449 6.20653L11.146 7.90353ZM7.81 6.97153L8.7415 7.90353L10.4385 6.20653L9.5065 5.27453L7.81 6.97153ZM2.021 12.7535L8.0975 18.8375L9.7955 17.1415L3.719 11.0575L2.021 12.7535ZM8.7415 6.13603C8.89937 6.29394 9.08679 6.41921 9.29308 6.50467C9.49936 6.59013 9.72046 6.63412 9.94375 6.63412C10.167 6.63412 10.3881 6.59013 10.5944 6.50467C10.8007 6.41921 10.9881 6.29394 11.146 6.13603L9.4485 4.43903C9.5135 4.37403 9.59067 4.32246 9.67561 4.28727C9.76054 4.25209 9.85157 4.23398 9.9435 4.23398C10.0354 4.23398 10.1265 4.25209 10.2114 4.28727C10.2963 4.32246 10.3735 4.37353 10.4385 4.43853L8.741 6.13603H8.7415ZM9.449 6.20653C9.514 6.14153 9.59117 6.08996 9.67611 6.05477C9.76104 6.01959 9.85207 6.00148 9.944 6.00148C10.0359 6.00148 10.127 6.01959 10.2119 6.05477C10.2968 6.08996 10.3735 6.14153 10.4385 6.20653L8.7415 7.90353C8.89937 8.06144 9.08679 8.18721 9.29308 8.27267C9.49936 8.35813 9.72046 8.40212 9.94375 8.40212C10.167 8.40212 10.3881 8.35813 10.5944 8.27267C10.8007 8.18721 10.9881 8.06144 11.146 7.90353L9.4485 6.20603L9.449 6.20653Z" fill="#3139FB"/>
</g>
</svg>
